<svg width="85" height="82" xmlns="http://www.w3.org/2000/svg" xmlns:xlink="http://www.w3.org/1999/xlink" xml:space="preserve" overflow="hidden"><defs><clipPath id="clip0"><rect x="422" y="263" width="85" height="82"/></clipPath></defs><g clip-path="url(#clip0)" transform="translate(-422 -263)"><path d="M52.0858 16.5272 48.0792 10.5173 44.0726 16.5272 48.0792 22.5371Z" fill="#FFC000" transform="matrix(1.00759 0 0 1 415.929 255.175)"/><path d="M48.0792 25.5421 33.8558 49.3813 17.028 41.5685 23.0379 67.6113 23.0379 73.6212 73.1204 73.6212 73.1204 67.6113 79.1303 41.5685 62.3026 49.3813Z" fill="#FFC000" transform="matrix(1.00759 0 0 1 415.929 255.175)"/><path d="M23.0379 77.6278 73.1204 77.6278 73.1204 85.641 23.0379 85.641Z" fill="#FFC000" transform="matrix(1.00759 0 0 1 415.929 255.175)"/><path d="M6.31039 30.8508 7.7127 37.8624 14.7242 39.2647 13.3219 32.2531Z" fill="#FFC000" transform="matrix(1.00759 0 0 1 415.929 255.175)"/><path d="M82.8364 32.2531 81.4341 39.2647 88.4457 37.8624 89.848 30.8508Z" fill="#FFC000" transform="matrix(1.00759 0 0 1 415.929 255.175)"/></g></svg>