<svg width="33" height="40" xmlns="http://www.w3.org/2000/svg" xmlns:xlink="http://www.w3.org/1999/xlink" xml:space="preserve" overflow="hidden"><defs><clipPath id="clip0"><rect x="304" y="341" width="33" height="40"/></clipPath></defs><g clip-path="url(#clip0)" transform="translate(-304 -341)"><path d="M12.0344 43.4855C11.2253 43.4855 10.5343 43.1989 9.96121 42.6259 9.38814 42.0528 9.10161 41.3618 9.10161 40.5527L9.10161 16.0795C9.10161 15.2705 9.38814 14.5794 9.96121 14.0064 10.5343 13.4333 11.2253 13.1468 12.0344 13.1468L17.0402 13.1468 17.0402 12.2872C17.0402 10.2646 17.7397 8.55383 19.1387 7.15488 20.5376 5.75593 22.2484 5.05645 24.271 5.05645 26.2935 5.05645 28.0043 5.75593 29.4033 7.15488 30.8022 8.55383 31.5017 10.2646 31.5017 12.2872L31.5017 13.1468 36.5076 13.1468C37.3166 13.1468 38.0077 13.4333 38.5807 14.0064 39.1538 14.5794 39.4403 15.2705 39.4403 16.0795L39.4403 40.5527C39.4403 41.3618 39.1538 42.0528 38.5807 42.6259 38.0077 43.1989 37.3166 43.4855 36.5076 43.4855ZM19.3662 12.2872 19.3662 13.1468 29.1757 13.1468 29.1757 12.2872C29.1757 10.9051 28.7038 9.73367 27.7599 8.77294 26.816 7.81222 25.6531 7.33185 24.271 7.33185 22.8889 7.33185 21.7259 7.81222 20.782 8.77294 19.8381 9.73367 19.3662 10.9051 19.3662 12.2872ZM12.0344 41.2101 36.5076 41.2101C36.6761 41.2101 36.8278 41.1427 36.9627 41.0078 37.0975 40.873 37.1649 40.7213 37.1649 40.5527L37.1649 16.0795C37.1649 15.911 37.0975 15.7593 36.9627 15.6244 36.8278 15.4896 36.6761 15.4222 36.5076 15.4222L31.5017 15.4222 31.5017 20.3775C31.5017 20.6809 31.3921 20.9421 31.173 21.1612 30.9539 21.3804 30.6758 21.4899 30.3387 21.4899 30.0016 21.4899 29.7235 21.3804 29.5044 21.1612 29.2853 20.9421 29.1757 20.6809 29.1757 20.3775L29.1757 15.4222 19.3662 15.4222 19.3662 20.3775C19.3662 20.6809 19.2566 20.9421 19.0375 21.1612 18.8184 21.3804 18.5403 21.4899 18.2032 21.4899 17.8661 21.4899 17.588 21.3804 17.3689 21.1612 17.1498 20.9421 17.0402 20.6809 17.0402 20.3775L17.0402 15.4222 12.0344 15.4222C11.8658 15.4222 11.7141 15.4896 11.5793 15.6244 11.4444 15.7593 11.377 15.911 11.377 16.0795L11.377 40.5527C11.377 40.7213 11.4444 40.873 11.5793 41.0078 11.7141 41.1427 11.8658 41.2101 12.0344 41.2101ZM11.377 41.2101C11.377 41.2101 11.377 41.1511 11.377 41.0331 11.377 40.9151 11.377 40.755 11.377 40.5527L11.377 16.0795C11.377 15.8773 11.377 15.7171 11.377 15.5991 11.377 15.4812 11.377 15.4222 11.377 15.4222 11.377 15.4222 11.377 15.4812 11.377 15.5991 11.377 15.7171 11.377 15.8773 11.377 16.0795L11.377 40.5527C11.377 40.755 11.377 40.9151 11.377 41.0331 11.377 41.1511 11.377 41.2101 11.377 41.2101Z" transform="matrix(1.01279 0 0 1 296.34 336.497)"/></g></svg>