<?xml version="1.0" encoding="UTF-8" standalone="no"?>
<!-- Created with Inkscape (http://www.inkscape.org/) -->

<svg
   xmlns:dc="http://purl.org/dc/elements/1.1/"
   xmlns:cc="http://creativecommons.org/ns#"
   xmlns:rdf="http://www.w3.org/1999/02/22-rdf-syntax-ns#"
   xmlns:svg="http://www.w3.org/2000/svg"
   xmlns="http://www.w3.org/2000/svg"
   xmlns:sodipodi="http://sodipodi.sourceforge.net/DTD/sodipodi-0.dtd"
   xmlns:inkscape="http://www.inkscape.org/namespaces/inkscape"
   width="200"
   height="200"
   viewBox="0 0 52.916665 52.916668"
   version="1.1"
   id="svg1801"
   inkscape:version="0.92.5 (2060ec1f9f, 2020-04-08)"
   sodipodi:docname="ai.svg">
  <defs
     id="defs1795" />
  <sodipodi:namedview
     id="base"
     pagecolor="#ffffff"
     bordercolor="#666666"
     borderopacity="1.0"
     inkscape:pageopacity="0.0"
     inkscape:pageshadow="2"
     inkscape:zoom="0.98994949"
     inkscape:cx="500.82241"
     inkscape:cy="75.126778"
     inkscape:document-units="mm"
     inkscape:current-layer="g2737"
     showgrid="false"
     units="px"
     inkscape:window-width="1366"
     inkscape:window-height="658"
     inkscape:window-x="0"
     inkscape:window-y="27"
     inkscape:window-maximized="1" />
  <metadata
     id="metadata1798">
    <rdf:RDF>
      <cc:Work
         rdf:about="">
        <dc:format>image/svg+xml</dc:format>
        <dc:type
           rdf:resource="http://purl.org/dc/dcmitype/StillImage" />
        <dc:title></dc:title>
      </cc:Work>
    </rdf:RDF>
  </metadata>
  <g
     inkscape:label="Capa 1"
     inkscape:groupmode="layer"
     id="layer1"
     transform="translate(0,-244.08332)">
    <g
       id="g2737"
       transform="matrix(3.0686084,0,0,3.0686084,0.65164915,244.95661)">
      <g
         id="g2679"
         style="fill:#b3b3b3">
	<g
   id="g2677"
   style="fill:#b3b3b3">
		<path
   id="path2673"
   d="M 6.847,5.772 H 6.822 C 6.695,6.283 6.568,6.932 6.427,7.429 L 5.917,9.25 H 7.815 L 7.28,7.429 C 7.128,6.919 6.975,6.283 6.847,5.772 Z"
   style="fill:#b3b3b3"
   inkscape:connector-curvature="0" />

		<path
   id="path2675"
   d="M 15.837,0 H 1.033 C 0.462,0 0,0.462 0,1.033 v 14.805 c 0,0.57 0.462,1.033 1.033,1.033 h 14.805 c 0.57,0 1.033,-0.463 1.033,-1.033 V 1.033 C 16.871,0.463 16.408,0 15.837,0 Z M 8.758,12.905 8.095,10.702 H 5.638 L 5.026,12.905 H 3.014 L 5.638,4.322 h 2.546 l 2.663,8.583 z m 5.035,0 H 11.856 V 6.678 h 1.937 z m -0.98,-6.991 c -0.611,0 -1.019,-0.434 -1.007,-0.969 -0.012,-0.561 0.396,-0.979 1.021,-0.979 0.623,0 1.018,0.419 1.03,0.979 0,0.535 -0.407,0.969 -1.044,0.969 z"
   style="fill:#b3b3b3"
   inkscape:connector-curvature="0" />

	</g>

</g>
      <g
         id="g2681">
</g>
      <g
         id="g2683">
</g>
      <g
         id="g2685">
</g>
      <g
         id="g2687">
</g>
      <g
         id="g2689">
</g>
      <g
         id="g2691">
</g>
      <g
         id="g2693">
</g>
      <g
         id="g2695">
</g>
      <g
         id="g2697">
</g>
      <g
         id="g2699">
</g>
      <g
         id="g2701">
</g>
      <g
         id="g2703">
</g>
      <g
         id="g2705">
</g>
      <g
         id="g2707">
</g>
      <g
         id="g2709">
</g>
    </g>
  </g>
</svg>
