<?xml version="1.0" encoding="UTF-8" standalone="no"?>
<!-- Created with Inkscape (http://www.inkscape.org/) -->

<svg
   xmlns:dc="http://purl.org/dc/elements/1.1/"
   xmlns:cc="http://creativecommons.org/ns#"
   xmlns:rdf="http://www.w3.org/1999/02/22-rdf-syntax-ns#"
   xmlns:svg="http://www.w3.org/2000/svg"
   xmlns="http://www.w3.org/2000/svg"
   xmlns:sodipodi="http://sodipodi.sourceforge.net/DTD/sodipodi-0.dtd"
   xmlns:inkscape="http://www.inkscape.org/namespaces/inkscape"
   width="200"
   height="200"
   viewBox="0 0 52.916665 52.916668"
   version="1.1"
   id="svg1801"
   inkscape:version="0.92.5 (2060ec1f9f, 2020-04-08)"
   sodipodi:docname="css.svg">
  <defs
     id="defs1795" />
  <sodipodi:namedview
     id="base"
     pagecolor="#ffffff"
     bordercolor="#666666"
     borderopacity="1.0"
     inkscape:pageopacity="0.0"
     inkscape:pageshadow="2"
     inkscape:zoom="0.98994949"
     inkscape:cx="244.08988"
     inkscape:cy="75.126778"
     inkscape:document-units="mm"
     inkscape:current-layer="layer1"
     showgrid="false"
     units="px"
     inkscape:window-width="1366"
     inkscape:window-height="658"
     inkscape:window-x="0"
     inkscape:window-y="27"
     inkscape:window-maximized="1" />
  <metadata
     id="metadata1798">
    <rdf:RDF>
      <cc:Work
         rdf:about="">
        <dc:format>image/svg+xml</dc:format>
        <dc:type
           rdf:resource="http://purl.org/dc/dcmitype/StillImage" />
        <dc:title></dc:title>
      </cc:Work>
    </rdf:RDF>
  </metadata>
  <g
     inkscape:label="Capa 1"
     inkscape:groupmode="layer"
     id="layer1"
     transform="translate(0,-244.08332)">
    <g
       id="g1708"
       transform="matrix(1.3864088,0,0,1.3864088,-119.93067,147.03993)">
      <path
         id="path1418"
         d="m 119.63176,78.215329 -2.19938,25.505381 c -3.25933,2.52885 -7.35218,4.03386 -11.7973,4.03386 -4.44512,0 -8.537967,-1.50501 -11.797303,-4.03386 l -2.19938,-25.505381 z"
         style="fill:#b3b3b3;fill-opacity:1;stroke-width:0.07525422"
         inkscape:connector-curvature="0" />
      <polygon
         transform="matrix(0.07525422,0,0,0.07525422,86.37,69.224406)"
         id="polygon1420"
         points="255.997,151.338 255.997,505.296 378.269,470.777 405.545,151.338 "
         style="fill:#cccccc;fill-opacity:1" />
      <polygon
         transform="matrix(0.07525422,0,0,0.07525422,86.37,69.224406)"
         id="polygon1422"
         points="275.85,289.787 367.999,242.89 371.981,195.746 140.013,195.746 144.072,243.811 237.189,243.811 147.845,288.484 152.002,337.723 311.376,337.723 306.152,396.366 255.997,409.95 203.752,395.321 202.446,358.75 153.778,358.75 159.866,430.848 255.997,458.015 352.127,430.848 364.039,289.779 364.036,289.787 "
         style="fill:#ffffff" />
      <g
         transform="matrix(0.07525422,0,0,0.07525422,86.37,69.224406)"
         id="g1430"
         style="fill:#b3b3b3;fill-opacity:1">
        <polygon
           id="polygon1424"
           points="147.937,15.676 147.937,85.335 213.417,85.335 213.417,67.224 165.352,67.224 165.352,33.787 213.417,33.787 213.417,15.676 "
           style="fill:#b3b3b3;fill-opacity:1" />
        <polygon
           id="polygon1426"
           points="289.347,15.676 223.866,15.676 223.866,58.864 270.799,58.864 270.799,67.224 223.866,67.224 223.866,85.335 289.347,85.335 289.347,67.224 289.347,42.93 241.542,42.93 241.542,34.57 289.347,34.57 289.347,33.787 "
           style="fill:#b3b3b3;fill-opacity:1" />
        <polygon
           id="polygon1428"
           points="364.056,15.676 298.576,15.676 298.576,58.864 345.509,58.864 345.509,67.224 298.576,67.224 298.576,85.335 364.056,85.335 364.056,67.224 364.056,42.93 316.252,42.93 316.252,34.57 364.056,34.57 364.056,33.787 "
           style="fill:#b3b3b3;fill-opacity:1" />
      </g>
      <g
         transform="matrix(0.07525422,0,0,0.07525422,86.37,69.224406)"
         id="g1432" />
      <g
         transform="matrix(0.07525422,0,0,0.07525422,86.37,69.224406)"
         id="g1434" />
      <g
         transform="matrix(0.07525422,0,0,0.07525422,86.37,69.224406)"
         id="g1436" />
      <g
         transform="matrix(0.07525422,0,0,0.07525422,86.37,69.224406)"
         id="g1438" />
      <g
         transform="matrix(0.07525422,0,0,0.07525422,86.37,69.224406)"
         id="g1440" />
      <g
         transform="matrix(0.07525422,0,0,0.07525422,86.37,69.224406)"
         id="g1442" />
      <g
         transform="matrix(0.07525422,0,0,0.07525422,86.37,69.224406)"
         id="g1444" />
      <g
         transform="matrix(0.07525422,0,0,0.07525422,86.37,69.224406)"
         id="g1446" />
      <g
         transform="matrix(0.07525422,0,0,0.07525422,86.37,69.224406)"
         id="g1448" />
      <g
         transform="matrix(0.07525422,0,0,0.07525422,86.37,69.224406)"
         id="g1450" />
      <g
         transform="matrix(0.07525422,0,0,0.07525422,86.37,69.224406)"
         id="g1452" />
      <g
         transform="matrix(0.07525422,0,0,0.07525422,86.37,69.224406)"
         id="g1454" />
      <g
         transform="matrix(0.07525422,0,0,0.07525422,86.37,69.224406)"
         id="g1456" />
      <g
         transform="matrix(0.07525422,0,0,0.07525422,86.37,69.224406)"
         id="g1458" />
      <g
         transform="matrix(0.07525422,0,0,0.07525422,86.37,69.224406)"
         id="g1460" />
    </g>
  </g>
</svg>
