<?xml version="1.0" encoding="UTF-8" standalone="no"?>
<!-- Generator: Adobe Illustrator 18.0.0, SVG Export Plug-In . SVG Version: 6.00 Build 0)  -->

<svg
   xmlns:dc="http://purl.org/dc/elements/1.1/"
   xmlns:cc="http://creativecommons.org/ns#"
   xmlns:rdf="http://www.w3.org/1999/02/22-rdf-syntax-ns#"
   xmlns:svg="http://www.w3.org/2000/svg"
   xmlns="http://www.w3.org/2000/svg"
   xmlns:sodipodi="http://sodipodi.sourceforge.net/DTD/sodipodi-0.dtd"
   xmlns:inkscape="http://www.inkscape.org/namespaces/inkscape"
   version="1.1"
   id="Capa_1"
   x="0px"
   y="0px"
   viewBox="0 0 39.999999 25"
   xml:space="preserve"
   sodipodi:docname="email.svg"
   width="40"
   height="25"
   inkscape:version="0.92.5 (2060ec1f9f, 2020-04-08)"><metadata
   id="metadata39"><rdf:RDF><cc:Work
       rdf:about=""><dc:format>image/svg+xml</dc:format><dc:type
         rdf:resource="http://purl.org/dc/dcmitype/StillImage" /><dc:title></dc:title></cc:Work></rdf:RDF></metadata><defs
   id="defs37" /><sodipodi:namedview
   pagecolor="#ffffff"
   bordercolor="#666666"
   borderopacity="1"
   objecttolerance="10"
   gridtolerance="10"
   guidetolerance="10"
   inkscape:pageopacity="0"
   inkscape:pageshadow="2"
   inkscape:window-width="1366"
   inkscape:window-height="658"
   id="namedview35"
   showgrid="false"
   inkscape:zoom="3.8257577"
   inkscape:cx="-5.6682695"
   inkscape:cy="-26.57916"
   inkscape:window-x="0"
   inkscape:window-y="27"
   inkscape:window-maximized="1"
   inkscape:current-layer="Capa_1" />
<path
   d="M 33.910486,0.81194546 H 5.4276602 c -1.9430416,0 -3.5236528,1.58054164 -3.5236528,3.52365484 V 20.547555 c 0,1.943042 1.5806112,3.523653 3.5236528,3.523653 H 33.910413 c 1.943042,0 3.523581,-1.580611 3.523581,-3.523653 V 4.3356003 C 37.434067,2.3924871 35.853528,0.81194546 33.910486,0.81194546 Z M 35.085035,4.3356003 V 20.547555 c 0,0.18532 -0.05219,0.354512 -0.129086,0.510455 l -8.30386,-8.304508 8.430574,-8.4305748 c 0,0.00465 0.0025,0.00808 0.0025,0.012735 z M 4.2531093,20.547483 V 4.3356003 c 0,-0.00466 0.00237,-0.00794 0.00237,-0.012598 L 12.686052,12.753578 4.3816163,21.057942 C 4.3053,20.902007 4.2531029,20.732887 4.2531029,20.547495 Z M 20.031575,16.052454 c -0.193815,0.193742 -0.531191,0.193742 -0.725006,0 L 6.4158124,3.161048 H 32.92291 Z m -5.684628,-1.63792 3.298736,3.298807 c 0.540838,0.540766 1.259434,0.838399 2.023389,0.838399 0.763883,0 1.482552,-0.297633 2.023389,-0.838399 l 3.298881,-3.298807 7.306924,7.307574 H 7.0393021 Z"
   id="path2"
   inkscape:connector-curvature="0"
   style="stroke-width:0.0719965" />
<g
   id="g4"
   transform="translate(0,-468.49701)">
</g>
<g
   id="g6"
   transform="translate(0,-468.49701)">
</g>
<g
   id="g8"
   transform="translate(0,-468.49701)">
</g>
<g
   id="g10"
   transform="translate(0,-468.49701)">
</g>
<g
   id="g12"
   transform="translate(0,-468.49701)">
</g>
<g
   id="g14"
   transform="translate(0,-468.49701)">
</g>
<g
   id="g16"
   transform="translate(0,-468.49701)">
</g>
<g
   id="g18"
   transform="translate(0,-468.49701)">
</g>
<g
   id="g20"
   transform="translate(0,-468.49701)">
</g>
<g
   id="g22"
   transform="translate(0,-468.49701)">
</g>
<g
   id="g24"
   transform="translate(0,-468.49701)">
</g>
<g
   id="g26"
   transform="translate(0,-468.49701)">
</g>
<g
   id="g28"
   transform="translate(0,-468.49701)">
</g>
<g
   id="g30"
   transform="translate(0,-468.49701)">
</g>
<g
   id="g32"
   transform="translate(0,-468.49701)">
</g>
</svg>