<?xml version="1.0" encoding="UTF-8" standalone="no"?>
<!-- Created with Inkscape (http://www.inkscape.org/) -->

<svg
   xmlns:dc="http://purl.org/dc/elements/1.1/"
   xmlns:cc="http://creativecommons.org/ns#"
   xmlns:rdf="http://www.w3.org/1999/02/22-rdf-syntax-ns#"
   xmlns:svg="http://www.w3.org/2000/svg"
   xmlns="http://www.w3.org/2000/svg"
   xmlns:sodipodi="http://sodipodi.sourceforge.net/DTD/sodipodi-0.dtd"
   xmlns:inkscape="http://www.inkscape.org/namespaces/inkscape"
   width="200"
   height="200"
   viewBox="0 0 52.916665 52.916668"
   version="1.1"
   id="svg1801"
   inkscape:version="0.92.5 (2060ec1f9f, 2020-04-08)"
   sodipodi:docname="github.svg">
  <defs
     id="defs1795" />
  <sodipodi:namedview
     id="base"
     pagecolor="#ffffff"
     bordercolor="#666666"
     borderopacity="1.0"
     inkscape:pageopacity="0.0"
     inkscape:pageshadow="2"
     inkscape:zoom="0.98994949"
     inkscape:cx="500.82241"
     inkscape:cy="75.126778"
     inkscape:document-units="mm"
     inkscape:current-layer="layer1"
     showgrid="false"
     units="px"
     inkscape:window-width="1366"
     inkscape:window-height="658"
     inkscape:window-x="0"
     inkscape:window-y="27"
     inkscape:window-maximized="1" />
  <metadata
     id="metadata1798">
    <rdf:RDF>
      <cc:Work
         rdf:about="">
        <dc:format>image/svg+xml</dc:format>
        <dc:type
           rdf:resource="http://purl.org/dc/dcmitype/StillImage" />
        <dc:title></dc:title>
      </cc:Work>
    </rdf:RDF>
  </metadata>
  <g
     inkscape:label="Capa 1"
     inkscape:groupmode="layer"
     id="layer1"
     transform="translate(0,-244.08332)">
    <path
       id="path292"
       d="m 26.726945,245.7335 c -14.359949,0 -25.5288081,11.16885 -25.5288081,25.5288 0,16.75329 15.1577501,23.93327 17.5510771,23.93327 1.595526,0 1.595526,-0.7978 1.595526,-1.59555 v -3.98891 c -5.584417,1.59558 -7.977744,-1.59552 -8.775507,-3.98885 0,0 0,-0.79779 -1.5955638,-2.39332 -0.7977629,-0.79779 -3.9888783,-2.39332 -0.7977629,-2.39332 2.3933267,0 3.9888527,3.19109 3.9888527,3.19109 2.393327,3.19109 5.584455,2.39331 7.179981,1.59555 0,-1.59555 1.595564,-3.19111 1.595564,-3.19111 -6.382218,-0.79777 -11.168872,-3.19109 -11.168872,-11.96663 0,-3.19109 0.797801,-5.58441 2.393327,-7.17996 0,0 -1.595526,-3.19111 0,-7.17998 0,0 3.988891,0 7.179981,3.1911 2.393327,-1.59555 10.371097,-1.59555 12.764424,0 3.191091,-3.1911 7.179969,-3.1911 7.179969,-3.1911 1.595538,5.58443 0,7.17998 0,7.17998 1.595538,1.59555 2.393327,3.98887 2.393327,7.17996 0,8.77554 -5.584444,11.16886 -11.168861,11.96663 0.797763,0.79779 1.595565,2.39332 1.595565,4.78665 v 6.38222 c 0,0.79775 0,1.59555 1.595525,1.59555 2.393327,0 17.55108,-7.17998 17.55108,-23.93327 0,-14.35995 -11.168876,-25.5288 -25.528824,-25.5288 z"
       inkscape:connector-curvature="0"
       style="fill:#b3b3b3;fill-opacity:1;stroke-width:0" />
  </g>
</svg>
