<?xml version="1.0" encoding="UTF-8" standalone="no"?>
<!-- Created with Inkscape (http://www.inkscape.org/) -->

<svg
   xmlns:dc="http://purl.org/dc/elements/1.1/"
   xmlns:cc="http://creativecommons.org/ns#"
   xmlns:rdf="http://www.w3.org/1999/02/22-rdf-syntax-ns#"
   xmlns:svg="http://www.w3.org/2000/svg"
   xmlns="http://www.w3.org/2000/svg"
   xmlns:sodipodi="http://sodipodi.sourceforge.net/DTD/sodipodi-0.dtd"
   xmlns:inkscape="http://www.inkscape.org/namespaces/inkscape"
   width="200"
   height="200"
   viewBox="0 0 52.916665 52.916668"
   version="1.1"
   id="svg1801"
   inkscape:version="0.92.5 (2060ec1f9f, 2020-04-08)"
   sodipodi:docname="HTML.svg">
  <defs
     id="defs1795" />
  <sodipodi:namedview
     id="base"
     pagecolor="#ffffff"
     bordercolor="#666666"
     borderopacity="1.0"
     inkscape:pageopacity="0.0"
     inkscape:pageshadow="2"
     inkscape:zoom="0.98994949"
     inkscape:cx="244.08988"
     inkscape:cy="75.126778"
     inkscape:document-units="mm"
     inkscape:current-layer="layer1"
     showgrid="false"
     units="px"
     inkscape:window-width="1366"
     inkscape:window-height="658"
     inkscape:window-x="0"
     inkscape:window-y="27"
     inkscape:window-maximized="1" />
  <metadata
     id="metadata1798">
    <rdf:RDF>
      <cc:Work
         rdf:about="">
        <dc:format>image/svg+xml</dc:format>
        <dc:type
           rdf:resource="http://purl.org/dc/dcmitype/StillImage" />
        <dc:title></dc:title>
      </cc:Work>
    </rdf:RDF>
  </metadata>
  <g
     inkscape:label="Capa 1"
     inkscape:groupmode="layer"
     id="layer1"
     transform="translate(0,-244.08332)">
    <g
       id="g1662"
       transform="matrix(1.37815,0,0,1.37815,-56.921467,146.87851)">
      <path
         id="path1496"
         d="m 75.289326,78.564637 -2.252498,26.121373 c -3.338052,2.58992 -7.529751,4.13127 -12.082222,4.13127 -4.511392,0 -8.668485,-1.51399 -11.992048,-4.06206 L 46.704434,78.564637 Z"
         style="fill:#b3b3b3;fill-opacity:1;stroke-width:0.0770717"
         inkscape:connector-curvature="0" />
      <polygon
         transform="matrix(0.0770717,0,0,0.0770717,41.224251,69.356573)"
         id="polygon1498"
         points="405.655,151.249 256.546,151.249 256.546,504.167 378.46,469.75 "
         style="fill:#cccccc" />
      <polygon
         transform="matrix(0.0770717,0,0,0.0770717,41.224251,69.356573)"
         id="polygon1500"
         points="160.705,429.941 256.549,457.028 352.392,429.941 364.27,289.295 196.928,289.295 192.775,243.456 192.774,243.454 368.226,242.535 372.194,195.528 140.903,195.528 152.858,337.091 311.761,337.091 306.562,395.568 256.549,409.112 204.46,394.52 203.152,358.061 154.631,358.061 "
         style="fill:#ffffff" />
      <polygon
         style="fill:#b3b3b3;fill-opacity:1"
         transform="matrix(0.0770717,0,0,0.0770717,41.224251,69.356573)"
         id="polygon1502"
         points="127.921,63.815 151.159,63.815 151.159,86.513 172.777,86.513 172.777,16.796 151.159,16.796 151.159,41.117 127.921,41.117 127.921,16.796 106.303,16.796 106.303,86.513 127.921,86.513 " />
      <polygon
         style="fill:#b3b3b3;fill-opacity:1"
         transform="matrix(0.0770717,0,0,0.0770717,41.224251,69.356573)"
         id="polygon1504"
         points="249.521,41.117 249.521,16.796 183.045,16.796 183.045,41.117 204.663,41.117 204.663,87.055 227.903,87.055 227.903,41.117 " />
      <polygon
         style="fill:#b3b3b3;fill-opacity:1"
         transform="matrix(0.0770717,0,0,0.0770717,41.224251,69.356573)"
         id="polygon1506"
         points="406.79,64.895 373.284,64.895 373.284,17.337 350.044,17.337 350.044,64.895 350.044,87.055 373.284,87.055 406.79,87.055 " />
      <polygon
         style="fill:#b3b3b3;fill-opacity:1"
         transform="matrix(0.0770717,0,0,0.0770717,41.224251,69.356573)"
         id="polygon1508"
         points="298.702,77.327 314.914,52.465 314.914,87.055 338.154,87.055 338.154,17.337 314.914,17.337 298.702,42.197 282.488,17.337 259.249,17.337 259.249,87.055 282.488,87.055 282.488,52.465 " />
    </g>
  </g>
</svg>
