<?xml version="1.0" encoding="UTF-8" standalone="no"?>
<!-- Created with Inkscape (http://www.inkscape.org/) -->

<svg
   xmlns:dc="http://purl.org/dc/elements/1.1/"
   xmlns:cc="http://creativecommons.org/ns#"
   xmlns:rdf="http://www.w3.org/1999/02/22-rdf-syntax-ns#"
   xmlns:svg="http://www.w3.org/2000/svg"
   xmlns="http://www.w3.org/2000/svg"
   xmlns:sodipodi="http://sodipodi.sourceforge.net/DTD/sodipodi-0.dtd"
   xmlns:inkscape="http://www.inkscape.org/namespaces/inkscape"
   width="1400"
   height="200"
   viewBox="0 0 370.41668 52.91669"
   version="1.1"
   id="svg8"
   sodipodi:docname="icons.svg"
   inkscape:version="0.92.5 (2060ec1f9f, 2020-04-08)">
  <defs
     id="defs2">
    <filter
       inkscape:collect="always"
       style="color-interpolation-filters:sRGB"
       id="filter1632"
       x="-0.012"
       width="1.024"
       y="-0.012"
       height="1.024">
      <feGaussianBlur
         inkscape:collect="always"
         stdDeviation="1.28"
         id="feGaussianBlur1634" />
    </filter>
  </defs>
  <sodipodi:namedview
     id="base"
     pagecolor="#ffffff"
     bordercolor="#666666"
     borderopacity="1.0"
     inkscape:pageopacity="0.0"
     inkscape:pageshadow="2"
     inkscape:zoom="0.49497475"
     inkscape:cx="554.0401"
     inkscape:cy="111.45903"
     inkscape:document-units="mm"
     inkscape:current-layer="layer1"
     showgrid="false"
     inkscape:window-width="1366"
     inkscape:window-height="658"
     inkscape:window-x="0"
     inkscape:window-y="27"
     inkscape:window-maximized="1"
     units="px" />
  <metadata
     id="metadata5">
    <rdf:RDF>
      <cc:Work
         rdf:about="">
        <dc:format>image/svg+xml</dc:format>
        <dc:type
           rdf:resource="http://purl.org/dc/dcmitype/StillImage" />
        <dc:title></dc:title>
      </cc:Work>
    </rdf:RDF>
  </metadata>
  <g
     inkscape:label="Capa 1"
     inkscape:groupmode="layer"
     id="layer1"
     transform="translate(0,-244.08345)">
    <g
       id="g290"
       transform="matrix(0.14974095,0,0,0.14974095,219.37839,251.75401)">
      <path
         id="path276"
         d="M 0,222.991 C 0,241.223 14.779,256 33.009,256 H 222.99 C 241.223,256 256,241.221 256,222.991 V 33.01 C 256,14.777 241.221,0 222.991,0 H 33.01 C 14.777,0 0,14.779 0,33.009 V 222.99 Z"
         inkscape:connector-curvature="0"
         style="fill:#b3b3b3;fill-opacity:1" />
      <path
         id="path278"
         d="M 106.158,113.238 V 76.985 h 31.911 c 3.04,0 5.97,0.253 8.792,0.76 2.822,0.506 5.319,1.41 7.49,2.713 2.17,1.303 3.907,3.112 5.21,5.427 1.302,2.316 1.954,5.283 1.954,8.9 0,6.513 -1.954,11.217 -5.862,14.111 -3.907,2.895 -8.9,4.342 -14.979,4.342 z M 72.075,50.5 v 155 h 75.112 c 6.947,0 13.713,-0.868 20.298,-2.605 6.585,-1.737 12.446,-4.414 17.584,-8.032 5.137,-3.618 9.226,-8.286 12.265,-14.002 3.04,-5.717 4.559,-12.483 4.559,-20.298 0,-9.697 -2.352,-17.982 -7.055,-24.856 -4.704,-6.875 -11.832,-11.687 -21.384,-14.437 6.947,-3.328 12.194,-7.598 15.74,-12.808 3.545,-5.21 5.318,-11.722 5.318,-19.538 0,-7.236 -1.194,-13.314 -3.582,-18.235 -2.388,-4.92 -5.753,-8.864 -10.095,-11.831 -4.341,-2.967 -9.551,-5.102 -15.63,-6.404 C 159.127,51.151 152.397,50.5 145.016,50.5 Z m 34.083,128.515 v -42.549 h 37.121 c 7.381,0 13.315,1.7 17.802,5.102 4.486,3.401 6.73,9.081 6.73,17.041 0,4.053 -0.688,7.381 -2.063,9.986 -1.375,2.605 -3.22,4.668 -5.536,6.187 -2.315,1.52 -4.993,2.605 -8.032,3.257 -3.04,0.65 -6.223,0.976 -9.552,0.976 z"
         inkscape:connector-curvature="0"
         style="fill:#ffffff" />
    </g>
    <path
       id="path292"
       d="m 291.16641,251.62708 c -11.20283,0 -19.91615,8.71331 -19.91615,19.91614 0,13.06998 11.82523,18.6714 13.69237,18.6714 1.24474,0 1.24474,-0.6224 1.24474,-1.24476 v -3.11192 c -4.35665,1.24478 -6.22379,-1.24474 -6.84616,-3.11188 0,0 0,-0.62239 -1.24477,-1.86714 -0.62237,-0.62239 -3.1119,-1.86713 -0.62237,-1.86713 1.86714,0 3.11188,2.48951 3.11188,2.48951 1.86714,2.48951 4.35668,1.86713 5.60142,1.24476 0,-1.24476 1.24477,-2.48953 1.24477,-2.48953 -4.97905,-0.62237 -8.71333,-2.48951 -8.71333,-9.33569 0,-2.48951 0.6224,-4.35665 1.86714,-5.60141 0,0 -1.24474,-2.48952 0,-5.60142 0,0 3.11191,0 5.60142,2.48952 1.86714,-1.24476 8.09095,-1.24476 9.95809,0 2.48951,-2.48952 5.60141,-2.48952 5.60141,-2.48952 1.24475,4.35666 0,5.60142 0,5.60142 1.24475,1.24476 1.86714,3.1119 1.86714,5.60141 0,6.84618 -4.35667,8.71332 -8.71332,9.33569 0.62237,0.62239 1.24477,1.86714 1.24477,3.73428 v 4.97905 c 0,0.62236 0,1.24476 1.24474,1.24476 1.86714,0 13.69237,-5.60142 13.69237,-18.6714 0,-11.20283 -8.71333,-19.91614 -19.91616,-19.91614 z"
       inkscape:connector-curvature="0"
       style="fill:#b3b3b3;fill-opacity:1;stroke-width:0" />
    <g
       id="g316"
       transform="matrix(0.15600508,0,0,0.15600508,2.4996339,250.9522)"
       inkscape:export-xdpi="64"
       inkscape:export-ydpi="64"
       style="filter:url(#filter1632)">
      <path
         id="path302"
         d="M 0,0 H 256 V 256 H 0 Z"
         inkscape:connector-curvature="0"
         style="fill:#b3b3b3" />
      <path
         id="path304"
         d="m 67.312,213.932 19.59,-11.856 c 3.78,6.701 7.218,12.371 15.465,12.371 7.905,0 12.89,-3.092 12.89,-15.12 v -81.798 h 24.057 v 82.138 c 0,24.917 -14.606,36.259 -35.916,36.259 -19.245,0 -30.416,-9.967 -36.087,-21.996 m 85.07,-2.576 19.588,-11.341 c 5.157,8.421 11.859,14.607 23.715,14.607 9.969,0 16.325,-4.984 16.325,-11.858 0,-8.248 -6.53,-11.17 -17.528,-15.98 l -6.013,-2.58 c -17.357,-7.387 -28.87,-16.667 -28.87,-36.257 0,-18.044 13.747,-31.792 35.228,-31.792 15.294,0 26.292,5.328 34.196,19.247 l -18.732,12.03 c -4.125,-7.389 -8.591,-10.31 -15.465,-10.31 -7.046,0 -11.514,4.468 -11.514,10.31 0,7.217 4.468,10.14 14.778,14.608 l 6.014,2.577 c 20.45,8.765 31.963,17.7 31.963,37.804 0,21.654 -17.012,33.51 -39.867,33.51 -22.339,0 -36.774,-10.654 -43.819,-24.574"
         inkscape:connector-curvature="0"
         style="fill:#ffffff" />
      <text
         xml:space="preserve"
         style="font-style:normal;font-weight:normal;font-size:67.83966827px;line-height:1.25;font-family:sans-serif;letter-spacing:0px;word-spacing:0px;fill:#000000;fill-opacity:1;stroke:none;stroke-width:1.69599175"
         x="65.142548"
         y="138.89581"
         id="text1851"><tspan
           sodipodi:role="line"
           id="tspan1849"
           x="65.142548"
           y="198.91801"
           style="stroke-width:1.69599175" /></text>
    </g>
    <g
       id="g322"
       transform="matrix(0.26458333,0,0,0.26458333,133.36785,253.29166)"
       style="fill-rule:evenodd">
      <ellipse
         id="ellipse318"
         ry="66.629997"
         rx="128"
         cy="66.629997"
         cx="128"
         style="fill:#b3b3b3;fill-opacity:1" />
      <path
         id="path320"
         d="M 35.945,106.082 49.973,35.068 H 82.41 c 14.027,0.877 21.041,7.89 21.041,20.165 0,21.041 -16.657,33.315 -31.562,32.438 H 56.11 l -3.507,18.411 z M 59.616,74.521 64,48.219 h 11.397 c 6.137,0 10.52,2.63 10.52,7.89 -0.876,14.905 -7.89,17.535 -15.78,18.412 h -10.52 z m 40.576,13.15 14.027,-71.013 h 16.658 l -3.507,18.41 h 15.78 c 14.028,0.877 19.288,7.89 17.535,16.658 l -6.137,35.945 h -17.534 l 6.137,-32.438 c 0.876,-4.384 0.876,-7.014 -5.26,-7.014 H 124.74 l -7.89,39.452 z m 53.233,18.411 14.027,-71.014 h 32.438 c 14.028,0.877 21.042,7.89 21.042,20.165 0,21.041 -16.658,33.315 -31.562,32.438 h -15.781 l -3.507,18.411 z m 23.67,-31.561 4.384,-26.302 h 11.398 c 6.137,0 10.52,2.63 10.52,7.89 -0.876,14.905 -7.89,17.535 -15.78,18.412 h -10.521 z"
         inkscape:connector-curvature="0"
         style="fill:#ffffff;fill-opacity:1" />
    </g>
    <path
       id="path337"
       d="m 349.4773,251.49036 1.47964,0.3287 1.20009,0.42749 0.97,0.49336 0.73979,0.52629 0.55922,0.55921 0.41072,0.55923 0.26283,0.54245 0.16404,0.49335 0.0659,0.4275 0.0311,0.3287 -0.0186,0.21375 v 8.77896 l -0.082,1.03574 -0.21375,0.9042 -0.34547,0.75626 -0.42749,0.62472 -0.49336,0.5095 -0.54245,0.41135 -0.57537,0.31254 -0.57538,0.22991 -0.54245,0.16461 -0.49335,0.11495 -0.4275,0.0659 -0.34547,0.0311 h -9.81471 l -1.13435,0.082 -0.96994,0.2299 -0.822,0.36163 -0.67405,0.44364 -0.54244,0.52629 -0.44365,0.57539 -0.3287,0.59152 -0.24668,0.60831 -0.16466,0.57539 -0.11494,0.52629 -0.0659,0.44364 -0.0311,0.34547 v 5.0307 h -3.66614 l -0.34547,-0.0497 -0.46043,-0.11496 -0.52629,-0.19758 -0.57537,-0.29577 -0.59216,-0.4275 -0.59153,-0.59215 -0.57538,-0.75625 -0.52629,-0.96995 -0.46042,-1.20015 -0.34548,-1.4467 -0.2299,-1.72625 -0.082,-2.0221 0.0988,-2.00567 0.26284,-1.70979 0.39456,-1.43031 0.52629,-1.16721 0.59215,-0.93714 0.65758,-0.72332 0.69052,-0.54245 0.69045,-0.39454 0.65765,-0.26285 0.59153,-0.16461 0.52629,-0.082 0.39456,-0.0187 h 0.26283 l 0.0988,0.0187 h 13.41511 v -1.36456 h -9.60103 l -0.0186,-4.521 -0.0311,-0.6083 0.082,-0.55923 0.18082,-0.50951 0.27961,-0.46043 0.41071,-0.42748 0.50952,-0.37841 0.62471,-0.3287 0.72332,-0.29577 0.83846,-0.24668 0.95354,-0.19698 1.05214,-0.16461 1.16728,-0.0988 1.2659,-0.0659 1.38096,-0.0311 2.08789,0.082 z m -10.35722,3.25511 -0.3784,0.54244 -0.13173,0.67405 0.13173,0.67404 0.3784,0.55923 0.54245,0.36163 0.67405,0.14788 0.67404,-0.14788 0.54245,-0.36163 0.37841,-0.55923 0.13172,-0.67404 -0.13172,-0.67405 -0.37841,-0.54244 -0.54245,-0.36163 -0.67404,-0.14788 -0.67405,0.14788 z m 21.52003,6.49386 0.46043,0.0988 0.52629,0.19759 0.57537,0.29578 0.59216,0.44364 0.59153,0.57537 0.57538,0.77267 0.52629,0.96999 0.46042,1.2001 0.34548,1.44677 0.2299,1.70971 0.082,2.02216 -0.0988,2.02213 -0.26283,1.70974 -0.39457,1.4139 -0.52629,1.16721 -0.59215,0.93707 -0.65758,0.73985 -0.69052,0.54245 -0.69045,0.39456 -0.65764,0.26284 -0.59154,0.14789 -0.52629,0.082 -0.39456,0.0311 -0.26283,-0.0187 H 345.7456 v 1.34809 h 9.60096 l 0.0186,4.53746 0.0311,0.59155 -0.082,0.55921 -0.18081,0.50952 -0.27961,0.47657 -0.41072,0.41072 -0.50951,0.39457 -0.62478,0.3287 -0.72338,0.27961 -0.8384,0.24668 -0.95353,0.21374 -1.05221,0.14788 -1.16722,0.11496 -1.26589,0.0659 -1.38097,0.0187 -2.08788,-0.0658 -1.75907,-0.2299 -1.47964,-0.32871 -1.20008,-0.4107 -0.97001,-0.49337 -0.73978,-0.54244 -0.55923,-0.55921 -0.41133,-0.55923 -0.26284,-0.54245 -0.16466,-0.49336 -0.0659,-0.41071 -0.0311,-0.3287 0.0186,-0.21375 v -8.77841 l 0.082,-1.05215 0.21375,-0.88779 0.34547,-0.75626 0.42749,-0.62471 0.49336,-0.52629 0.54245,-0.39457 0.57537,-0.32868 0.57538,-0.2299 0.54245,-0.16461 0.49335,-0.0988 0.4275,-0.0658 0.34547,-0.0311 0.21375,-0.0187 h 9.60096 l 1.13442,-0.082 0.96993,-0.2299 0.822,-0.34549 0.67405,-0.46042 0.54244,-0.52629 0.44365,-0.57537 0.3287,-0.59154 0.24668,-0.59153 0.16404,-0.57537 0.11496,-0.52629 0.0659,-0.46042 0.0311,-0.34549 v -5.03063 h 3.43598 l 0.2299,0.0187 z m -10.6367,23.4271 -0.37841,0.54245 -0.13173,0.67404 0.13173,0.67405 0.37841,0.54244 0.54244,0.37841 0.67405,0.13169 0.67405,-0.13169 0.54244,-0.37841 0.37841,-0.54244 0.13172,-0.67405 -0.13172,-0.67404 -0.37841,-0.54245 -0.54244,-0.37841 -0.67405,-0.13168 -0.67405,0.13168 z"
       inkscape:connector-curvature="0"
       style="fill:#b3b3b3;fill-opacity:1;stroke-width:1.64400804" />
    <g
       id="g1708"
       transform="translate(4.3246639,181.84151)">
      <path
         id="path1418"
         d="m 119.63176,78.215329 -2.19938,25.505381 c -3.25933,2.52885 -7.35218,4.03386 -11.7973,4.03386 -4.44512,0 -8.537967,-1.50501 -11.797303,-4.03386 l -2.19938,-25.505381 z"
         style="fill:#b3b3b3;fill-opacity:1;stroke-width:0.07525422"
         inkscape:connector-curvature="0" />
      <polygon
         transform="matrix(0.07525422,0,0,0.07525422,86.37,69.224406)"
         id="polygon1420"
         points="378.269,470.777 405.545,151.338 255.997,151.338 255.997,505.296 "
         style="fill:#cccccc;fill-opacity:1" />
      <polygon
         transform="matrix(0.07525422,0,0,0.07525422,86.37,69.224406)"
         id="polygon1422"
         points="153.778,358.75 159.866,430.848 255.997,458.015 352.127,430.848 364.039,289.779 364.036,289.787 275.85,289.787 367.999,242.89 371.981,195.746 140.013,195.746 144.072,243.811 237.189,243.811 147.845,288.484 152.002,337.723 311.376,337.723 306.152,396.366 255.997,409.95 203.752,395.321 202.446,358.75 "
         style="fill:#ffffff" />
      <g
         transform="matrix(0.07525422,0,0,0.07525422,86.37,69.224406)"
         id="g1430"
         style="fill:#b3b3b3;fill-opacity:1">
	<polygon
   id="polygon1424"
   points="213.417,85.335 213.417,67.224 165.352,67.224 165.352,33.787 213.417,33.787 213.417,15.676 147.937,15.676 147.937,85.335 "
   style="fill:#b3b3b3;fill-opacity:1" />

	<polygon
   id="polygon1426"
   points="289.347,67.224 289.347,42.93 241.542,42.93 241.542,34.57 289.347,34.57 289.347,33.787 289.347,15.676 223.866,15.676 223.866,58.864 270.799,58.864 270.799,67.224 223.866,67.224 223.866,85.335 289.347,85.335 "
   style="fill:#b3b3b3;fill-opacity:1" />

	<polygon
   id="polygon1428"
   points="364.056,67.224 364.056,42.93 316.252,42.93 316.252,34.57 364.056,34.57 364.056,33.787 364.056,15.676 298.576,15.676 298.576,58.864 345.509,58.864 345.509,67.224 298.576,67.224 298.576,85.335 364.056,85.335 "
   style="fill:#b3b3b3;fill-opacity:1" />

</g>
      <g
         transform="matrix(0.07525422,0,0,0.07525422,86.37,69.224406)"
         id="g1432">
</g>
      <g
         transform="matrix(0.07525422,0,0,0.07525422,86.37,69.224406)"
         id="g1434">
</g>
      <g
         transform="matrix(0.07525422,0,0,0.07525422,86.37,69.224406)"
         id="g1436">
</g>
      <g
         transform="matrix(0.07525422,0,0,0.07525422,86.37,69.224406)"
         id="g1438">
</g>
      <g
         transform="matrix(0.07525422,0,0,0.07525422,86.37,69.224406)"
         id="g1440">
</g>
      <g
         transform="matrix(0.07525422,0,0,0.07525422,86.37,69.224406)"
         id="g1442">
</g>
      <g
         transform="matrix(0.07525422,0,0,0.07525422,86.37,69.224406)"
         id="g1444">
</g>
      <g
         transform="matrix(0.07525422,0,0,0.07525422,86.37,69.224406)"
         id="g1446">
</g>
      <g
         transform="matrix(0.07525422,0,0,0.07525422,86.37,69.224406)"
         id="g1448">
</g>
      <g
         transform="matrix(0.07525422,0,0,0.07525422,86.37,69.224406)"
         id="g1450">
</g>
      <g
         transform="matrix(0.07525422,0,0,0.07525422,86.37,69.224406)"
         id="g1452">
</g>
      <g
         transform="matrix(0.07525422,0,0,0.07525422,86.37,69.224406)"
         id="g1454">
</g>
      <g
         transform="matrix(0.07525422,0,0,0.07525422,86.37,69.224406)"
         id="g1456">
</g>
      <g
         transform="matrix(0.07525422,0,0,0.07525422,86.37,69.224406)"
         id="g1458">
</g>
      <g
         transform="matrix(0.07525422,0,0,0.07525422,86.37,69.224406)"
         id="g1460">
</g>
    </g>
    <g
       id="g1662"
       transform="translate(4.3246639,181.18667)">
      <path
         id="path1496"
         d="m 75.289326,78.564637 -2.252498,26.121373 c -3.338052,2.58992 -7.529751,4.13127 -12.082222,4.13127 -4.511392,0 -8.668485,-1.51399 -11.992048,-4.06206 L 46.704434,78.564637 Z"
         style="fill:#b3b3b3;fill-opacity:1;stroke-width:0.0770717"
         inkscape:connector-curvature="0" />
      <polygon
         transform="matrix(0.0770717,0,0,0.0770717,41.224251,69.356573)"
         id="polygon1498"
         points="256.546,151.249 256.546,504.167 378.46,469.75 405.655,151.249 "
         style="fill:#cccccc" />
      <polygon
         transform="matrix(0.0770717,0,0,0.0770717,41.224251,69.356573)"
         id="polygon1500"
         points="352.392,429.941 364.27,289.295 196.928,289.295 192.775,243.456 192.774,243.454 368.226,242.535 372.194,195.528 140.903,195.528 152.858,337.091 311.761,337.091 306.562,395.568 256.549,409.112 204.46,394.52 203.152,358.061 154.631,358.061 160.705,429.941 256.549,457.028 "
         style="fill:#ffffff" />
      <polygon
         style="fill:#b3b3b3;fill-opacity:1"
         transform="matrix(0.0770717,0,0,0.0770717,41.224251,69.356573)"
         id="polygon1502"
         points="106.303,16.796 106.303,86.513 127.921,86.513 127.921,63.815 151.159,63.815 151.159,86.513 172.777,86.513 172.777,16.796 151.159,16.796 151.159,41.117 127.921,41.117 127.921,16.796 " />
      <polygon
         style="fill:#b3b3b3;fill-opacity:1"
         transform="matrix(0.0770717,0,0,0.0770717,41.224251,69.356573)"
         id="polygon1504"
         points="249.521,16.796 183.045,16.796 183.045,41.117 204.663,41.117 204.663,87.055 227.903,87.055 227.903,41.117 249.521,41.117 " />
      <polygon
         style="fill:#b3b3b3;fill-opacity:1"
         transform="matrix(0.0770717,0,0,0.0770717,41.224251,69.356573)"
         id="polygon1506"
         points="373.284,64.895 373.284,17.337 350.044,17.337 350.044,64.895 350.044,87.055 373.284,87.055 406.79,87.055 406.79,64.895 " />
      <polygon
         style="fill:#b3b3b3;fill-opacity:1"
         transform="matrix(0.0770717,0,0,0.0770717,41.224251,69.356573)"
         id="polygon1508"
         points="259.249,87.055 282.488,87.055 282.488,52.465 298.702,77.327 314.914,52.465 314.914,87.055 338.154,87.055 338.154,17.337 314.914,17.337 298.702,42.197 282.488,17.337 259.249,17.337 " />
    </g>
    <g
       id="g1510"
       transform="matrix(0.0770717,0,0,0.0770717,41.224251,69.356573)">
</g>
    <g
       id="g1512"
       transform="matrix(0.0770717,0,0,0.0770717,41.224251,69.356573)">
</g>
    <g
       id="g1514"
       transform="matrix(0.0770717,0,0,0.0770717,41.224251,69.356573)">
</g>
    <g
       id="g1516"
       transform="matrix(0.0770717,0,0,0.0770717,41.224251,69.356573)">
</g>
    <g
       id="g1518"
       transform="matrix(0.0770717,0,0,0.0770717,41.224251,69.356573)">
</g>
    <g
       id="g1520"
       transform="matrix(0.0770717,0,0,0.0770717,41.224251,69.356573)">
</g>
    <g
       id="g1522"
       transform="matrix(0.0770717,0,0,0.0770717,41.224251,69.356573)">
</g>
    <g
       id="g1524"
       transform="matrix(0.0770717,0,0,0.0770717,41.224251,69.356573)">
</g>
    <g
       id="g1526"
       transform="matrix(0.0770717,0,0,0.0770717,41.224251,69.356573)">
</g>
    <g
       id="g1528"
       transform="matrix(0.0770717,0,0,0.0770717,41.224251,69.356573)">
</g>
    <g
       id="g1530"
       transform="matrix(0.0770717,0,0,0.0770717,41.224251,69.356573)">
</g>
    <g
       id="g1532"
       transform="matrix(0.0770717,0,0,0.0770717,41.224251,69.356573)">
</g>
    <g
       id="g1534"
       transform="matrix(0.0770717,0,0,0.0770717,41.224251,69.356573)">
</g>
    <g
       id="g1536"
       transform="matrix(0.0770717,0,0,0.0770717,41.224251,69.356573)">
</g>
    <g
       id="g1538"
       transform="matrix(0.0770717,0,0,0.0770717,41.224251,69.356573)">
</g>
  </g>
</svg>
