<?xml version="1.0" encoding="UTF-8" standalone="no"?>
<!-- Created with Inkscape (http://www.inkscape.org/) -->

<svg
   xmlns:dc="http://purl.org/dc/elements/1.1/"
   xmlns:cc="http://creativecommons.org/ns#"
   xmlns:rdf="http://www.w3.org/1999/02/22-rdf-syntax-ns#"
   xmlns:svg="http://www.w3.org/2000/svg"
   xmlns="http://www.w3.org/2000/svg"
   xmlns:sodipodi="http://sodipodi.sourceforge.net/DTD/sodipodi-0.dtd"
   xmlns:inkscape="http://www.inkscape.org/namespaces/inkscape"
   width="200"
   height="200"
   viewBox="0 0 52.916665 52.916668"
   version="1.1"
   id="svg1801"
   inkscape:version="0.92.5 (2060ec1f9f, 2020-04-08)"
   sodipodi:docname="javascript.svg">
  <defs
     id="defs1795" />
  <sodipodi:namedview
     id="base"
     pagecolor="#ffffff"
     bordercolor="#666666"
     borderopacity="1.0"
     inkscape:pageopacity="0.0"
     inkscape:pageshadow="2"
     inkscape:zoom="0.98994949"
     inkscape:cx="484.50618"
     inkscape:cy="75.126778"
     inkscape:document-units="mm"
     inkscape:current-layer="layer1"
     showgrid="false"
     units="px"
     inkscape:window-width="1366"
     inkscape:window-height="658"
     inkscape:window-x="0"
     inkscape:window-y="27"
     inkscape:window-maximized="1" />
  <metadata
     id="metadata1798">
    <rdf:RDF>
      <cc:Work
         rdf:about="">
        <dc:format>image/svg+xml</dc:format>
        <dc:type
           rdf:resource="http://purl.org/dc/dcmitype/StillImage" />
        <dc:title></dc:title>
      </cc:Work>
    </rdf:RDF>
  </metadata>
  <g
     inkscape:label="Capa 1"
     inkscape:groupmode="layer"
     id="layer1"
     transform="translate(0,-244.08332)">
    <path
       id="path2056"
       d="M 0.3102485,244.92539 H 52.876388 v 52.56616 H 0.3102485 Z m 48.2622825,40.03243 c -0.384374,-2.4049 -1.951518,-4.41556 -6.578979,-6.29645 -1.608195,-0.75236 -3.405299,-1.28295 -3.935885,-2.49853 -0.197123,-0.71951 -0.231643,-1.11215 -0.103498,-1.54085 0.333464,-1.42096 2.002441,-1.83986 3.319875,-1.44561 0.855843,0.26449 1.642696,0.91502 2.138787,1.968 2.266915,-1.48007 2.266915,-1.48007 3.842254,-2.46407 -0.589755,-0.91496 -0.880479,-1.31746 -1.282939,-1.70184 -1.378222,-1.54904 -3.216389,-2.33592 -6.202806,-2.26688 l -1.549058,0.19681 c -1.480068,0.35948 -2.891139,1.14661 -3.746982,2.19952 -2.490319,2.8238 -1.770817,7.75187 1.24845,9.79705 2.98641,2.23242 7.357618,2.7203 7.922699,4.82619 0.522392,2.56757 -1.907163,3.3889 -4.312064,3.08828 -1.770823,-0.39424 -2.754793,-1.28294 -3.842253,-2.92561 l -4.004888,2.3014 c 0.453414,1.05298 0.983976,1.50633 1.770823,2.42955 3.807758,3.84225 13.338659,3.64513 15.0487,-2.19958 0.05898,-0.19744 0.522391,-1.54905 0.162603,-3.61062 z m -19.6778,-15.87173 h -4.919862 c 0,4.24308 -0.02608,8.46152 -0.02608,12.71447 0,2.69565 0.136341,5.17611 -0.298944,5.93834 -0.727716,1.50633 -2.583957,1.3174 -3.431585,1.05291 -0.864057,-0.42715 -1.309226,-1.01846 -1.813532,-1.87431 -0.146213,-0.23158 -0.248034,-0.42715 -0.282554,-0.42715 l -3.995028,2.46407 c 0.666934,1.37818 1.642696,2.5675 2.900999,3.31986 1.874308,1.12034 4.389268,1.48007 7.024148,0.89031 1.711686,-0.49607 3.191747,-1.51452 3.960527,-3.08822 1.120317,-2.03698 0.880485,-4.53383 0.872271,-7.33297 0.02608,-4.50099 0,-9.0003 0,-13.53581 z"
       inkscape:connector-curvature="0"
       style="stroke-width:1.64269173;fill:#b3b3b3" />
  </g>
</svg>
