<?xml version="1.0" encoding="UTF-8" standalone="no"?>
<!-- Created with Inkscape (http://www.inkscape.org/) -->

<svg
   xmlns:dc="http://purl.org/dc/elements/1.1/"
   xmlns:cc="http://creativecommons.org/ns#"
   xmlns:rdf="http://www.w3.org/1999/02/22-rdf-syntax-ns#"
   xmlns:svg="http://www.w3.org/2000/svg"
   xmlns="http://www.w3.org/2000/svg"
   xmlns:sodipodi="http://sodipodi.sourceforge.net/DTD/sodipodi-0.dtd"
   xmlns:inkscape="http://www.inkscape.org/namespaces/inkscape"
   width="200"
   height="200"
   viewBox="0 0 52.916665 52.916668"
   version="1.1"
   id="svg1801"
   inkscape:version="0.92.5 (2060ec1f9f, 2020-04-08)"
   sodipodi:docname="linux.svg">
  <defs
     id="defs1795" />
  <sodipodi:namedview
     id="base"
     pagecolor="#ffffff"
     bordercolor="#666666"
     borderopacity="1.0"
     inkscape:pageopacity="0.0"
     inkscape:pageshadow="2"
     inkscape:zoom="0.98994949"
     inkscape:cx="318.48987"
     inkscape:cy="75.126778"
     inkscape:document-units="mm"
     inkscape:current-layer="g2737"
     showgrid="false"
     units="px"
     inkscape:window-width="1366"
     inkscape:window-height="658"
     inkscape:window-x="0"
     inkscape:window-y="27"
     inkscape:window-maximized="1" />
  <metadata
     id="metadata1798">
    <rdf:RDF>
      <cc:Work
         rdf:about="">
        <dc:format>image/svg+xml</dc:format>
        <dc:type
           rdf:resource="http://purl.org/dc/dcmitype/StillImage" />
        <dc:title></dc:title>
      </cc:Work>
    </rdf:RDF>
  </metadata>
  <g
     inkscape:label="Capa 1"
     inkscape:groupmode="layer"
     id="layer1"
     transform="translate(0,-244.08332)">
    <g
       id="g2737"
       transform="matrix(3.0686084,0,0,3.0686084,0.65164915,244.95661)">
      <g
         id="g2681">
</g>
      <g
         id="g2683">
</g>
      <g
         id="g2685">
</g>
      <g
         id="g2687">
</g>
      <g
         id="g2689">
</g>
      <g
         id="g2691">
</g>
      <g
         id="g2693">
</g>
      <g
         id="g2695">
</g>
      <g
         id="g2697">
</g>
      <g
         id="g2699">
</g>
      <g
         id="g2701">
</g>
      <g
         id="g2703">
</g>
      <g
         id="g2705">
</g>
      <g
         id="g2707">
</g>
      <g
         id="g2709">
</g>
      <g
         id="g2995"
         transform="matrix(0.05594319,0,0,0.05594319,19.799639,14.143962)">
        <path
           id="path2993"
           d="m -203.66131,-180.62419 c 0,1 -1,1 -1,1 h -1 c -1,0 -1,-1 -2,-2 0,0 -1,-1 -1,-2 0,-1 0,-1 1,-1 l 2,1 c 1,1 2,2 2,3 m -18,-10 c 0,-5 -2,-8 -5,-8 0,0 0,1 -1,1 v 2 h 3 c 0,2 1,3 1,5 h 2 m 35,-5 c 2,0 3,2 4,5 h 2 c -1,-1 -1,-2 -1,-3 0,-1 0,-2 -1,-3 -1,-1 -2,-2 -3,-2 0,0 -1,1 -2,1 0,1 1,1 1,2 m -30,16 c -1,0 -1,0 -1,-1 0,-1 0,-2 1,-3 2,0 3,-1 3,-1 1,0 1,1 1,1 0,1 -1,2 -3,4 h -1 m -11,-1 c -4,-2 -5,-5 -5,-10 0,-3 0,-5 2,-7 1,-2 3,-3 5,-3 2,0 3,1 5,3 1,3 2,6 2,9 v 1 1 h 1 v -1 c 1,0 1,-2 1,-6 0,-3 0,-6 -2,-9 -2,-3 -4,-5 -8,-5 -3,0 -6,2 -7,5 -2,4 -2.4,7 -2.4,12 0,4 1.4,8 5.4,12 1,-1 2,-1 3,-2 m 125,141.000006 c 1,0 1,-0.4 1,-1.3 0,-2.2 -1,-4.8 -4,-7.7 -3,-3 -8,-4.9 -14,-5.7 -1,-0.1 -2,-0.1 -2,-0.1 -1,-0.2 -1,-0.2 -2,-0.2 -1,-0.1 -3,-0.3 -4,-0.5 3,-9.3 4,-17.5 4,-24.7 0,-10.000004 -2,-17.000004 -6,-23.000006 -4,-6 -8,-9 -13,-10 -1,1 -1,1 -1,2 5,2 10,6 13,12.000002 3,7 4,13 4,20.000004 0,5.6 -1,13.9 -5,24.5 -4,1.6 -8,5.3 -11,11.1 0,0.9 0,1.4 1,1.4 0,0 1,-0.9 2,-2.6 2,-1.7 3,-3.4 5,-5.1 3,-1.7 5,-2.6 8,-2.6 5,0 10,0.7 13,2.1 4,1.3 6,2.7 7,4.3 1,1.5 2,2.9 3,4.2 0,1.3 1,1.9 1,1.9 m -92,-145.000006 c -1,-1 -1,-3 -1,-5 0,-4 0,-6 2,-9 2,-2 4,-3 6,-3 3,0 5,2 7,4 1,3 2,5 2,8 0,5 -2,8 -6,9 0,0 1,1 2,1 2,0 3,1 5,2 1,-6 2,-10 2,-15 0,-6 -1,-10 -3,-13 -3,-3 -6,-4 -10,-4 -3,0 -6,1 -9,3 -2,3 -3,5 -3,8 0,5 1,9 3,13 1,0 2,1 3,1 m 12,16 c -13,9 -23,13 -31,13 -7,0 -14,-3 -20,-8 1,2 2,4 3,5 l 6,6 c 4,4 9,6 14,6 7,0 15,-4 25,-11 l 9,-6 c 2,-2 4,-4 4,-7 0,-1 0,-2 -1,-2 -1,-2 -6,-5 -16,-8 -9,-4 -16,-6 -20,-6 -3,0 -8,2 -15,6 -6,4 -10,8 -10,12 0,0 1,1 2,3 6,5 12,8 18,8 8,0 18,-4 31,-14 v 2 c 1,0 1,1 1,1 m 23,202.000006 c 4,7.52 11,11.3 19,11.3 2,0 4,-0.3 6,-0.9 2,-0.4 4,-1.1 5,-1.9 1,-0.7 2,-1.4 3,-2.2 2,-0.7 2,-1.2 3,-1.7 l 17,-14.7 c 4,-3.19 7.999999,-5.98 12.999999,-8.4 4,-2.4 8,-4 10,-4.8999997 3,-0.8 5,-2 7,-3.6000004 1,-1.5 2,-3.4 2,-5.80000002 0,-2.89999998 -2,-5.09999998 -4,-6.69999998 -2,-1.6 -4,-2.7 -6,-3.4 -2,-0.6999999 -4,-2.2999999 -7,-4.9999999 -2,-2.6 -4,-6.2 -5,-10.9 l -1,-5.8 c -1,-2.7 -1,-4.7 -2,-5.8 0,-0.3 0,-0.4 -0.999999,-0.4 -1,0 -3,0.9 -4,2.6 -2,1.7 -4,3.6 -6,5.6 -1,2 -4,3.8 -6,5.5 -3,1.7 -6,2.6 -8,2.6 -8,0 -12,-2.2 -15,-6.5 -2,-3.2 -3,-6.9 -4,-11.1 -2,-1.7 -3,-2.6 -5,-2.6 -5,0 -7,5.2 -7,15.7 v 3.3 11.6 8.8999999 4.3 3 c 0,0.9 -1,2.9000004 -1,6.0000001 -1,3.1 -1,6.62 -1,10.6 l -2,11.1 v 0.17 m -145,-5.29 c 9.3,1.36 20,4.27 32.1,8.71 12.1,4.4 19.5,6.7 22.2,6.7 7,0 12.8,-3.1 17.6,-9.09 1,-1.94 1,-4.22 1,-6.84 0,-9.45 -5.7,-21.4000001 -17.1,-35.9000001 l -6.8,-9.0999999 c -1.4,-1.9 -3.1,-4.8 -5.3,-8.7 -2.1,-3.9 -4,-6.9 -5.5,-9 -1.3,-2.3 -3.4,-4.6 -6.1,-6.9 -2.6,-2.3 -5.6,-3.8 -8.9,-4.6 -4.2,0.8 -7.1,2.2 -8.5,4.1 -1.4,1.9 -2.2,4 -2.4,6.2 -0.3,2.1 -0.9,3.5 -1.9,4.2 -1,0.6 -2.7,1.1 -5,1.6 -0.5,0 -1.4,0 -2.7,0.1 h -2.7 c -5.3,0 -8.9,0.6 -10.8,1.6 -2.5,2.9 -3.8,6.2 -3.8,9.7 0,1.6 0.4,4.3 1.2,8.1 0.8,3.6999999 1.2,6.6999999 1.2,8.7999999 0,4.1 -1.2,8.2 -3.7,12.3000001 -2.5,4.3 -3.8,7.5 -3.8,9.78 1,3.88 7.6,6.61 19.7,8.21 m 33.3,-90.9 c 0,-6.9 1.8,-14.5 5.5,-23.500004 3.6,-9 7.2,-15.000002 10.7,-19.000002 -0.2,-1 -0.7,-1 -1.5,-1 l -1,-1 c -2.9,3 -6.4,10.000002 -10.6,20.000002 -4.2,9.000004 -6.4,17.300004 -6.4,23.400004 0,4.5 1.1,8.4 3.1,11.8 2.2,3.3 7.5,8.1 15.9,14.2 l 10.6,6.9 c 11.3,9.8 17.3,16.6 17.3,20.6 0,2.0999999 -1,4.1999999 -4,6.4999999 -2,2.4 -4.7,3.59999998 -7,3.59999998 -0.2,0 -0.3,0.2 -0.3,0.7 0,0.1 1,2.10000002 3.1,6.00000002 4.2,5.7000001 13.2,8.5000001 25.2,8.5000001 22,0 39,-9.0000001 52,-27 0,-5 0,-8.1 -1,-9.4 v -3.7 c 0,-6.5 1,-11.4 3,-14.6 2,-3.2 4,-4.7 7,-4.7 2,0 4,0.7 6,2.2 1,-7.7 1,-14.4 1,-20.4 0,-9.1 0,-16.6 -2,-23.600004 -1,-6 -3,-11 -5,-15.000002 -2,-3 -4,-6 -6,-9 -2,-3 -3,-6 -5,-9 -1,-4 -2,-7 -2,-12 -3,-5 -5,-10 -8,-15 -2,-5 -4,-10 -6,-14 l -9,7 c -10,7 -18,10 -25,10 -6,0 -11,-1 -14,-5 l -6,-5 c 0,3 -1,7 -3,11 l -6.3,12 c -2.8,7 -4.3,11 -4.6,14 -0.4,2 -0.7,4 -0.9,4 l -7.5,15.000002 c -8.1,15.000004 -12.2,28.900004 -12.2,40.400004 0,2.3 0.2,4.7 0.6,7.1 -4.5,-3.1 -6.7,-7.4 -6.7,-13 m 71.6,94.6 c -13,0 -23,1.76 -30,5.25 v -0.3 c -5,6 -10.6,9.1 -18.4,9.1 -4.9,0 -12.6,-1.9 -23,-5.7 -10.5,-3.6 -19.8,-6.36 -27.9,-8.18 -0.8,-0.23 -2.6,-0.57 -5.5,-1.03 -2.8,-0.45 -5.4,-0.91 -7.7,-1.37 -2.1,-0.45 -4.5,-1.13 -7.1,-2.05 -2.5,-0.79 -4.5,-1.82 -6,-3.07 -1.38,-1.26 -2.06,-2.68 -2.06,-4.27 0,-1.6 0.34,-3.31 1.02,-5.13 0.64,-1.1 1.34,-2.2 2.04,-3.2 0.7,-1.1 1.3,-2.0999997 1.7,-3.0999997 0.6,-0.9 1,-1.8 1.4,-2.8000004 0.4,-0.9 0.8,-1.8 1,-2.9 0.2,-1 0.4,-2.00000002 0.4,-3.00000002 0,-0.99999998 -0.4,-3.99999998 -1.2,-9.29999998 -0.8,-5.1999999 -1.2,-8.4999999 -1.2,-9.8999999 0,-4.4 1,-7.9 3.2,-10.4 2.2,-2.5 4.3,-3.8 6.5,-3.8 h 11.5 c 0.9,0 2.3,-0.5 4.4,-1.7 0.7,-1.6 1.3,-2.9 1.7,-4.1 0.5,-1.2 0.7,-2.1 0.9,-2.5 0.2,-0.6 0.4,-1.2 0.6,-1.7 0.4,-0.7 0.9,-1.5 1.6,-2.3 -0.8,-1 -1.2,-2.3 -1.2,-3.9 0,-1.1 0,-2.1 0.2,-2.7 0,-3.6 1.7,-8.7 5.3,-15.4 l 3.5,-6.3 c 2.9,-5.4 5.1,-9.400004 6.7,-13.400004 1.7,-4 3.5,-10 5.5,-18.000002 1.6,-7 5.4,-14 11.4,-21 l 7.5,-9 c 5.2,-6 8.6,-11 10.5,-15 1.9,-4 2.9,-9 2.9,-13 0,-2 -0.5,-8 -1.6,-18 -1,-10 -1.5,-20 -1.5,-29 0,-7 0.6,-12 1.9,-17 1.3,-5 3.6,-10 7,-14 3,-4 7,-8 13,-10 6,-2 13,-3 21,-3 3,0 6,0 9,1 3,0 7,1 12,3 4,2 8,4 11,7 4,3 7,8 10,13 2,6 4,12 5,20 1,5 1,10 2,17 0,6 1,10 1,13 1,3 1,7 2,12 1,4 2,8 4,11 2,4 4,8 7,12 3,5 7,10 11,16 9,10 16,21 20,32.000002 5,10 7.999999,23.000004 7.999999,36.900004 0,6.9 -1,13.6 -2.999999,20.1 1.999999,0 2.999999,0.8 3.999999,2.2 1,1.4 2,4.4 3,9.1 l 1,7.4 c 1,2.2 2,4.3 5,6.1 2,1.8 4,3.3 7,4.5 2,1 5,2.3999999 7,4.1999999 2,2 3,4.1 3,6.29999998 0,3.40000002 -1,5.90000002 -3,7.70000042 -2,2 -4,3.3999997 -7,4.2999997 -2,1 -6,3 -12,5.82 -5,2.96 -9.999999,6.55 -14.999999,10.8 l -10,8.51 c -4,3.9 -8,6.7 -11,8.4 -3,1.8 -7,2.7 -11,2.7 l -7,-0.8 c -8,-2.1 -13,-6.1 -16,-12.2 -16,-1.94 -29,-2.9 -37,-2.9"
           inkscape:connector-curvature="0"
           style="fill:#b3b3b3;fill-opacity:1" />
      </g>
    </g>
  </g>
</svg>
