<?xml version="1.0" encoding="UTF-8" standalone="no"?>
<!-- Created with Inkscape (http://www.inkscape.org/) -->

<svg
   xmlns:dc="http://purl.org/dc/elements/1.1/"
   xmlns:cc="http://creativecommons.org/ns#"
   xmlns:rdf="http://www.w3.org/1999/02/22-rdf-syntax-ns#"
   xmlns:svg="http://www.w3.org/2000/svg"
   xmlns="http://www.w3.org/2000/svg"
   xmlns:sodipodi="http://sodipodi.sourceforge.net/DTD/sodipodi-0.dtd"
   xmlns:inkscape="http://www.inkscape.org/namespaces/inkscape"
   width="320"
   height="200"
   viewBox="0 0 84.666664 52.916668"
   version="1.1"
   id="svg1801"
   inkscape:version="0.92.5 (2060ec1f9f, 2020-04-08)"
   sodipodi:docname="mysql.svg">
  <defs
     id="defs1795" />
  <sodipodi:namedview
     id="base"
     pagecolor="#ffffff"
     bordercolor="#666666"
     borderopacity="1.0"
     inkscape:pageopacity="0.0"
     inkscape:pageshadow="2"
     inkscape:zoom="0.98994949"
     inkscape:cx="500.82241"
     inkscape:cy="75.126778"
     inkscape:document-units="mm"
     inkscape:current-layer="layer1"
     showgrid="false"
     units="px"
     inkscape:window-width="1366"
     inkscape:window-height="658"
     inkscape:window-x="0"
     inkscape:window-y="27"
     inkscape:window-maximized="1" />
  <metadata
     id="metadata1798">
    <rdf:RDF>
      <cc:Work
         rdf:about="">
        <dc:format>image/svg+xml</dc:format>
        <dc:type
           rdf:resource="http://purl.org/dc/dcmitype/StillImage" />
        <dc:title></dc:title>
      </cc:Work>
    </rdf:RDF>
  </metadata>
  <g
     inkscape:label="Capa 1"
     inkscape:groupmode="layer"
     id="layer1"
     transform="translate(0,-244.08332)">
    <path
       id="path2250"
       d="m 55.728285,250.04638 c -0.367685,0 -0.618051,0.0484 -0.876883,0.10888 v 0.0363 h 0.04838 c 0.172953,0.3326 0.466865,0.57572 0.684574,0.87326 0.172953,0.34227 0.319307,0.68456 0.492264,1.02442 l 0.04838,-0.0484 c 0.301165,-0.21165 0.447513,-0.55032 0.447513,-1.06557 -0.12822,-0.14993 -0.147559,-0.30118 -0.256411,-0.44753 -0.12822,-0.21407 -0.402763,-0.32051 -0.575719,-0.48983 z m -34.03321,42.22231 h -2.966526 c -0.09675,-4.99859 -0.394294,-9.69638 -0.863577,-14.11249 h -0.02419 l -4.512137,14.11249 H 11.072571 L 6.5923622,278.1562 h -0.036286 c -0.3289815,4.23372 -0.5370132,8.93791 -0.6240976,14.11249 H 3.2279144 C 3.4032876,285.97728 3.842336,280.07628 4.5399733,274.572 H 8.220099 l 4.272172,13.00533 h 0.02419 L 16.826976,274.572 h 3.504144 c 0.774076,6.44828 1.228844,12.35242 1.369629,17.69669 z m 12.854859,-13.05648 c -1.209616,6.5442 -2.803364,11.30599 -4.774598,14.27251 -1.542465,2.29125 -3.232129,3.43375 -5.065841,3.43375 -0.489845,0 -1.087335,-0.14748 -1.811217,-0.44147 v -1.5808 c 0.351963,0.0605 0.768029,0.0847 1.235257,0.0847 0.85753,0 1.545611,-0.2395 2.070409,-0.70999 0.630147,-0.57572 0.944616,-1.22242 0.944616,-1.93602 0,-0.49591 -0.246738,-1.504 -0.736581,-3.02095 l -3.24483,-10.1017 h 2.912099 l 2.326459,7.5522 c 0.524921,1.71531 0.746258,2.91222 0.655547,3.59378 1.280006,-3.40498 2.169708,-7.12671 2.672132,-11.14598 z m 39.44146,13.05648 h -8.41638 V 274.572 h 2.832149 v 15.52057 h 5.584231 z m -10.624432,0.4318 -3.251361,-1.60017 c 0.287859,-0.24311 0.566045,-0.50557 0.816409,-0.79945 1.385717,-1.61929 2.073676,-4.02582 2.073676,-7.20993 0,-5.85614 -2.297675,-8.78746 -6.896168,-8.78746 -2.252925,0 -4.01298,0.74262 -5.280285,2.23043 -1.376042,1.62567 -2.067267,4.01939 -2.067267,7.18428 0,3.11057 0.608376,5.39542 1.836857,6.84827 1.119992,1.31207 2.80651,1.96809 5.065843,1.96809 0.845435,0 1.619269,-0.10888 2.320051,-0.31326 l 4.240242,2.47051 1.151437,-1.99048 z m -10.53481,-3.97464 c -0.719647,-1.15144 -1.078867,-3.00802 -1.078867,-5.55532 0,-4.45783 1.356809,-6.68827 4.064139,-6.68827 1.417648,0 2.464102,0.53461 3.126543,1.60004 0.71723,1.15869 1.075238,2.99532 1.075238,5.51385 0,4.49289 -1.356931,6.74582 -4.06414,6.74582 -1.424057,0 -2.464101,-0.53459 -3.129807,-1.60005 z m -5.305806,-1.35996 c 0,1.50401 -0.550319,2.73926 -1.6512,3.69923 -1.100639,0.96035 -2.569689,1.44016 -4.428923,1.44016 -1.737679,0 -3.404965,-0.55033 -5.033789,-1.64807 l 0.758351,-1.52334 c 1.401683,0.70391 2.665725,1.04983 3.808212,1.04983 1.061935,0 1.897575,-0.23344 2.505586,-0.70392 0.601118,-0.4705 0.960337,-1.13331 0.960337,-1.96809 0,-1.05588 -0.73537,-1.95199 -2.073677,-2.70407 -1.241666,-0.68215 -3.721731,-2.10245 -3.721731,-2.10245 -1.350398,-0.98211 -2.022516,-2.03534 -2.022516,-3.76661 0,-1.44003 0.501942,-2.59206 1.504128,-3.47211 1.007509,-0.89017 2.304084,-1.32801 3.904122,-1.32801 1.638503,0 3.136097,0.43541 4.480205,1.31206 l -0.682153,1.52324 c -1.151437,-0.48622 -2.288119,-0.73659 -3.404965,-0.73659 -0.905911,0 -1.606451,0.21772 -2.092786,0.65918 -0.489846,0.43541 -0.793429,0.99177 -0.793429,1.67684 0,1.04984 0.748676,1.95212 2.131248,2.72015 1.257633,0.6882 3.798536,2.14407 3.798536,2.14407 1.385716,0.97606 2.073676,2.01597 2.073676,3.73769 z M 77.549845,268.6387 c -1.712038,-0.0484 -3.040062,0.12825 -4.150497,0.60111 -0.320518,0.12825 -0.832132,0.12825 -0.876883,0.53461 0.176582,0.16942 0.201976,0.4475 0.351962,0.68457 0.256413,0.42937 0.697878,1.00146 1.106686,1.30251 0.447514,0.35196 0.896236,0.69183 1.366488,0.99178 0.83213,0.5116 1.776019,0.81641 2.592065,1.33129 0.464444,0.30116 0.937358,0.68094 1.40809,1.00145 0.233433,0.15958 0.383411,0.44751 0.684574,0.55032 v -0.0605 c -0.14756,-0.19241 -0.192316,-0.4705 -0.336239,-0.68458 -0.21408,-0.21408 -0.42816,-0.40639 -0.639821,-0.61805 -0.620472,-0.83213 -1.392006,-1.55844 -2.224018,-2.16005 -0.684572,-0.46686 -2.182531,-1.11999 -2.464101,-1.9041 l -0.03629,-0.0484 c 0.466865,-0.0363 1.024441,-0.21168 1.472075,-0.33866 0.726906,-0.1924 1.392006,-0.14995 2.144069,-0.33988 0.338659,-0.0847 0.682155,-0.19219 1.024441,-0.30114 v -0.19241 c -0.38341,-0.38461 -0.672478,-0.90592 -1.069192,-1.26404 -1.087335,-0.9434 -2.29441,-1.86251 -3.53293,-2.63367 -0.67248,-0.42937 -1.523237,-0.70393 -2.230427,-1.06919 -0.256413,-0.12824 -0.684574,-0.19241 -0.832131,-0.40639 -0.38341,-0.46686 -0.608375,-1.08855 -0.880512,-1.6448 -0.614422,-1.17804 -1.216145,-2.48007 -1.750499,-3.72173 -0.383409,-0.83819 -0.618053,-1.6737 -1.088546,-2.44171 -2.208052,-3.63854 -4.598492,-5.84344 -8.275474,-8.00033 -0.7898,-0.4475 -1.737679,-0.63982 -2.739261,-0.87688 -0.534597,-0.0241 -1.069192,-0.0605 -1.600159,-0.0847 -0.351964,-0.14994 -0.691831,-0.55637 -0.991785,-0.75229 -1.216025,-0.76804 -4.364941,-2.43206 -5.260934,-0.22983 -0.575719,1.38886 0.853902,2.75862 1.350399,3.46253 0.367687,0.48986 0.832132,1.04985 1.088543,1.60017 0.149981,0.37132 0.192316,0.75231 0.342289,1.13936 0.339867,0.94099 0.662803,1.99045 1.110314,2.87048 0.233433,0.44751 0.489845,0.91801 0.789799,1.32161 0.172953,0.23344 0.466865,0.3423 0.534596,0.72691 -0.301164,0.43543 -0.320515,1.06918 -0.493474,1.60004 -0.768026,2.42249 -0.466864,5.41781 0.620471,7.20036 0.342285,0.53096 1.158695,1.70878 2.249659,1.25762 0.960336,-0.3834 0.748676,-1.60004 1.024439,-2.67214 0.06046,-0.25641 0.02418,-0.42573 0.15361,-0.59868 v 0.0484 c 0.301165,0.60113 0.601119,1.17444 0.876884,1.77616 0.659174,1.04983 1.811336,2.13765 2.774577,2.86408 0.511617,0.38461 0.918007,1.04984 1.558434,1.28642 v -0.0605 h -0.04838 c -0.137878,-0.18625 -0.320515,-0.27575 -0.493474,-0.42574 -0.383409,-0.38461 -0.816407,-0.85389 -1.11999,-1.28 -0.896235,-1.20707 -1.686396,-2.5282 -2.390443,-3.89784 -0.351962,-0.67247 -0.645868,-1.39528 -0.92768,-2.05758 -0.128221,-0.25642 -0.128221,-0.63982 -0.342288,-0.76804 -0.320515,0.46686 -0.7898,0.87326 -1.024441,1.44959 -0.40639,0.92162 -0.447511,2.05443 -0.601118,3.23212 -0.08467,0.0241 -0.04838,0 -0.08467,0.0484 -0.684573,-0.16697 -0.918007,-0.87689 -1.174418,-1.47207 -0.639822,-1.52011 -0.745048,-3.96183 -0.192316,-5.71222 0.14998,-0.4475 0.791009,-1.86248 0.534595,-2.29137 -0.134248,-0.4064 -0.556367,-0.63982 -0.789798,-0.97001 -0.278183,-0.39672 -0.575718,-0.91197 -0.768029,-1.3665 -0.511616,-1.1974 -0.768028,-2.52167 -1.324879,-3.71857 -0.256412,-0.55395 -0.703925,-1.13331 -1.069192,-1.64167 -0.406389,-0.57571 -0.855111,-0.9821 -1.178046,-1.66401 -0.108857,-0.23341 -0.256413,-0.62048 -0.08467,-0.87689 0.04838,-0.17291 0.134248,-0.23946 0.301165,-0.28786 0.281812,-0.22978 1.071612,0.0727 1.350399,0.19835 0.791008,0.32051 1.456111,0.62048 2.11855,1.06919 0.301162,0.21165 0.624097,0.61805 1.007506,0.72327 h 0.447515 c 0.684571,0.14994 1.456108,0.0484 2.09605,0.23344 1.135716,0.36528 2.160157,0.89623 3.078525,1.47195 2.803363,1.77929 5.107449,4.30424 6.67229,7.31551 0.256414,0.49346 0.367688,0.94341 0.601118,1.45609 0.447514,1.0559 1.001463,2.12171 1.45611,3.14251 0.447511,1.00752 0.880512,2.03523 1.523235,2.8705 0.320518,0.4475 1.60645,0.68215 2.182411,0.9156 0.425743,0.19218 1.088546,0.36767 1.472076,0.6011 0.73658,0.44752 1.452842,0.96034 2.144068,1.45286 0.351962,0.2431 1.417648,0.77769 1.48163,1.2096 z"
       inkscape:connector-curvature="0"
       style="stroke-width:3.20011783;fill:#b3b3b3" />
  </g>
</svg>
