<?xml version="1.0" encoding="UTF-8" standalone="no"?>
<!-- Created with Inkscape (http://www.inkscape.org/) -->

<svg
   xmlns:dc="http://purl.org/dc/elements/1.1/"
   xmlns:cc="http://creativecommons.org/ns#"
   xmlns:rdf="http://www.w3.org/1999/02/22-rdf-syntax-ns#"
   xmlns:svg="http://www.w3.org/2000/svg"
   xmlns="http://www.w3.org/2000/svg"
   xmlns:sodipodi="http://sodipodi.sourceforge.net/DTD/sodipodi-0.dtd"
   xmlns:inkscape="http://www.inkscape.org/namespaces/inkscape"
   width="400"
   height="200"
   viewBox="0 0 105.83333 52.916668"
   version="1.1"
   id="svg1801"
   inkscape:version="0.92.5 (2060ec1f9f, 2020-04-08)"
   sodipodi:docname="php.svg">
  <defs
     id="defs1795" />
  <sodipodi:namedview
     id="base"
     pagecolor="#ffffff"
     bordercolor="#666666"
     borderopacity="1.0"
     inkscape:pageopacity="0.0"
     inkscape:pageshadow="2"
     inkscape:zoom="0.98994949"
     inkscape:cx="484.50618"
     inkscape:cy="75.126778"
     inkscape:document-units="mm"
     inkscape:current-layer="layer1"
     showgrid="false"
     units="px"
     inkscape:window-width="1366"
     inkscape:window-height="658"
     inkscape:window-x="0"
     inkscape:window-y="27"
     inkscape:window-maximized="1" />
  <metadata
     id="metadata1798">
    <rdf:RDF>
      <cc:Work
         rdf:about="">
        <dc:format>image/svg+xml</dc:format>
        <dc:type
           rdf:resource="http://purl.org/dc/dcmitype/StillImage" />
        <dc:title></dc:title>
      </cc:Work>
    </rdf:RDF>
  </metadata>
  <g
     inkscape:label="Capa 1"
     inkscape:groupmode="layer"
     id="layer1"
     transform="translate(0,-244.08332)">
    <g
       id="g322"
       style="fill-rule:evenodd"
       transform="matrix(0.38937173,0,0,0.38937173,3.7807307,244.71193)">
      <ellipse
         id="ellipse318"
         ry="66.629997"
         rx="128"
         cy="66.629997"
         cx="128"
         style="fill:#b3b3b3;fill-opacity:1" />
      <path
         id="path320"
         d="M 35.945,106.082 49.973,35.068 H 82.41 c 14.027,0.877 21.041,7.89 21.041,20.165 0,21.041 -16.657,33.315 -31.562,32.438 H 56.11 l -3.507,18.411 z M 59.616,74.521 64,48.219 h 11.397 c 6.137,0 10.52,2.63 10.52,7.89 -0.876,14.905 -7.89,17.535 -15.78,18.412 h -10.52 z m 40.576,13.15 14.027,-71.013 h 16.658 l -3.507,18.41 h 15.78 c 14.028,0.877 19.288,7.89 17.535,16.658 l -6.137,35.945 h -17.534 l 6.137,-32.438 c 0.876,-4.384 0.876,-7.014 -5.26,-7.014 H 124.74 l -7.89,39.452 z m 53.233,18.411 14.027,-71.014 h 32.438 c 14.028,0.877 21.042,7.89 21.042,20.165 0,21.041 -16.658,33.315 -31.562,32.438 h -15.781 l -3.507,18.411 z m 23.67,-31.561 4.384,-26.302 h 11.398 c 6.137,0 10.52,2.63 10.52,7.89 -0.876,14.905 -7.89,17.535 -15.78,18.412 h -10.521 z"
         inkscape:connector-curvature="0"
         style="fill:#ffffff;fill-opacity:1" />
    </g>
  </g>
</svg>
