<?xml version="1.0" encoding="UTF-8" standalone="no"?>
<!-- Created with Inkscape (http://www.inkscape.org/) -->

<svg
   xmlns:dc="http://purl.org/dc/elements/1.1/"
   xmlns:cc="http://creativecommons.org/ns#"
   xmlns:rdf="http://www.w3.org/1999/02/22-rdf-syntax-ns#"
   xmlns:svg="http://www.w3.org/2000/svg"
   xmlns="http://www.w3.org/2000/svg"
   xmlns:sodipodi="http://sodipodi.sourceforge.net/DTD/sodipodi-0.dtd"
   xmlns:inkscape="http://www.inkscape.org/namespaces/inkscape"
   width="200"
   height="200"
   viewBox="0 0 52.916665 52.916668"
   version="1.1"
   id="svg1801"
   inkscape:version="0.92.5 (2060ec1f9f, 2020-04-08)"
   sodipodi:docname="ps.svg">
  <defs
     id="defs1795" />
  <sodipodi:namedview
     id="base"
     pagecolor="#ffffff"
     bordercolor="#666666"
     borderopacity="1.0"
     inkscape:pageopacity="0.0"
     inkscape:pageshadow="2"
     inkscape:zoom="0.98994949"
     inkscape:cx="500.82241"
     inkscape:cy="75.126778"
     inkscape:document-units="mm"
     inkscape:current-layer="g2737"
     showgrid="false"
     units="px"
     inkscape:window-width="1366"
     inkscape:window-height="658"
     inkscape:window-x="0"
     inkscape:window-y="27"
     inkscape:window-maximized="1" />
  <metadata
     id="metadata1798">
    <rdf:RDF>
      <cc:Work
         rdf:about="">
        <dc:format>image/svg+xml</dc:format>
        <dc:type
           rdf:resource="http://purl.org/dc/dcmitype/StillImage" />
        <dc:title></dc:title>
      </cc:Work>
    </rdf:RDF>
  </metadata>
  <g
     inkscape:label="Capa 1"
     inkscape:groupmode="layer"
     id="layer1"
     transform="translate(0,-244.08332)">
    <g
       id="g2737"
       transform="matrix(3.0686084,0,0,3.0686084,0.65164915,244.95661)">
      <g
         id="g2681">
</g>
      <g
         id="g2683">
</g>
      <g
         id="g2685">
</g>
      <g
         id="g2687">
</g>
      <g
         id="g2689">
</g>
      <g
         id="g2691">
</g>
      <g
         id="g2693">
</g>
      <g
         id="g2695">
</g>
      <g
         id="g2697">
</g>
      <g
         id="g2699">
</g>
      <g
         id="g2701">
</g>
      <g
         id="g2703">
</g>
      <g
         id="g2705">
</g>
      <g
         id="g2707">
</g>
      <g
         id="g2709">
</g>
      <g
         id="g2920"
         transform="matrix(0.95894762,0,0,0.95894762,27.670941,-6.5775716)">
        <g
           id="g2862"
           style="fill:#b3b3b3"
           transform="translate(-28.798779,6.8511689)">
	<g
   id="g2860"
   style="fill:#b3b3b3">
		<path
   id="path2856"
   d="m 5.925,4.982 c -0.442,0 -0.742,0.043 -0.898,0.087 V 7.91 C 5.213,7.952 5.44,7.966 5.754,7.966 6.911,7.966 7.625,7.381 7.625,6.395 7.624,5.511 7.01,4.982 5.925,4.982 Z"
   style="fill:#b3b3b3"
   inkscape:connector-curvature="0" />

		<path
   id="path2858"
   d="M 16.4,0.002 H 1.07 C 0.479,0.002 0,0.48 0,1.069 v 15.329 c 0,0.59 0.479,1.069 1.07,1.069 H 16.4 c 0.59,0 1.069,-0.479 1.069,-1.069 V 1.07 C 17.469,0.48 16.99,0.002 16.4,0.002 Z M 8.894,8.624 C 8.153,9.324 7.052,9.638 5.769,9.638 5.482,9.638 5.226,9.624 5.026,9.595 v 3.442 H 2.869 V 3.541 C 3.54,3.428 4.482,3.342 5.811,3.342 c 1.341,0 2.299,0.256 2.94,0.771 0.617,0.486 1.03,1.286 1.03,2.228 0,0.942 -0.315,1.739 -0.887,2.283 z m 3.251,4.555 c -0.916,0 -1.729,-0.198 -2.258,-0.485 l 0.385,-1.556 c 0.4,0.241 1.229,0.527 1.873,0.527 0.655,0 0.927,-0.228 0.927,-0.586 0,-0.356 -0.214,-0.527 -1.027,-0.799 -1.442,-0.485 -2,-1.271 -1.986,-2.099 0,-1.298 1.114,-2.286 2.842,-2.286 0.814,0 1.542,0.187 1.97,0.4 l -0.385,1.5 C 14.172,7.623 13.573,7.396 12.972,7.396 c -0.527,0 -0.826,0.214 -0.826,0.571 0,0.328 0.269,0.499 1.126,0.8 1.328,0.456 1.886,1.128 1.899,2.154 0,1.301 -1.03,2.258 -3.026,2.258 z"
   style="fill:#b3b3b3"
   inkscape:connector-curvature="0" />

	</g>

</g>
        <g
           id="g2864">
</g>
        <g
           id="g2866">
</g>
        <g
           id="g2868">
</g>
        <g
           id="g2870">
</g>
        <g
           id="g2872">
</g>
        <g
           id="g2874">
</g>
        <g
           id="g2876">
</g>
        <g
           id="g2878">
</g>
        <g
           id="g2880">
</g>
        <g
           id="g2882">
</g>
        <g
           id="g2884">
</g>
        <g
           id="g2886">
</g>
        <g
           id="g2888">
</g>
        <g
           id="g2890">
</g>
        <g
           id="g2892">
</g>
      </g>
    </g>
  </g>
</svg>
