<?xml version="1.0" encoding="UTF-8" standalone="no"?>
<!-- Created with Inkscape (http://www.inkscape.org/) -->

<svg
   xmlns:dc="http://purl.org/dc/elements/1.1/"
   xmlns:cc="http://creativecommons.org/ns#"
   xmlns:rdf="http://www.w3.org/1999/02/22-rdf-syntax-ns#"
   xmlns:svg="http://www.w3.org/2000/svg"
   xmlns="http://www.w3.org/2000/svg"
   xmlns:sodipodi="http://sodipodi.sourceforge.net/DTD/sodipodi-0.dtd"
   xmlns:inkscape="http://www.inkscape.org/namespaces/inkscape"
   width="200"
   height="200"
   viewBox="0 0 52.916665 52.916668"
   version="1.1"
   id="svg1801"
   inkscape:version="0.92.5 (2060ec1f9f, 2020-04-08)"
   sodipodi:docname="python.svg">
  <defs
     id="defs1795" />
  <sodipodi:namedview
     id="base"
     pagecolor="#ffffff"
     bordercolor="#666666"
     borderopacity="1.0"
     inkscape:pageopacity="0.0"
     inkscape:pageshadow="2"
     inkscape:zoom="0.98994949"
     inkscape:cx="500.82241"
     inkscape:cy="75.126778"
     inkscape:document-units="mm"
     inkscape:current-layer="layer1"
     showgrid="false"
     units="px"
     inkscape:window-width="1366"
     inkscape:window-height="658"
     inkscape:window-x="0"
     inkscape:window-y="27"
     inkscape:window-maximized="1" />
  <metadata
     id="metadata1798">
    <rdf:RDF>
      <cc:Work
         rdf:about="">
        <dc:format>image/svg+xml</dc:format>
        <dc:type
           rdf:resource="http://purl.org/dc/dcmitype/StillImage" />
        <dc:title></dc:title>
      </cc:Work>
    </rdf:RDF>
  </metadata>
  <g
     inkscape:label="Capa 1"
     inkscape:groupmode="layer"
     id="layer1"
     transform="translate(0,-244.08332)">
    <path
       id="path337"
       d="m 31.663419,245.58351 1.910647,0.42445 1.549666,0.55201 1.252554,0.63707 0.955283,0.6796 0.722116,0.7221 0.530361,0.72213 0.339388,0.70046 0.211823,0.63706 0.0851,0.55203 0.04016,0.42444 -0.02402,0.27602 v 11.33619 l -0.105886,1.33745 -0.276016,1.16758 -0.446101,0.97655 -0.552015,0.8067 -0.637073,0.65791 -0.700458,0.53117 -0.742972,0.40358 -0.742983,0.29689 -0.700461,0.21256 -0.637059,0.14843 -0.552027,0.0851 -0.446102,0.0401 H 20.023689 l -1.464777,0.10589 -1.252475,0.29687 -1.061442,0.46697 -0.870395,0.57287 -0.700448,0.67959 -0.572881,0.743 -0.424448,0.76382 -0.318536,0.78551 -0.212625,0.74299 -0.148421,0.6796 -0.0851,0.57287 -0.04016,0.4461 v 6.4961 H 8.1379303 L 7.6918304,283.19914 7.0972811,283.05069 6.4176873,282.79556 5.6747169,282.41364 4.9100657,281.86161 4.146228,281.09697 3.4032447,280.12043 2.7236509,278.86794 2.1291144,277.3182 1.682999,275.45009 1.3861311,273.221 l -0.1058859,-2.61112 0.1275796,-2.58991 0.3394031,-2.20784 0.5094919,-1.84694 0.6795939,-1.50721 0.7646382,-1.21012 0.8491275,-0.93402 0.8916626,-0.70046 0.8915723,-0.50947 0.8492179,-0.33941 0.7638376,-0.21256 0.6795939,-0.10589 0.5094919,-0.0242 h 0.3393902 l 0.1275796,0.0242 H 26.925244 v -1.76204 H 14.527516 l -0.02402,-5.83793 -0.04016,-0.7855 0.105886,-0.72212 0.233492,-0.65793 0.361058,-0.59455 0.530346,-0.552 0.657939,-0.48864 0.806683,-0.42445 0.934017,-0.38192 1.082696,-0.31854 1.231298,-0.25436 1.358619,-0.21256 1.507299,-0.12757 1.634646,-0.0851 1.783222,-0.0402 2.696075,0.10589 z m -13.37419,4.2033 -0.488625,0.70044 -0.170102,0.8704 0.170102,0.87038 0.488625,0.72213 0.700461,0.46697 0.870395,0.19096 0.870382,-0.19096 0.700461,-0.46697 0.488638,-0.72213 0.170088,-0.87038 -0.170088,-0.8704 -0.488638,-0.70044 -0.700461,-0.46697 -0.870382,-0.19096 -0.870395,0.19096 z m 27.788633,8.38546 0.59455,0.12758 0.679591,0.25515 0.742972,0.38194 0.764652,0.57286 0.763836,0.74297 0.742986,0.99775 0.679592,1.25254 0.594536,1.54968 0.446114,1.8682 0.296871,2.20773 0.105885,2.6112 -0.127579,2.61116 -0.339389,2.20777 -0.509506,1.82576 -0.679594,1.50721 -0.764636,1.21003 -0.849131,0.95536 -0.891663,0.70046 -0.891569,0.50949 -0.849207,0.33941 -0.763849,0.19097 -0.679595,0.10588 -0.509492,0.0402 -0.339389,-0.0242 H 26.844706 v 1.74077 h 12.397639 l 0.02402,5.85919 0.04016,0.76387 -0.105886,0.7221 -0.233477,0.65793 -0.36106,0.6154 -0.53036,0.53036 -0.657923,0.5095 -0.806776,0.42445 -0.934093,0.36106 -1.082619,0.31852 -1.231285,0.27602 -1.35871,0.19095 -1.507221,0.14844 -1.634633,0.0851 -1.783235,0.0241 -2.696062,-0.085 -2.271472,-0.29687 -1.910647,-0.42446 -1.549653,-0.53033 -1.252566,-0.63708 -0.955271,-0.70045 -0.722129,-0.7221 -0.531147,-0.72213 -0.339403,-0.70046 -0.212624,-0.63708 -0.0851,-0.53034 -0.04016,-0.42445 0.02402,-0.27601 v -11.33549 l 0.105886,-1.35863 0.276014,-1.1464 0.446102,-0.97655 0.552015,-0.80668 0.637071,-0.6796 0.700461,-0.5095 0.742971,-0.42442 0.742983,-0.29687 0.700461,-0.21256 0.63706,-0.12758 0.552026,-0.085 0.446102,-0.0402 0.276014,-0.0241 h 12.397638 l 1.464867,-0.10589 1.252462,-0.29687 1.061442,-0.44613 0.870395,-0.59453 0.70045,-0.6796 0.572881,-0.74297 0.424448,-0.76385 0.318534,-0.76384 0.211822,-0.74297 0.14845,-0.67959 0.0851,-0.59454 0.04016,-0.44612 v -6.49601 h 4.436851 l 0.29687,0.0241 z m -13.735082,30.25122 -0.488637,0.70046 -0.170102,0.87038 0.170102,0.8704 0.488637,0.70044 0.700449,0.48864 0.870395,0.17005 0.870395,-0.17005 0.700447,-0.48864 0.488637,-0.70044 0.170089,-0.8704 -0.170089,-0.87038 -0.488637,-0.70046 -0.700447,-0.48864 -0.870395,-0.17004 -0.870395,0.17004 z"
       inkscape:connector-curvature="0"
       style="fill:#b3b3b3;fill-opacity:1;stroke-width:2.12289381" />
  </g>
</svg>
