<?xml version="1.0" encoding="UTF-8" standalone="no"?>
<!-- Created with Inkscape (http://www.inkscape.org/) -->

<svg
   xmlns:dc="http://purl.org/dc/elements/1.1/"
   xmlns:cc="http://creativecommons.org/ns#"
   xmlns:rdf="http://www.w3.org/1999/02/22-rdf-syntax-ns#"
   xmlns:svg="http://www.w3.org/2000/svg"
   xmlns="http://www.w3.org/2000/svg"
   xmlns:sodipodi="http://sodipodi.sourceforge.net/DTD/sodipodi-0.dtd"
   xmlns:inkscape="http://www.inkscape.org/namespaces/inkscape"
   width="200"
   height="200"
   viewBox="0 0 52.916665 52.916668"
   version="1.1"
   id="svg1801"
   inkscape:version="0.92.5 (2060ec1f9f, 2020-04-08)"
   sodipodi:docname="react.svg">
  <defs
     id="defs1795" />
  <sodipodi:namedview
     id="base"
     pagecolor="#ffffff"
     bordercolor="#666666"
     borderopacity="1.0"
     inkscape:pageopacity="0.0"
     inkscape:pageshadow="2"
     inkscape:zoom="0.98994949"
     inkscape:cx="318.48987"
     inkscape:cy="75.126778"
     inkscape:document-units="mm"
     inkscape:current-layer="g3664"
     showgrid="false"
     units="px"
     inkscape:window-width="1366"
     inkscape:window-height="658"
     inkscape:window-x="0"
     inkscape:window-y="27"
     inkscape:window-maximized="1" />
  <metadata
     id="metadata1798">
    <rdf:RDF>
      <cc:Work
         rdf:about="">
        <dc:format>image/svg+xml</dc:format>
        <dc:type
           rdf:resource="http://purl.org/dc/dcmitype/StillImage" />
        <dc:title></dc:title>
      </cc:Work>
    </rdf:RDF>
  </metadata>
  <g
     inkscape:label="Capa 1"
     inkscape:groupmode="layer"
     id="layer1"
     transform="translate(0,-244.08332)">
    <g
       id="g2737"
       transform="matrix(3.0686084,0,0,3.0686084,0.65164915,244.95661)">
      <g
         id="g2681">
</g>
      <g
         id="g2683">
</g>
      <g
         id="g2685">
</g>
      <g
         id="g2687">
</g>
      <g
         id="g2689">
</g>
      <g
         id="g2691">
</g>
      <g
         id="g2693">
</g>
      <g
         id="g2695">
</g>
      <g
         id="g2697">
</g>
      <g
         id="g2699">
</g>
      <g
         id="g2701">
</g>
      <g
         id="g2703">
</g>
      <g
         id="g2705">
</g>
      <g
         id="g2707">
</g>
      <g
         id="g2709">
</g>
      <g
         id="g3664"
         transform="matrix(0.04779701,0,0,0.04779701,1.0667531,0.08257624)">
        <g
           id="g3751"
           transform="matrix(15.538419,0,0,15.538419,-23.935407,13.009224)"
           style="fill:#b3b3b3">
          <path
             id="path3738"
             d="m 18.9107,6.63257 v 0 q -0.36721,-0.126 -0.74042,-0.2333 0.06187,-0.25141 0.11441,-0.505 c 0.56045,-2.72064 0.194,-4.91237 -1.05739,-5.63386 -1.1998,-0.692 -3.1621,0.02952 -5.14394,1.75414 q -0.29293,0.2555 -0.57267,0.52554 -0.18727,-0.17951 -0.3811,-0.352 C 9.05257,0.3439 6.97066,-0.43316 5.72058,0.29046 4.52191,0.98436 4.16686,3.04489 4.67144,5.62322 q 0.0753,0.383 0.17,0.76179 C 4.54686,6.46868 4.26236,6.55785 3.99017,6.65272 1.55514,7.50165 0,8.83225 0,10.21231 c 0,1.42546 1.66935,2.8552 4.20575,3.722 q 0.3085,0.10494 0.62193,0.19442 -0.10179,0.408 -0.18068,0.82114 c -0.48106,2.53354 -0.10535,4.54521 1.09017,5.23484 1.23481,0.712 3.30725,-0.01985 5.32533,-1.78387 q 0.23926,-0.20917 0.47994,-0.44238 0.3029,0.29225 0.62173,0.56727 c 1.95477,1.68207 3.88531,2.36132 5.07982,1.66986 1.23369,-0.71416 1.63454,-2.87525 1.114,-5.50459 q -0.05955,-0.30124 -0.13792,-0.61481 0.21834,-0.06443 0.42772,-0.13355 C 21.28454,13.06915 23,11.65681 23,10.21232 23,8.82726 21.39478,7.48771 18.9107,6.63257 Z M 12.7284,2.75581 C 14.42646,1.278 16.01346,0.69457 16.73657,1.1116 v 0 c 0.77014,0.44421 1.06971,2.2354 0.5858,4.58441 Q 17.27479,5.92554 17.21895,6.15325 A 23.53752,23.53752 0 0 0 14.14368,5.66741 23.08128,23.08128 0 0 0 12.1995,3.24094 q 0.25838,-0.2491 0.5289,-0.48513 z m -5.93729,8.63543 q 0.312,0.60265 0.65207,1.19013 0.34692,0.59911 0.7221,1.18117 A 20.92168,20.92168 0 0 1 6.04561,13.42174 C 6.24867,12.766 6.49887,12.08443 6.79111,11.39124 Z M 6.79,9.08041 C 6.50387,8.40178 6.25907,7.73455 6.05915,7.09022 6.71539,6.94334 7.41515,6.82333 8.14431,6.73222 Q 7.7782,7.30322 7.43921,7.89099 7.10076,8.478 6.79,9.08041 Z m 0.52228,1.15552 q 0.45411,-0.94517 0.9783,-1.8542 v 2e-4 Q 8.81427,7.47336 9.40579,6.60651 c 0.684,-0.05171 1.38536,-0.07879 2.09432,-0.07879 0.71212,0 1.41437,0.02728 2.09819,0.0794 q 0.58514,0.86487 1.10818,1.76941 0.52565,0.90635 0.99153,1.84545 -0.46083,0.94817 -0.98828,1.86173 h -10e-5 q -0.52261,0.90786 -1.1034,1.7803 c -0.6824,0.04876 -1.3876,0.0739 -2.10623,0.0739 -0.71568,0 -1.41193,-0.02229 -2.08241,-0.06575 Q 8.82204,13.00221 8.29353,12.08911 7.76789,11.18148 7.31227,10.23593 Z m 8.24853,2.33862 q 0.347,-0.60182 0.667,-1.21863 v 0 a 20.86671,20.86671 0 0 1 0.77238,2.02327 20.85164,20.85164 0 0 1 -2.14552,0.36573 q 0.36468,-0.5781 0.70613,-1.17037 z m 0.65767,-3.49343 q -0.31883,-0.605 -0.66163,-1.19684 v 0 Q 15.21958,7.3017 14.85745,6.73406 c 0.7339,0.09263 1.437,0.21579 2.09717,0.36654 A 20.95909,20.95909 0 0 1 16.21847,9.08112 Z M 11.511,3.94359 a 21.01288,21.01288 0 0 1 1.3535,1.63393 Q 11.50607,5.51333 10.1461,5.57691 C 10.593,4.98765 11.0507,4.44022 11.511,3.94359 Z M 6.21284,1.14081 c 0.76953,-0.44543 2.47095,0.18973 4.26428,1.782 0.11461,0.10179 0.22974,0.20836 0.34507,0.3186 A 23.54542,23.54542 0 0 0 8.86294,5.66608 24.008,24.008 0 0 0 5.79378,6.14308 Q 5.70578,5.7908 5.6357,5.43442 v 10e-5 C 5.20339,3.22536 5.49044,1.559 6.21284,1.14081 Z M 5.09132,13.18233 Q 4.80532,13.10046 4.52354,13.0046 A 8.32371,8.32371 0 0 1 1.841,11.57955 2.03072,2.03072 0 0 1 0.98251,10.21231 c 0,-0.83742 1.24865,-1.90571 3.33117,-2.63178 Q 4.70576,7.44443 5.1053,7.33145 a 23.56455,23.56455 0 0 0 1.121,2.90478 23.92247,23.92247 0 0 0 -1.13498,2.9461 z m 5.32462,4.47867 a 8.32161,8.32161 0 0 1 -2.57467,1.61184 h -10e-5 A 2.03042,2.03042 0 0 1 6.22811,19.33351 C 5.50255,18.91515 5.20105,17.29975 5.61238,15.13316 q 0.07337,-0.38407 0.168,-0.76363 a 23.10444,23.10444 0 0 0 3.0995,0.44869 23.90954,23.90954 0 0 0 1.97431,2.43929 Q 10.64,17.46459 10.41594,17.661 Z m 1.12223,-1.11053 c -0.46569,-0.50253 -0.93015,-1.05831 -1.38383,-1.65612 q 0.66051,0.026 1.34566,0.02606 0.70326,0 1.38841,-0.03084 a 20.89425,20.89425 0 0 1 -1.35024,1.66088 z m 5.96651,1.367 a 2.03039,2.03039 0 0 1 -0.753,1.4278 c -0.72485,0.41958 -2.275,-0.12581 -3.94659,-1.56431 q -0.2875,-0.24735 -0.57837,-0.52727 a 23.08914,23.08914 0 0 0 1.9279,-2.448 22.93647,22.93647 0 0 0 3.11507,-0.48014 q 0.07024,0.284 0.12449,0.55638 v 0 a 8.32,8.32 0 0 1 0.1105,3.03556 z m 0.83417,-4.90739 h -10e-5 c -0.12571,0.04163 -0.25478,0.08184 -0.38629,0.12082 a 23.06121,23.06121 0 0 0 -1.16468,-2.91373 23.05112,23.05112 0 0 0 1.11938,-2.87128 c 0.23524,0.0682 0.46365,0.14 0.68372,0.21579 2.12842,0.73258 3.42665,1.81593 3.42665,2.65061 0,0.88916 -1.40215,2.04345 -3.67868,2.79781 z"
             inkscape:connector-curvature="0"
             style="fill:#b3b3b3" />
          <path
             id="path3740"
             d="M 11.5,8.1585 A 2.05386,2.05386 0 1 1 9.44619,10.21231 2.05381,2.05381 0 0 1 11.5,8.1585"
             inkscape:connector-curvature="0"
             style="fill:#b3b3b3" />
        </g>
      </g>
    </g>
  </g>
</svg>
