<svg width="0" height="0" class="hidden">
  <symbol xmlnsDc="http://purl.org/dc/elements/1.1/" xmlnsCc="http://creativecommons.org/ns#" xmlnsRdf="http://www.w3.org/1999/02/22-rdf-syntax-ns#" xmlnsSvg="http://www.w3.org/2000/svg" xmlns="http://www.w3.org/2000/svg" xmlnsSodipodi="http://sodipodi.sourceforge.net/DTD/sodipodi-0.dtd" xmlnsInkscape="http://www.inkscape.org/namespaces/inkscape" version="1.1" id="ai" inkscapeVersion="0.92.5 (2060ec1f9f, 2020-04-08)" sodipodiDocname="ai.svg" viewBox="0 0 52.916665 52.916668">
    <defs id="defs1795"></defs>
    <sodipodi:namedview id="base" pagecolor="#ffffff" bordercolor="#666666" borderopacity="1.0" inkscapePageopacity="0.0" inkscapePageshadow="2" inkscapeZoom="0.98994949" inkscapeCx="500.82241" inkscapeCy="75.126778" inkscapeDocumentUnits="mm" inkscapeCurrentLayer="g2737" showgrid="false" units="px" inkscapeWindowWidth="1366" inkscapeWindowHeight="658" inkscapeWindowX="0" inkscapeWindowY="27" inkscapeWindowMaximized="1"></sodipodi:namedview>
    <metadata id="metadata1798">
      <rdf:RDF>
        <cc:Work rdfAbout="">
          <dc:format>image/svg+xml</dc:format>
          <dc:type rdfResource="http://purl.org/dc/dcmitype/StillImage"></dc:type>
          <dc:title></dc:title>
        </cc:Work>
      </rdf:RDF>
    </metadata>
    <g inkscapeLabel="Capa 1" inkscapeGroupmode="layer" id="layer1" transform="translate(0,-244.08332)">
      <g id="g2737" transform="matrix(3.0686084,0,0,3.0686084,0.65164915,244.95661)">
        <g id="g2679">
          <g id="g2677">
            <path id="path2673" d="M 6.847,5.772 H 6.822 C 6.695,6.283 6.568,6.932 6.427,7.429 L 5.917,9.25 H 7.815 L 7.28,7.429 C 7.128,6.919 6.975,6.283 6.847,5.772 Z" inkscapeConnectorCurvature="0"></path>
            <path id="path2675" d="M 15.837,0 H 1.033 C 0.462,0 0,0.462 0,1.033 v 14.805 c 0,0.57 0.462,1.033 1.033,1.033 h 14.805 c 0.57,0 1.033,-0.463 1.033,-1.033 V 1.033 C 16.871,0.463 16.408,0 15.837,0 Z M 8.758,12.905 8.095,10.702 H 5.638 L 5.026,12.905 H 3.014 L 5.638,4.322 h 2.546 l 2.663,8.583 z m 5.035,0 H 11.856 V 6.678 h 1.937 z m -0.98,-6.991 c -0.611,0 -1.019,-0.434 -1.007,-0.969 -0.012,-0.561 0.396,-0.979 1.021,-0.979 0.623,0 1.018,0.419 1.03,0.979 0,0.535 -0.407,0.969 -1.044,0.969 z" inkscapeConnectorCurvature="0"></path>
          </g>
        </g>
        <g id="g2681"></g>
        <g id="g2683"></g>
        <g id="g2685"></g>
        <g id="g2687"></g>
        <g id="g2689"></g>
        <g id="g2691"></g>
        <g id="g2693"></g>
        <g id="g2695"></g>
        <g id="g2697"></g>
        <g id="g2699"></g>
        <g id="g2701"></g>
        <g id="g2703"></g>
        <g id="g2705"></g>
        <g id="g2707"></g>
        <g id="g2709"></g>
      </g>
    </g>
  </symbol>
  <symbol xmlnsDc="http://purl.org/dc/elements/1.1/" xmlnsCc="http://creativecommons.org/ns#" xmlnsRdf="http://www.w3.org/1999/02/22-rdf-syntax-ns#" xmlnsSvg="http://www.w3.org/2000/svg" xmlns="http://www.w3.org/2000/svg" xmlnsSodipodi="http://sodipodi.sourceforge.net/DTD/sodipodi-0.dtd" xmlnsInkscape="http://www.inkscape.org/namespaces/inkscape" version="1.1" id="bootstrap" inkscapeVersion="0.92.5 (2060ec1f9f, 2020-04-08)" sodipodiDocname="bootstrap.svg" viewBox="0 0 52.916665 52.916668">
    <defs id="defs1795"></defs>
    <sodipodi:namedview id="base" pagecolor="#ffffff" bordercolor="#666666" borderopacity="1.0" inkscapePageopacity="0.0" inkscapePageshadow="2" inkscapeZoom="0.98994949" inkscapeCx="319.50003" inkscapeCy="71.086168" inkscapeDocumentUnits="mm" inkscapeCurrentLayer="g290" showgrid="false" units="px" inkscapeWindowWidth="1366" inkscapeWindowHeight="658" inkscapeWindowX="0" inkscapeWindowY="27" inkscapeWindowMaximized="1"></sodipodi:namedview>
    <metadata id="metadata1798">
      <rdf:RDF>
        <cc:Work rdfAbout="">
          <dc:format>image/svg+xml</dc:format>
          <dc:type rdfResource="http://purl.org/dc/dcmitype/StillImage"></dc:type>
          <dc:title></dc:title>
        </cc:Work>
      </rdf:RDF>
    </metadata>
    <g inkscapeLabel="Capa 1" inkscapeGroupmode="layer" id="layer1" transform="translate(0,-244.08332)">
      <g id="g290" transform="matrix(0.19985399,0,0,0.19985399,1.1456427,245.22626)">
        <path d="M 29.263672 4.3203125 C 15.491309 4.3203125 4.3300781 15.483809 4.3300781 29.253906 L 4.3300781 172.75586 L 4.3300781 172.75781 C 4.3300781 186.52942 15.493575 197.68945 29.263672 197.68945 L 172.76562 197.68945 C 186.53799 197.68945 197.70117 186.52791 197.70117 172.75781 L 197.70117 29.253906 C 197.70117 15.481543 186.53768 4.3203125 172.76758 4.3203125 L 29.263672 4.3203125 z M 58.771484 42.464844 L 113.86914 42.464844 C 119.44441 42.464844 124.5281 42.95718 129.11914 43.941406 C 133.71094 44.924877 137.64484 46.538163 140.92383 48.779297 C 144.20357 51.020431 146.74504 53.998504 148.54883 57.714844 C 150.35261 61.431939 151.25586 66.022542 151.25586 71.488281 C 151.25586 77.392125 149.91601 82.310701 147.23828 86.246094 C 144.5598 90.181486 140.59705 93.408058 135.34961 95.921875 C 142.56475 97.999098 147.94877 101.63312 151.50195 106.82617 C 155.05438 112.01847 156.83008 118.2769 156.83008 125.60156 C 156.83008 131.50465 155.68299 136.61524 153.38672 140.93359 C 151.0912 145.2512 148.0033 148.7769 144.12305 151.50977 C 140.24204 154.24264 135.81385 156.26608 130.83984 157.57812 C 125.86584 158.89017 120.75525 159.54492 115.50781 159.54492 L 58.771484 159.54492 L 58.771484 42.464844 z M 84.517578 62.470703 L 84.517578 89.855469 L 110.58789 89.855469 C 115.17969 89.855469 118.95118 88.760968 121.90234 86.574219 C 124.85427 84.388225 126.33008 80.835634 126.33008 75.916016 C 126.33008 73.183901 125.83894 70.942758 124.85547 69.193359 C 123.87124 67.444716 122.55904 66.077976 120.91992 65.09375 C 119.28005 64.109524 117.39333 63.427131 115.26172 63.044922 C 113.13011 62.661958 110.91737 62.470703 108.62109 62.470703 L 84.517578 62.470703 z M 84.517578 107.40039 L 84.517578 139.53906 L 112.06445 139.53906 C 114.57903 139.53906 116.98302 139.29371 119.2793 138.80273 C 121.57482 138.31024 123.59901 137.48993 125.34766 136.3418 C 127.09706 135.19441 128.49069 133.63567 129.5293 131.66797 C 130.56791 129.70027 131.08594 127.18645 131.08594 124.125 C 131.08594 118.11238 129.39242 113.82286 126.00391 111.25391 C 122.61463 108.68419 118.13191 107.40039 112.55664 107.40039 L 84.517578 107.40039 z " transform="matrix(1.3238832,0,0,1.3238832,-5.7323984,-5.7188751)" id="path276"></path>
      </g>
    </g>
  </symbol>
  <symbol xmlnsDc="http://purl.org/dc/elements/1.1/" xmlnsCc="http://creativecommons.org/ns#" xmlnsRdf="http://www.w3.org/1999/02/22-rdf-syntax-ns#" xmlnsSvg="http://www.w3.org/2000/svg" xmlns="http://www.w3.org/2000/svg" xmlnsSodipodi="http://sodipodi.sourceforge.net/DTD/sodipodi-0.dtd" xmlnsInkscape="http://www.inkscape.org/namespaces/inkscape" version="1.1" id="css" inkscapeVersion="0.92.5 (2060ec1f9f, 2020-04-08)" sodipodiDocname="css.svg" viewBox="0 0 52.916665 52.916668">
    <defs id="defs1795"></defs>
    <sodipodi:namedview id="base" pagecolor="#ffffff" bordercolor="#666666" borderopacity="1.0" inkscapePageopacity="0.0" inkscapePageshadow="2" inkscapeZoom="1.979899" inkscapeCx="60.747192" inkscapeCy="75.126778" inkscapeDocumentUnits="mm" inkscapeCurrentLayer="g1708" showgrid="false" units="px" inkscapeWindowWidth="1366" inkscapeWindowHeight="658" inkscapeWindowX="0" inkscapeWindowY="27" inkscapeWindowMaximized="1"></sodipodi:namedview>
    <metadata id="metadata1798">
      <rdf:RDF>
        <cc:Work rdfAbout="">
          <dc:format>image/svg+xml</dc:format>
          <dc:type rdfResource="http://purl.org/dc/dcmitype/StillImage"></dc:type>
          <dc:title></dc:title>
        </cc:Work>
      </rdf:RDF>
    </metadata>
    <g inkscapeLabel="Capa 1" inkscapeGroupmode="layer" id="layer1" transform="translate(0,-244.08332)">
      <g id="g1708" transform="matrix(1.3864088,0,0,1.3864088,-119.93067,147.03993)">
        <path d="M 26.900391 43.068359 L 38.425781 176.71484 C 55.504605 189.96594 76.951844 197.85352 100.24414 197.85352 C 123.53644 197.85352 144.98175 189.96594 162.06055 176.71484 L 173.58594 43.068359 L 26.900391 43.068359 z M 54.505859 73.144531 L 145.97852 73.144531 L 144.4082 91.734375 L 108.07031 110.22656 L 142.8457 110.22656 L 142.8457 110.22656 L 138.14844 165.85156 L 100.24219 176.56445 L 62.333984 165.85156 L 59.933594 137.42188 L 79.125 137.42188 L 79.640625 151.8418 L 100.24219 157.61133 L 120.01953 152.25391 L 122.08008 129.13086 L 59.234375 129.13086 L 57.59375 109.71289 L 92.826172 92.097656 L 56.107422 92.097656 L 54.505859 73.144531 z " id="path1418" transform="matrix(0.19084078,0,0,0.19084078,86.50455,69.996231)"></path>
        <path d="M 100.24219 157.61133 L 120.01953 152.25391 L 122.08008 129.12891 L 100.24219 129.12891 L 100.24219 157.61133 z " id="path2841" transform="matrix(0.19084078,0,0,0.19084078,86.50455,69.996231)"></path>
        <path d="M 100.24219 55.632812 L 100.24219 73.142578 L 145.97852 73.142578 L 144.4082 91.734375 L 108.07227 110.22656 L 142.8457 110.22656 L 142.84766 110.22266 L 138.15039 165.85156 L 100.24219 176.56445 L 100.24219 195.20898 L 148.45703 181.59766 L 159.21289 55.632812 L 100.24219 55.632812 z " id="polygon1420" transform="matrix(0.19084078,0,0,0.19084078,86.50455,69.996231)"></path>
        <g transform="matrix(0.07525422,0,0,0.07525422,86.37,69.224406)" id="g1430">
          <polygon id="polygon1424" points="147.937,15.676 147.937,85.335 213.417,85.335 213.417,67.224 165.352,67.224 165.352,33.787 213.417,33.787 213.417,15.676 "></polygon>
          <polygon id="polygon1426" points="289.347,15.676 223.866,15.676 223.866,58.864 270.799,58.864 270.799,67.224 223.866,67.224 223.866,85.335 289.347,85.335 289.347,67.224 289.347,42.93 241.542,42.93 241.542,34.57 289.347,34.57 289.347,33.787 "></polygon>
          <polygon id="polygon1428" points="364.056,15.676 298.576,15.676 298.576,58.864 345.509,58.864 345.509,67.224 298.576,67.224 298.576,85.335 364.056,85.335 364.056,67.224 364.056,42.93 316.252,42.93 316.252,34.57 364.056,34.57 364.056,33.787 "></polygon>
        </g>
        <g transform="matrix(0.07525422,0,0,0.07525422,86.37,69.224406)" id="g1432"></g>
        <g transform="matrix(0.07525422,0,0,0.07525422,86.37,69.224406)" id="g1434"></g>
        <g transform="matrix(0.07525422,0,0,0.07525422,86.37,69.224406)" id="g1436"></g>
        <g transform="matrix(0.07525422,0,0,0.07525422,86.37,69.224406)" id="g1438"></g>
        <g transform="matrix(0.07525422,0,0,0.07525422,86.37,69.224406)" id="g1440"></g>
        <g transform="matrix(0.07525422,0,0,0.07525422,86.37,69.224406)" id="g1442"></g>
        <g transform="matrix(0.07525422,0,0,0.07525422,86.37,69.224406)" id="g1444"></g>
        <g transform="matrix(0.07525422,0,0,0.07525422,86.37,69.224406)" id="g1446"></g>
        <g transform="matrix(0.07525422,0,0,0.07525422,86.37,69.224406)" id="g1448"></g>
        <g transform="matrix(0.07525422,0,0,0.07525422,86.37,69.224406)" id="g1450"></g>
        <g transform="matrix(0.07525422,0,0,0.07525422,86.37,69.224406)" id="g1452"></g>
        <g transform="matrix(0.07525422,0,0,0.07525422,86.37,69.224406)" id="g1454"></g>
        <g transform="matrix(0.07525422,0,0,0.07525422,86.37,69.224406)" id="g1456"></g>
        <g transform="matrix(0.07525422,0,0,0.07525422,86.37,69.224406)" id="g1458"></g>
        <g transform="matrix(0.07525422,0,0,0.07525422,86.37,69.224406)" id="g1460"></g>
      </g>
    </g>
  </symbol>
  <symbol xmlnsDc="http://purl.org/dc/elements/1.1/" xmlnsCc="http://creativecommons.org/ns#" xmlnsRdf="http://www.w3.org/1999/02/22-rdf-syntax-ns#" xmlnsSvg="http://www.w3.org/2000/svg" xmlns="http://www.w3.org/2000/svg" xmlnsSodipodi="http://sodipodi.sourceforge.net/DTD/sodipodi-0.dtd" xmlnsInkscape="http://www.inkscape.org/namespaces/inkscape" version="1.1" id="html" inkscapeVersion="0.92.5 (2060ec1f9f, 2020-04-08)" sodipodiDocname="html.svg" viewBox="0 0 52.916665 52.916668">
    <defs id="defs1795"></defs>
    <sodipodi:namedview id="base" pagecolor="#ffffff" bordercolor="#666666" borderopacity="1.0" inkscapePageopacity="0.0" inkscapePageshadow="2" inkscapeZoom="0.98994949" inkscapeCx="60.747192" inkscapeCy="75.126778" inkscapeDocumentUnits="mm" inkscapeCurrentLayer="g1662" showgrid="false" units="px" inkscapeWindowWidth="1366" inkscapeWindowHeight="658" inkscapeWindowX="0" inkscapeWindowY="27" inkscapeWindowMaximized="1"></sodipodi:namedview>
    <metadata id="metadata1798">
      <rdf:RDF>
        <cc:Work rdfAbout="">
          <dc:format>image/svg+xml</dc:format>
          <dc:type rdfResource="http://purl.org/dc/dcmitype/StillImage"></dc:type>
          <dc:title></dc:title>
        </cc:Work>
      </rdf:RDF>
    </metadata>
    <g inkscapeLabel="Capa 1" inkscapeGroupmode="layer" id="layer1" transform="translate(0,-244.08332)">
      <g id="g1662" transform="matrix(1.37815,0,0,1.37815,-56.921467,146.87851)">
        <path d="M 28.136719 41.835938 L 39.898438 178.25586 C 57.210066 191.52813 78.862588 199.41406 102.36133 199.41406 C 126.07404 199.41406 147.90782 191.38675 165.29492 177.89648 L 177.02734 41.835938 L 28.136719 41.835938 z M 56.15625 72.367188 L 149.00586 72.367188 L 147.41406 91.238281 L 76.978516 91.607422 L 78.646484 110.00977 L 145.82617 110.00977 L 141.05664 166.47266 L 102.58203 177.3457 L 64.105469 166.47266 L 61.666016 137.61523 L 81.144531 137.61523 L 81.669922 152.25195 L 102.58203 158.10938 L 122.6582 152.67188 L 124.74609 129.19727 L 60.955078 129.19727 L 56.15625 72.367188 z " id="path1496" transform="matrix(0.19198442,0,0,0.19198442,41.30281,70.532823)"></path>
        <path d="M 102.58008 158.10938 L 102.58203 158.10938 L 122.66016 152.67383 L 124.74609 129.19727 L 102.58008 129.19727 L 102.58008 158.10938 z " id="path2167" transform="matrix(0.19198442,0,0,0.19198442,41.30281,70.532823)"></path>
        <path d="M 102.58008 54.591797 L 102.58008 72.367188 L 149.00781 72.367188 L 147.41406 91.238281 L 102.58008 91.472656 L 102.58008 110.00977 L 145.82617 110.00977 L 141.05859 166.47266 L 102.58203 177.3457 L 102.58008 177.3457 L 102.58008 196.26953 L 151.52344 182.45312 L 162.43945 54.591797 L 102.58008 54.591797 z " id="polygon1498" transform="matrix(0.19198442,0,0,0.19198442,41.30281,70.532823)"></path>
        <polygon transform="matrix(0.0770717,0,0,0.0770717,41.224251,69.356573)" id="polygon1502" points="127.921,63.815 151.159,63.815 151.159,86.513 172.777,86.513 172.777,16.796 151.159,16.796 151.159,41.117 127.921,41.117 127.921,16.796 106.303,16.796 106.303,86.513 127.921,86.513 "></polygon>
        <polygon transform="matrix(0.0770717,0,0,0.0770717,41.224251,69.356573)" id="polygon1504" points="249.521,41.117 249.521,16.796 183.045,16.796 183.045,41.117 204.663,41.117 204.663,87.055 227.903,87.055 227.903,41.117 "></polygon>
        <polygon transform="matrix(0.0770717,0,0,0.0770717,41.224251,69.356573)" id="polygon1506" points="406.79,64.895 373.284,64.895 373.284,17.337 350.044,17.337 350.044,64.895 350.044,87.055 373.284,87.055 406.79,87.055 "></polygon>
        <polygon transform="matrix(0.0770717,0,0,0.0770717,41.224251,69.356573)" id="polygon1508" points="298.702,77.327 314.914,52.465 314.914,87.055 338.154,87.055 338.154,17.337 314.914,17.337 298.702,42.197 282.488,17.337 259.249,17.337 259.249,87.055 282.488,87.055 282.488,52.465 "></polygon>
      </g>
    </g>
  </symbol>
  <symbol xmlnsDc="http://purl.org/dc/elements/1.1/" xmlnsCc="http://creativecommons.org/ns#" xmlnsRdf="http://www.w3.org/1999/02/22-rdf-syntax-ns#" xmlnsSvg="http://www.w3.org/2000/svg" xmlns="http://www.w3.org/2000/svg" xmlnsSodipodi="http://sodipodi.sourceforge.net/DTD/sodipodi-0.dtd" xmlnsInkscape="http://www.inkscape.org/namespaces/inkscape" version="1.1" id="php" inkscapeVersion="0.92.5 (2060ec1f9f, 2020-04-08)" sodipodiDocname="php.svg" viewBox="0 0 105.83333 52.916668">
    <defs id="defs1795"></defs>
    <sodipodi:namedview id="base" pagecolor="#ffffff" bordercolor="#666666" borderopacity="1.0" inkscapePageopacity="0.0" inkscapePageshadow="2" inkscapeZoom="0.98994949" inkscapeCx="303.1838" inkscapeCy="71.086168" inkscapeDocumentUnits="mm" inkscapeCurrentLayer="g322" showgrid="false" units="px" inkscapeWindowWidth="1366" inkscapeWindowHeight="658" inkscapeWindowX="0" inkscapeWindowY="27" inkscapeWindowMaximized="1"></sodipodi:namedview>
    <metadata id="metadata1798">
      <rdf:RDF>
        <cc:Work rdfAbout="">
          <dc:format>image/svg+xml</dc:format>
          <dc:type rdfResource="http://purl.org/dc/dcmitype/StillImage"></dc:type>
          <dc:title></dc:title>
        </cc:Work>
      </rdf:RDF>
    </metadata>
    <g inkscapeLabel="Capa 1" inkscapeGroupmode="layer" id="layer1" transform="translate(0,-244.08332)">
      <g id="g322" transform="matrix(0.38937173,0,0,0.38937173,3.7807307,244.71193)">
        <path d="M 281.36133 73.337891 L 274.91016 112.04492 L 274.91211 112.04492 L 290.39453 112.04492 C 291.84594 111.88359 293.27783 111.68039 294.67383 111.4082 C 296.06982 111.13601 297.4299 110.79315 298.74023 110.34961 C 300.05057 109.90607 301.30948 109.36287 302.50391 108.6875 C 303.69833 108.01213 304.82868 107.20598 305.87695 106.23828 C 306.92522 105.27059 307.89181 104.14082 308.76367 102.82031 C 309.63553 101.49981 310.41292 99.987707 311.07812 98.253906 C 311.74333 96.520106 312.29631 94.565004 312.72461 92.357422 C 313.15291 90.149839 313.45604 87.689117 313.61719 84.947266 C 313.61719 83.979662 313.51628 83.073216 313.32227 82.226562 C 313.12825 81.379909 312.84166 80.594844 312.46875 79.869141 C 312.09584 79.143438 311.63631 78.477799 311.09961 77.873047 C 310.56291 77.268294 309.94904 76.724036 309.26367 76.240234 C 307.89293 75.27263 306.23999 74.546302 304.36523 74.0625 C 302.49048 73.578698 300.39263 73.337891 298.13477 73.337891 L 281.36133 73.337891 z " id="path827" transform="matrix(0.67951346,0,0,0.67951346,-9.7098233,-1.6144213)"></path>
        <path d="M 108.47461 73.337891 L 102.02344 112.04492 L 117.50586 112.04492 C 118.95727 111.88359 120.38916 111.68039 121.78516 111.4082 C 123.18115 111.13601 124.54123 110.79315 125.85156 110.34961 C 127.1619 109.90607 128.42276 109.36287 129.61719 108.6875 C 130.81161 108.01213 131.94001 107.20598 132.98828 106.23828 C 134.03655 105.27059 135.00314 104.14082 135.875 102.82031 C 136.74686 101.49981 137.52425 99.987707 138.18945 98.253906 C 138.85466 96.520106 139.40764 94.565004 139.83594 92.357422 C 140.26424 90.149839 140.56737 87.689117 140.72852 84.947266 C 140.72852 83.979662 140.62761 83.073216 140.43359 82.226562 C 140.23958 81.379909 139.95299 80.594844 139.58008 79.869141 C 139.20717 79.143438 138.74764 78.477799 138.21094 77.873047 C 137.67424 77.268294 137.06037 76.724036 136.375 76.240234 C 135.00426 75.27263 133.35132 74.546302 131.47656 74.0625 C 129.60181 73.578698 127.50396 73.337891 125.24609 73.337891 L 108.47461 73.337891 z " id="path825" transform="matrix(0.67951346,0,0,0.67951346,-9.7098233,-1.6144213)"></path>
        <path d="M 202.66016 2.375 A 188.37007 98.055448 0 0 0 14.289062 100.43164 A 188.37007 98.055448 0 0 0 202.66016 198.48633 A 188.37007 98.055448 0 0 0 391.0293 100.43164 A 188.37007 98.055448 0 0 0 202.66016 2.375 z M 182.37891 26.890625 L 206.89258 26.890625 L 201.73242 53.982422 L 224.95508 53.982422 C 227.5356 54.143751 229.91337 54.447983 232.0957 54.878906 C 234.27804 55.30983 236.26435 55.867635 238.05859 56.542969 C 239.85283 57.218303 241.45681 58.009737 242.87305 58.904297 C 244.28928 59.798856 245.51809 60.798118 246.56641 61.886719 C 247.61472 62.975319 248.48139 64.154652 249.17188 65.412109 C 249.86236 66.669566 250.37601 68.005121 250.71875 69.40625 C 251.06149 70.807379 251.23319 72.273353 251.23828 73.792969 C 251.24337 75.312585 251.08224 76.885128 250.75977 78.498047 L 241.72852 131.39648 L 215.92578 131.39648 L 224.95703 83.658203 C 225.27932 82.045284 225.52035 80.594337 225.56055 79.324219 C 225.60074 78.0541 225.43888 76.965157 224.95508 76.078125 C 224.71318 75.634609 224.39091 75.242534 223.97266 74.902344 C 223.5544 74.562153 223.04087 74.274798 222.41602 74.042969 C 221.16632 73.57931 219.47234 73.337891 217.21484 73.337891 L 197.86133 73.337891 L 186.25 131.39648 L 161.73633 131.39648 L 182.37891 26.890625 z M 87.832031 53.982422 L 135.56641 53.982422 C 138.14675 54.143751 140.5664 54.447668 142.82422 54.888672 C 145.08204 55.329676 147.17799 55.909345 149.11328 56.625 C 151.04857 57.340655 152.82279 58.192453 154.43555 59.177734 C 156.0483 60.163015 157.5008 61.281367 158.79102 62.53125 C 160.08123 63.781133 161.21006 65.162414 162.17773 66.671875 C 163.1454 68.181336 163.95254 69.818016 164.59766 71.582031 C 165.24278 73.346046 165.72627 75.236456 166.04883 77.25 C 166.37139 79.263544 166.53125 81.400154 166.53125 83.658203 C 166.53125 85.593503 166.43685 87.479571 166.25195 89.3125 C 166.06706 91.145429 165.79211 92.926889 165.43555 94.654297 C 165.07899 96.381705 164.64 98.055092 164.125 99.673828 C 163.61 101.29256 163.01958 102.85637 162.35938 104.36328 C 161.69917 105.8702 160.96993 107.31899 160.17773 108.71094 C 159.38554 110.10288 158.53009 111.43712 157.61914 112.71094 C 155.79725 115.25858 153.75074 117.5668 151.5332 119.62305 C 149.31567 121.6793 146.92727 123.48378 144.41992 125.02344 C 141.91257 126.5631 139.28705 127.83807 136.5957 128.83594 C 133.90436 129.8338 131.14646 130.55546 128.37695 130.98633 C 125.60744 131.4172 122.82584 131.55781 120.08398 131.39648 L 96.863281 131.39648 L 91.701172 158.49023 L 67.1875 158.49023 L 87.832031 53.982422 z M 260.71875 53.982422 L 308.45508 53.982422 C 311.0356 54.143751 313.45493 54.447668 315.71289 54.888672 C 317.97085 55.329676 320.06851 55.909345 322.00391 56.625 C 323.9393 57.340655 325.71335 58.192453 327.32617 59.177734 C 328.939 60.163015 330.38943 61.281367 331.67969 62.53125 C 332.96995 63.781133 334.09871 65.162414 335.06641 66.671875 C 336.0341 68.181336 336.8412 69.818016 337.48633 71.582031 C 338.13146 73.346046 338.61493 75.236456 338.9375 77.25 C 339.26007 79.263544 339.42188 81.400154 339.42188 83.658203 C 339.42188 85.593503 339.32553 87.479571 339.14062 89.3125 C 338.95572 91.145429 338.68275 92.926889 338.32617 94.654297 C 337.96959 96.381705 337.53065 98.055092 337.01562 99.673828 C 336.5006 101.29256 335.90828 102.85637 335.24805 104.36328 C 334.58781 105.8702 333.85863 107.31899 333.06641 108.71094 C 332.27418 110.10288 331.42074 111.43712 330.50977 112.71094 C 328.68782 115.25858 326.64141 117.5668 324.42383 119.62305 C 322.20625 121.6793 319.81596 123.48378 317.30859 125.02344 C 314.80123 126.5631 312.17568 127.83807 309.48438 128.83594 C 306.79307 129.8338 304.03699 130.55546 301.26758 130.98633 C 298.49817 131.4172 295.71628 131.55781 292.97461 131.39648 L 269.75 131.39648 L 264.58984 158.49023 L 240.07617 158.49023 L 260.71875 53.982422 z " id="ellipse318" transform="matrix(0.67951346,0,0,0.67951346,-9.7098233,-1.6144213)"></path>
      </g>
    </g>
  </symbol>
  <symbol xmlnsDc="http://purl.org/dc/elements/1.1/" xmlnsCc="http://creativecommons.org/ns#" xmlnsRdf="http://www.w3.org/1999/02/22-rdf-syntax-ns#" xmlnsSvg="http://www.w3.org/2000/svg" xmlns="http://www.w3.org/2000/svg" xmlnsSodipodi="http://sodipodi.sourceforge.net/DTD/sodipodi-0.dtd" xmlnsInkscape="http://www.inkscape.org/namespaces/inkscape" version="1.1" id="ps" inkscapeVersion="0.92.5 (2060ec1f9f, 2020-04-08)" sodipodiDocname="ps.svg" viewBox="0 0 52.916665 52.916668">
    <defs id="defs1795"></defs>
    <sodipodi:namedview id="base" pagecolor="#ffffff" bordercolor="#666666" borderopacity="1.0" inkscapePageopacity="0.0" inkscapePageshadow="2" inkscapeZoom="0.98994949" inkscapeCx="500.82241" inkscapeCy="75.126778" inkscapeDocumentUnits="mm" inkscapeCurrentLayer="g2737" showgrid="false" units="px" inkscapeWindowWidth="1366" inkscapeWindowHeight="658" inkscapeWindowX="0" inkscapeWindowY="27" inkscapeWindowMaximized="1"></sodipodi:namedview>
    <metadata id="metadata1798">
      <rdf:RDF>
        <cc:Work rdfAbout="">
          <dc:format>image/svg+xml</dc:format>
          <dc:type rdfResource="http://purl.org/dc/dcmitype/StillImage"></dc:type>
          <dc:title></dc:title>
        </cc:Work>
      </rdf:RDF>
    </metadata>
    <g inkscapeLabel="Capa 1" inkscapeGroupmode="layer" id="layer1" transform="translate(0,-244.08332)">
      <g id="g2737" transform="matrix(3.0686084,0,0,3.0686084,0.65164915,244.95661)">
        <g id="g2681"></g>
        <g id="g2683"></g>
        <g id="g2685"></g>
        <g id="g2687"></g>
        <g id="g2689"></g>
        <g id="g2691"></g>
        <g id="g2693"></g>
        <g id="g2695"></g>
        <g id="g2697"></g>
        <g id="g2699"></g>
        <g id="g2701"></g>
        <g id="g2703"></g>
        <g id="g2705"></g>
        <g id="g2707"></g>
        <g id="g2709"></g>
        <g id="g2920" transform="matrix(0.95894762,0,0,0.95894762,27.670941,-6.5775716)">
          <g id="g2862" transform="translate(-28.798779,6.8511689)">
            <g id="g2860">
              <path id="path2856" d="m 5.925,4.982 c -0.442,0 -0.742,0.043 -0.898,0.087 V 7.91 C 5.213,7.952 5.44,7.966 5.754,7.966 6.911,7.966 7.625,7.381 7.625,6.395 7.624,5.511 7.01,4.982 5.925,4.982 Z" inkscapeConnectorCurvature="0"></path>
              <path id="path2858" d="M 16.4,0.002 H 1.07 C 0.479,0.002 0,0.48 0,1.069 v 15.329 c 0,0.59 0.479,1.069 1.07,1.069 H 16.4 c 0.59,0 1.069,-0.479 1.069,-1.069 V 1.07 C 17.469,0.48 16.99,0.002 16.4,0.002 Z M 8.894,8.624 C 8.153,9.324 7.052,9.638 5.769,9.638 5.482,9.638 5.226,9.624 5.026,9.595 v 3.442 H 2.869 V 3.541 C 3.54,3.428 4.482,3.342 5.811,3.342 c 1.341,0 2.299,0.256 2.94,0.771 0.617,0.486 1.03,1.286 1.03,2.228 0,0.942 -0.315,1.739 -0.887,2.283 z m 3.251,4.555 c -0.916,0 -1.729,-0.198 -2.258,-0.485 l 0.385,-1.556 c 0.4,0.241 1.229,0.527 1.873,0.527 0.655,0 0.927,-0.228 0.927,-0.586 0,-0.356 -0.214,-0.527 -1.027,-0.799 -1.442,-0.485 -2,-1.271 -1.986,-2.099 0,-1.298 1.114,-2.286 2.842,-2.286 0.814,0 1.542,0.187 1.97,0.4 l -0.385,1.5 C 14.172,7.623 13.573,7.396 12.972,7.396 c -0.527,0 -0.826,0.214 -0.826,0.571 0,0.328 0.269,0.499 1.126,0.8 1.328,0.456 1.886,1.128 1.899,2.154 0,1.301 -1.03,2.258 -3.026,2.258 z" inkscapeConnectorCurvature="0"></path>
            </g>
          </g>
          <g id="g2864"></g>
          <g id="g2866"></g>
          <g id="g2868"></g>
          <g id="g2870"></g>
          <g id="g2872"></g>
          <g id="g2874"></g>
          <g id="g2876"></g>
          <g id="g2878"></g>
          <g id="g2880"></g>
          <g id="g2882"></g>
          <g id="g2884"></g>
          <g id="g2886"></g>
          <g id="g2888"></g>
          <g id="g2890"></g>
          <g id="g2892"></g>
        </g>
      </g>
    </g>
  </symbol>
  <symbol xmlnsDc="http://purl.org/dc/elements/1.1/" xmlnsCc="http://creativecommons.org/ns#" xmlnsRdf="http://www.w3.org/1999/02/22-rdf-syntax-ns#" xmlnsSvg="http://www.w3.org/2000/svg" xmlns="http://www.w3.org/2000/svg" xmlnsSodipodi="http://sodipodi.sourceforge.net/DTD/sodipodi-0.dtd" xmlnsInkscape="http://www.inkscape.org/namespaces/inkscape" version="1.1" id="git" inkscapeVersion="0.92.5 (2060ec1f9f, 2020-04-08)" sodipodiDocname="git.svg" viewBox="0 0 52.916665 52.916668">
    <defs id="defs1795"></defs>
    <sodipodi:namedview id="base" pagecolor="#ffffff" bordercolor="#666666" borderopacity="1.0" inkscapePageopacity="0.0" inkscapePageshadow="2" inkscapeZoom="0.98994949" inkscapeCx="500.82241" inkscapeCy="75.126778" inkscapeDocumentUnits="mm" inkscapeCurrentLayer="layer1" showgrid="false" units="px" inkscapeWindowWidth="1366" inkscapeWindowHeight="658" inkscapeWindowX="0" inkscapeWindowY="27" inkscapeWindowMaximized="1"></sodipodi:namedview>
    <metadata id="metadata1798">
      <rdf:RDF>
        <cc:Work rdfAbout="">
          <dc:format>image/svg+xml</dc:format>
          <dc:type rdfResource="http://purl.org/dc/dcmitype/StillImage"></dc:type>
          <dc:title></dc:title>
        </cc:Work>
      </rdf:RDF>
    </metadata>
    <g inkscapeLabel="Capa 1" inkscapeGroupmode="layer" id="layer1" transform="translate(0,-244.08332)">
      <g transform="matrix(0.56051599,0,0,-0.56051599,21.621094,293.60842)" inkscapeLabel="ink_ext_XXXXXX" id="g10">
        <g transform="matrix(0.1,0,0,0.1,-37.173613,-4.8487322)" id="g12">
          <path inkscapeConnectorCurvature="0" id="path14" d="M 901.547,500.352 500.355,901.527 c -23.093,23.11 -60.566,23.11 -83.691,0 L 333.363,818.211 439.039,712.535 c 24.559,8.293 52.723,2.727 72.293,-16.847 19.688,-19.696 25.207,-48.102 16.699,-72.75 L 629.887,521.094 c 24.648,8.496 53.066,3.004 72.754,-16.711 27.5,-27.492 27.5,-72.059 0,-99.574 -27.52,-27.516 -72.078,-27.516 -99.61,0 -20.683,20.703 -25.801,51.097 -15.312,76.582 l -95,94.992 V 326.414 c 6.699,-3.32 13.027,-7.742 18.613,-13.312 27.5,-27.497 27.5,-72.059 0,-99.598 -27.5,-27.488 -72.09,-27.488 -99.57,0 -27.5,27.539 -27.5,72.101 0,99.598 6.797,6.789 14.668,11.925 23.066,15.363 v 252.281 c -8.398,3.438 -16.25,8.531 -23.066,15.367 -20.828,20.821 -25.84,51.395 -15.157,76.977 L 292.426,777.285 17.3281,502.211 c -23.10544,-23.129 -23.10544,-60.602 0,-83.711 L 418.539,17.3242 c 23.098,-23.10545 60.559,-23.10545 83.691,0 L 901.547,416.641 c 23.117,23.113 23.117,60.605 0,83.711"></path>
        </g>
      </g>
    </g>
  </symbol>
  <symbol xmlnsDc="http://purl.org/dc/elements/1.1/" xmlnsCc="http://creativecommons.org/ns#" xmlnsRdf="http://www.w3.org/1999/02/22-rdf-syntax-ns#" xmlnsSvg="http://www.w3.org/2000/svg" xmlns="http://www.w3.org/2000/svg" xmlnsSodipodi="http://sodipodi.sourceforge.net/DTD/sodipodi-0.dtd" xmlnsInkscape="http://www.inkscape.org/namespaces/inkscape" version="1.1" id="python" inkscapeVersion="0.92.5 (2060ec1f9f, 2020-04-08)" sodipodiDocname="python.svg" viewBox="0 0 52.916665 52.916668">
    <defs id="defs1795"></defs>
    <sodipodi:namedview id="base" pagecolor="#ffffff" bordercolor="#666666" borderopacity="1.0" inkscapePageopacity="0.0" inkscapePageshadow="2" inkscapeZoom="0.98994949" inkscapeCx="500.82241" inkscapeCy="75.126778" inkscapeDocumentUnits="mm" inkscapeCurrentLayer="layer1" showgrid="false" units="px" inkscapeWindowWidth="1366" inkscapeWindowHeight="658" inkscapeWindowX="0" inkscapeWindowY="27" inkscapeWindowMaximized="1"></sodipodi:namedview>
    <metadata id="metadata1798">
      <rdf:RDF>
        <cc:Work rdfAbout="">
          <dc:format>image/svg+xml</dc:format>
          <dc:type rdfResource="http://purl.org/dc/dcmitype/StillImage"></dc:type>
          <dc:title></dc:title>
        </cc:Work>
      </rdf:RDF>
    </metadata>
    <g inkscapeLabel="Capa 1" inkscapeGroupmode="layer" id="layer1" transform="translate(0,-244.08332)">
      <path id="path337" d="m 31.663419,245.58351 1.910647,0.42445 1.549666,0.55201 1.252554,0.63707 0.955283,0.6796 0.722116,0.7221 0.530361,0.72213 0.339388,0.70046 0.211823,0.63706 0.0851,0.55203 0.04016,0.42444 -0.02402,0.27602 v 11.33619 l -0.105886,1.33745 -0.276016,1.16758 -0.446101,0.97655 -0.552015,0.8067 -0.637073,0.65791 -0.700458,0.53117 -0.742972,0.40358 -0.742983,0.29689 -0.700461,0.21256 -0.637059,0.14843 -0.552027,0.0851 -0.446102,0.0401 H 20.023689 l -1.464777,0.10589 -1.252475,0.29687 -1.061442,0.46697 -0.870395,0.57287 -0.700448,0.67959 -0.572881,0.743 -0.424448,0.76382 -0.318536,0.78551 -0.212625,0.74299 -0.148421,0.6796 -0.0851,0.57287 -0.04016,0.4461 v 6.4961 H 8.1379303 L 7.6918304,283.19914 7.0972811,283.05069 6.4176873,282.79556 5.6747169,282.41364 4.9100657,281.86161 4.146228,281.09697 3.4032447,280.12043 2.7236509,278.86794 2.1291144,277.3182 1.682999,275.45009 1.3861311,273.221 l -0.1058859,-2.61112 0.1275796,-2.58991 0.3394031,-2.20784 0.5094919,-1.84694 0.6795939,-1.50721 0.7646382,-1.21012 0.8491275,-0.93402 0.8916626,-0.70046 0.8915723,-0.50947 0.8492179,-0.33941 0.7638376,-0.21256 0.6795939,-0.10589 0.5094919,-0.0242 h 0.3393902 l 0.1275796,0.0242 H 26.925244 v -1.76204 H 14.527516 l -0.02402,-5.83793 -0.04016,-0.7855 0.105886,-0.72212 0.233492,-0.65793 0.361058,-0.59455 0.530346,-0.552 0.657939,-0.48864 0.806683,-0.42445 0.934017,-0.38192 1.082696,-0.31854 1.231298,-0.25436 1.358619,-0.21256 1.507299,-0.12757 1.634646,-0.0851 1.783222,-0.0402 2.696075,0.10589 z m -13.37419,4.2033 -0.488625,0.70044 -0.170102,0.8704 0.170102,0.87038 0.488625,0.72213 0.700461,0.46697 0.870395,0.19096 0.870382,-0.19096 0.700461,-0.46697 0.488638,-0.72213 0.170088,-0.87038 -0.170088,-0.8704 -0.488638,-0.70044 -0.700461,-0.46697 -0.870382,-0.19096 -0.870395,0.19096 z m 27.788633,8.38546 0.59455,0.12758 0.679591,0.25515 0.742972,0.38194 0.764652,0.57286 0.763836,0.74297 0.742986,0.99775 0.679592,1.25254 0.594536,1.54968 0.446114,1.8682 0.296871,2.20773 0.105885,2.6112 -0.127579,2.61116 -0.339389,2.20777 -0.509506,1.82576 -0.679594,1.50721 -0.764636,1.21003 -0.849131,0.95536 -0.891663,0.70046 -0.891569,0.50949 -0.849207,0.33941 -0.763849,0.19097 -0.679595,0.10588 -0.509492,0.0402 -0.339389,-0.0242 H 26.844706 v 1.74077 h 12.397639 l 0.02402,5.85919 0.04016,0.76387 -0.105886,0.7221 -0.233477,0.65793 -0.36106,0.6154 -0.53036,0.53036 -0.657923,0.5095 -0.806776,0.42445 -0.934093,0.36106 -1.082619,0.31852 -1.231285,0.27602 -1.35871,0.19095 -1.507221,0.14844 -1.634633,0.0851 -1.783235,0.0241 -2.696062,-0.085 -2.271472,-0.29687 -1.910647,-0.42446 -1.549653,-0.53033 -1.252566,-0.63708 -0.955271,-0.70045 -0.722129,-0.7221 -0.531147,-0.72213 -0.339403,-0.70046 -0.212624,-0.63708 -0.0851,-0.53034 -0.04016,-0.42445 0.02402,-0.27601 v -11.33549 l 0.105886,-1.35863 0.276014,-1.1464 0.446102,-0.97655 0.552015,-0.80668 0.637071,-0.6796 0.700461,-0.5095 0.742971,-0.42442 0.742983,-0.29687 0.700461,-0.21256 0.63706,-0.12758 0.552026,-0.085 0.446102,-0.0402 0.276014,-0.0241 h 12.397638 l 1.464867,-0.10589 1.252462,-0.29687 1.061442,-0.44613 0.870395,-0.59453 0.70045,-0.6796 0.572881,-0.74297 0.424448,-0.76385 0.318534,-0.76384 0.211822,-0.74297 0.14845,-0.67959 0.0851,-0.59454 0.04016,-0.44612 v -6.49601 h 4.436851 l 0.29687,0.0241 z m -13.735082,30.25122 -0.488637,0.70046 -0.170102,0.87038 0.170102,0.8704 0.488637,0.70044 0.700449,0.48864 0.870395,0.17005 0.870395,-0.17005 0.700447,-0.48864 0.488637,-0.70044 0.170089,-0.8704 -0.170089,-0.87038 -0.488637,-0.70046 -0.700447,-0.48864 -0.870395,-0.17004 -0.870395,0.17004 z" inkscapeConnectorCurvature="0"></path>
    </g>
  </symbol>
  <symbol xmlnsDc="http://purl.org/dc/elements/1.1/" xmlnsCc="http://creativecommons.org/ns#" xmlnsRdf="http://www.w3.org/1999/02/22-rdf-syntax-ns#" xmlnsSvg="http://www.w3.org/2000/svg" xmlns="http://www.w3.org/2000/svg" xmlnsSodipodi="http://sodipodi.sourceforge.net/DTD/sodipodi-0.dtd" xmlnsInkscape="http://www.inkscape.org/namespaces/inkscape" version="1.1" id="javascript" inkscapeVersion="0.92.5 (2060ec1f9f, 2020-04-08)" sodipodiDocname="javascript.svg" viewBox="0 0 52.916665 52.916668">
    <defs id="defs1795"></defs>
    <sodipodi:namedview id="base" pagecolor="#ffffff" bordercolor="#666666" borderopacity="1.0" inkscapePageopacity="0.0" inkscapePageshadow="2" inkscapeZoom="0.98994949" inkscapeCx="484.50618" inkscapeCy="75.126778" inkscapeDocumentUnits="mm" inkscapeCurrentLayer="layer1" showgrid="false" units="px" inkscapeWindowWidth="1366" inkscapeWindowHeight="658" inkscapeWindowX="0" inkscapeWindowY="27" inkscapeWindowMaximized="1"></sodipodi:namedview>
    <metadata id="metadata1798">
      <rdf:RDF>
        <cc:Work rdfAbout="">
          <dc:format>image/svg+xml</dc:format>
          <dc:type rdfResource="http://purl.org/dc/dcmitype/StillImage"></dc:type>
          <dc:title></dc:title>
        </cc:Work>
      </rdf:RDF>
    </metadata>
    <g inkscapeLabel="Capa 1" inkscapeGroupmode="layer" id="layer1" transform="translate(0,-244.08332)">
      <path id="path2056" d="M 0.3102485,244.92539 H 52.876388 v 52.56616 H 0.3102485 Z m 48.2622825,40.03243 c -0.384374,-2.4049 -1.951518,-4.41556 -6.578979,-6.29645 -1.608195,-0.75236 -3.405299,-1.28295 -3.935885,-2.49853 -0.197123,-0.71951 -0.231643,-1.11215 -0.103498,-1.54085 0.333464,-1.42096 2.002441,-1.83986 3.319875,-1.44561 0.855843,0.26449 1.642696,0.91502 2.138787,1.968 2.266915,-1.48007 2.266915,-1.48007 3.842254,-2.46407 -0.589755,-0.91496 -0.880479,-1.31746 -1.282939,-1.70184 -1.378222,-1.54904 -3.216389,-2.33592 -6.202806,-2.26688 l -1.549058,0.19681 c -1.480068,0.35948 -2.891139,1.14661 -3.746982,2.19952 -2.490319,2.8238 -1.770817,7.75187 1.24845,9.79705 2.98641,2.23242 7.357618,2.7203 7.922699,4.82619 0.522392,2.56757 -1.907163,3.3889 -4.312064,3.08828 -1.770823,-0.39424 -2.754793,-1.28294 -3.842253,-2.92561 l -4.004888,2.3014 c 0.453414,1.05298 0.983976,1.50633 1.770823,2.42955 3.807758,3.84225 13.338659,3.64513 15.0487,-2.19958 0.05898,-0.19744 0.522391,-1.54905 0.162603,-3.61062 z m -19.6778,-15.87173 h -4.919862 c 0,4.24308 -0.02608,8.46152 -0.02608,12.71447 0,2.69565 0.136341,5.17611 -0.298944,5.93834 -0.727716,1.50633 -2.583957,1.3174 -3.431585,1.05291 -0.864057,-0.42715 -1.309226,-1.01846 -1.813532,-1.87431 -0.146213,-0.23158 -0.248034,-0.42715 -0.282554,-0.42715 l -3.995028,2.46407 c 0.666934,1.37818 1.642696,2.5675 2.900999,3.31986 1.874308,1.12034 4.389268,1.48007 7.024148,0.89031 1.711686,-0.49607 3.191747,-1.51452 3.960527,-3.08822 1.120317,-2.03698 0.880485,-4.53383 0.872271,-7.33297 0.02608,-4.50099 0,-9.0003 0,-13.53581 z" inkscapeConnectorCurvature="0"></path>
    </g>
  </symbol>
  <symbol xmlnsDc="http://purl.org/dc/elements/1.1/" xmlnsCc="http://creativecommons.org/ns#" xmlnsRdf="http://www.w3.org/1999/02/22-rdf-syntax-ns#" xmlnsSvg="http://www.w3.org/2000/svg" xmlns="http://www.w3.org/2000/svg" xmlnsSodipodi="http://sodipodi.sourceforge.net/DTD/sodipodi-0.dtd" xmlnsInkscape="http://www.inkscape.org/namespaces/inkscape" version="1.1" id="mysql" inkscapeVersion="0.92.5 (2060ec1f9f, 2020-04-08)" sodipodiDocname="mysql.svg" viewBox="0 0 84.666664 52.916668">
    <defs id="defs1795"></defs>
    <sodipodi:namedview id="base" pagecolor="#ffffff" bordercolor="#666666" borderopacity="1.0" inkscapePageopacity="0.0" inkscapePageshadow="2" inkscapeZoom="0.98994949" inkscapeCx="500.82241" inkscapeCy="75.126778" inkscapeDocumentUnits="mm" inkscapeCurrentLayer="layer1" showgrid="false" units="px" inkscapeWindowWidth="1366" inkscapeWindowHeight="658" inkscapeWindowX="0" inkscapeWindowY="27" inkscapeWindowMaximized="1"></sodipodi:namedview>
    <metadata id="metadata1798">
      <rdf:RDF>
        <cc:Work rdfAbout="">
          <dc:format>image/svg+xml</dc:format>
          <dc:type rdfResource="http://purl.org/dc/dcmitype/StillImage"></dc:type>
          <dc:title></dc:title>
        </cc:Work>
      </rdf:RDF>
    </metadata>
    <g inkscapeLabel="Capa 1" inkscapeGroupmode="layer" id="layer1" transform="translate(0,-244.08332)">
      <path id="path2250" d="m 55.728285,250.04638 c -0.367685,0 -0.618051,0.0484 -0.876883,0.10888 v 0.0363 h 0.04838 c 0.172953,0.3326 0.466865,0.57572 0.684574,0.87326 0.172953,0.34227 0.319307,0.68456 0.492264,1.02442 l 0.04838,-0.0484 c 0.301165,-0.21165 0.447513,-0.55032 0.447513,-1.06557 -0.12822,-0.14993 -0.147559,-0.30118 -0.256411,-0.44753 -0.12822,-0.21407 -0.402763,-0.32051 -0.575719,-0.48983 z m -34.03321,42.22231 h -2.966526 c -0.09675,-4.99859 -0.394294,-9.69638 -0.863577,-14.11249 h -0.02419 l -4.512137,14.11249 H 11.072571 L 6.5923622,278.1562 h -0.036286 c -0.3289815,4.23372 -0.5370132,8.93791 -0.6240976,14.11249 H 3.2279144 C 3.4032876,285.97728 3.842336,280.07628 4.5399733,274.572 H 8.220099 l 4.272172,13.00533 h 0.02419 L 16.826976,274.572 h 3.504144 c 0.774076,6.44828 1.228844,12.35242 1.369629,17.69669 z m 12.854859,-13.05648 c -1.209616,6.5442 -2.803364,11.30599 -4.774598,14.27251 -1.542465,2.29125 -3.232129,3.43375 -5.065841,3.43375 -0.489845,0 -1.087335,-0.14748 -1.811217,-0.44147 v -1.5808 c 0.351963,0.0605 0.768029,0.0847 1.235257,0.0847 0.85753,0 1.545611,-0.2395 2.070409,-0.70999 0.630147,-0.57572 0.944616,-1.22242 0.944616,-1.93602 0,-0.49591 -0.246738,-1.504 -0.736581,-3.02095 l -3.24483,-10.1017 h 2.912099 l 2.326459,7.5522 c 0.524921,1.71531 0.746258,2.91222 0.655547,3.59378 1.280006,-3.40498 2.169708,-7.12671 2.672132,-11.14598 z m 39.44146,13.05648 h -8.41638 V 274.572 h 2.832149 v 15.52057 h 5.584231 z m -10.624432,0.4318 -3.251361,-1.60017 c 0.287859,-0.24311 0.566045,-0.50557 0.816409,-0.79945 1.385717,-1.61929 2.073676,-4.02582 2.073676,-7.20993 0,-5.85614 -2.297675,-8.78746 -6.896168,-8.78746 -2.252925,0 -4.01298,0.74262 -5.280285,2.23043 -1.376042,1.62567 -2.067267,4.01939 -2.067267,7.18428 0,3.11057 0.608376,5.39542 1.836857,6.84827 1.119992,1.31207 2.80651,1.96809 5.065843,1.96809 0.845435,0 1.619269,-0.10888 2.320051,-0.31326 l 4.240242,2.47051 1.151437,-1.99048 z m -10.53481,-3.97464 c -0.719647,-1.15144 -1.078867,-3.00802 -1.078867,-5.55532 0,-4.45783 1.356809,-6.68827 4.064139,-6.68827 1.417648,0 2.464102,0.53461 3.126543,1.60004 0.71723,1.15869 1.075238,2.99532 1.075238,5.51385 0,4.49289 -1.356931,6.74582 -4.06414,6.74582 -1.424057,0 -2.464101,-0.53459 -3.129807,-1.60005 z m -5.305806,-1.35996 c 0,1.50401 -0.550319,2.73926 -1.6512,3.69923 -1.100639,0.96035 -2.569689,1.44016 -4.428923,1.44016 -1.737679,0 -3.404965,-0.55033 -5.033789,-1.64807 l 0.758351,-1.52334 c 1.401683,0.70391 2.665725,1.04983 3.808212,1.04983 1.061935,0 1.897575,-0.23344 2.505586,-0.70392 0.601118,-0.4705 0.960337,-1.13331 0.960337,-1.96809 0,-1.05588 -0.73537,-1.95199 -2.073677,-2.70407 -1.241666,-0.68215 -3.721731,-2.10245 -3.721731,-2.10245 -1.350398,-0.98211 -2.022516,-2.03534 -2.022516,-3.76661 0,-1.44003 0.501942,-2.59206 1.504128,-3.47211 1.007509,-0.89017 2.304084,-1.32801 3.904122,-1.32801 1.638503,0 3.136097,0.43541 4.480205,1.31206 l -0.682153,1.52324 c -1.151437,-0.48622 -2.288119,-0.73659 -3.404965,-0.73659 -0.905911,0 -1.606451,0.21772 -2.092786,0.65918 -0.489846,0.43541 -0.793429,0.99177 -0.793429,1.67684 0,1.04984 0.748676,1.95212 2.131248,2.72015 1.257633,0.6882 3.798536,2.14407 3.798536,2.14407 1.385716,0.97606 2.073676,2.01597 2.073676,3.73769 z M 77.549845,268.6387 c -1.712038,-0.0484 -3.040062,0.12825 -4.150497,0.60111 -0.320518,0.12825 -0.832132,0.12825 -0.876883,0.53461 0.176582,0.16942 0.201976,0.4475 0.351962,0.68457 0.256413,0.42937 0.697878,1.00146 1.106686,1.30251 0.447514,0.35196 0.896236,0.69183 1.366488,0.99178 0.83213,0.5116 1.776019,0.81641 2.592065,1.33129 0.464444,0.30116 0.937358,0.68094 1.40809,1.00145 0.233433,0.15958 0.383411,0.44751 0.684574,0.55032 v -0.0605 c -0.14756,-0.19241 -0.192316,-0.4705 -0.336239,-0.68458 -0.21408,-0.21408 -0.42816,-0.40639 -0.639821,-0.61805 -0.620472,-0.83213 -1.392006,-1.55844 -2.224018,-2.16005 -0.684572,-0.46686 -2.182531,-1.11999 -2.464101,-1.9041 l -0.03629,-0.0484 c 0.466865,-0.0363 1.024441,-0.21168 1.472075,-0.33866 0.726906,-0.1924 1.392006,-0.14995 2.144069,-0.33988 0.338659,-0.0847 0.682155,-0.19219 1.024441,-0.30114 v -0.19241 c -0.38341,-0.38461 -0.672478,-0.90592 -1.069192,-1.26404 -1.087335,-0.9434 -2.29441,-1.86251 -3.53293,-2.63367 -0.67248,-0.42937 -1.523237,-0.70393 -2.230427,-1.06919 -0.256413,-0.12824 -0.684574,-0.19241 -0.832131,-0.40639 -0.38341,-0.46686 -0.608375,-1.08855 -0.880512,-1.6448 -0.614422,-1.17804 -1.216145,-2.48007 -1.750499,-3.72173 -0.383409,-0.83819 -0.618053,-1.6737 -1.088546,-2.44171 -2.208052,-3.63854 -4.598492,-5.84344 -8.275474,-8.00033 -0.7898,-0.4475 -1.737679,-0.63982 -2.739261,-0.87688 -0.534597,-0.0241 -1.069192,-0.0605 -1.600159,-0.0847 -0.351964,-0.14994 -0.691831,-0.55637 -0.991785,-0.75229 -1.216025,-0.76804 -4.364941,-2.43206 -5.260934,-0.22983 -0.575719,1.38886 0.853902,2.75862 1.350399,3.46253 0.367687,0.48986 0.832132,1.04985 1.088543,1.60017 0.149981,0.37132 0.192316,0.75231 0.342289,1.13936 0.339867,0.94099 0.662803,1.99045 1.110314,2.87048 0.233433,0.44751 0.489845,0.91801 0.789799,1.32161 0.172953,0.23344 0.466865,0.3423 0.534596,0.72691 -0.301164,0.43543 -0.320515,1.06918 -0.493474,1.60004 -0.768026,2.42249 -0.466864,5.41781 0.620471,7.20036 0.342285,0.53096 1.158695,1.70878 2.249659,1.25762 0.960336,-0.3834 0.748676,-1.60004 1.024439,-2.67214 0.06046,-0.25641 0.02418,-0.42573 0.15361,-0.59868 v 0.0484 c 0.301165,0.60113 0.601119,1.17444 0.876884,1.77616 0.659174,1.04983 1.811336,2.13765 2.774577,2.86408 0.511617,0.38461 0.918007,1.04984 1.558434,1.28642 v -0.0605 h -0.04838 c -0.137878,-0.18625 -0.320515,-0.27575 -0.493474,-0.42574 -0.383409,-0.38461 -0.816407,-0.85389 -1.11999,-1.28 -0.896235,-1.20707 -1.686396,-2.5282 -2.390443,-3.89784 -0.351962,-0.67247 -0.645868,-1.39528 -0.92768,-2.05758 -0.128221,-0.25642 -0.128221,-0.63982 -0.342288,-0.76804 -0.320515,0.46686 -0.7898,0.87326 -1.024441,1.44959 -0.40639,0.92162 -0.447511,2.05443 -0.601118,3.23212 -0.08467,0.0241 -0.04838,0 -0.08467,0.0484 -0.684573,-0.16697 -0.918007,-0.87689 -1.174418,-1.47207 -0.639822,-1.52011 -0.745048,-3.96183 -0.192316,-5.71222 0.14998,-0.4475 0.791009,-1.86248 0.534595,-2.29137 -0.134248,-0.4064 -0.556367,-0.63982 -0.789798,-0.97001 -0.278183,-0.39672 -0.575718,-0.91197 -0.768029,-1.3665 -0.511616,-1.1974 -0.768028,-2.52167 -1.324879,-3.71857 -0.256412,-0.55395 -0.703925,-1.13331 -1.069192,-1.64167 -0.406389,-0.57571 -0.855111,-0.9821 -1.178046,-1.66401 -0.108857,-0.23341 -0.256413,-0.62048 -0.08467,-0.87689 0.04838,-0.17291 0.134248,-0.23946 0.301165,-0.28786 0.281812,-0.22978 1.071612,0.0727 1.350399,0.19835 0.791008,0.32051 1.456111,0.62048 2.11855,1.06919 0.301162,0.21165 0.624097,0.61805 1.007506,0.72327 h 0.447515 c 0.684571,0.14994 1.456108,0.0484 2.09605,0.23344 1.135716,0.36528 2.160157,0.89623 3.078525,1.47195 2.803363,1.77929 5.107449,4.30424 6.67229,7.31551 0.256414,0.49346 0.367688,0.94341 0.601118,1.45609 0.447514,1.0559 1.001463,2.12171 1.45611,3.14251 0.447511,1.00752 0.880512,2.03523 1.523235,2.8705 0.320518,0.4475 1.60645,0.68215 2.182411,0.9156 0.425743,0.19218 1.088546,0.36767 1.472076,0.6011 0.73658,0.44752 1.452842,0.96034 2.144068,1.45286 0.351962,0.2431 1.417648,0.77769 1.48163,1.2096 z" inkscapeConnectorCurvature="0"></path>
    </g>
  </symbol>
  <symbol xmlnsDc="http://purl.org/dc/elements/1.1/" xmlnsCc="http://creativecommons.org/ns#" xmlnsRdf="http://www.w3.org/1999/02/22-rdf-syntax-ns#" xmlnsSvg="http://www.w3.org/2000/svg" xmlns="http://www.w3.org/2000/svg" xmlnsSodipodi="http://sodipodi.sourceforge.net/DTD/sodipodi-0.dtd" xmlnsInkscape="http://www.inkscape.org/namespaces/inkscape" version="1.1" id="linux" inkscapeVersion="0.92.5 (2060ec1f9f, 2020-04-08)" sodipodiDocname="linux.svg" viewBox="0 0 52.916665 52.916668">
    <defs id="defs1795"></defs>
    <sodipodi:namedview id="base" pagecolor="#ffffff" bordercolor="#666666" borderopacity="1.0" inkscapePageopacity="0.0" inkscapePageshadow="2" inkscapeZoom="0.98994949" inkscapeCx="318.48987" inkscapeCy="75.126778" inkscapeDocumentUnits="mm" inkscapeCurrentLayer="g2737" showgrid="false" units="px" inkscapeWindowWidth="1366" inkscapeWindowHeight="658" inkscapeWindowX="0" inkscapeWindowY="27" inkscapeWindowMaximized="1"></sodipodi:namedview>
    <metadata id="metadata1798">
      <rdf:RDF>
        <cc:Work rdfAbout="">
          <dc:format>image/svg+xml</dc:format>
          <dc:type rdfResource="http://purl.org/dc/dcmitype/StillImage"></dc:type>
          <dc:title></dc:title>
        </cc:Work>
      </rdf:RDF>
    </metadata>
    <g inkscapeLabel="Capa 1" inkscapeGroupmode="layer" id="layer1" transform="translate(0,-244.08332)">
      <g id="g2737" transform="matrix(3.0686084,0,0,3.0686084,0.65164915,244.95661)">
        <g id="g2681"></g>
        <g id="g2683"></g>
        <g id="g2685"></g>
        <g id="g2687"></g>
        <g id="g2689"></g>
        <g id="g2691"></g>
        <g id="g2693"></g>
        <g id="g2695"></g>
        <g id="g2697"></g>
        <g id="g2699"></g>
        <g id="g2701"></g>
        <g id="g2703"></g>
        <g id="g2705"></g>
        <g id="g2707"></g>
        <g id="g2709"></g>
        <g id="g2995" transform="matrix(0.05594319,0,0,0.05594319,19.799639,14.143962)">
          <path id="path2993" d="m -203.66131,-180.62419 c 0,1 -1,1 -1,1 h -1 c -1,0 -1,-1 -2,-2 0,0 -1,-1 -1,-2 0,-1 0,-1 1,-1 l 2,1 c 1,1 2,2 2,3 m -18,-10 c 0,-5 -2,-8 -5,-8 0,0 0,1 -1,1 v 2 h 3 c 0,2 1,3 1,5 h 2 m 35,-5 c 2,0 3,2 4,5 h 2 c -1,-1 -1,-2 -1,-3 0,-1 0,-2 -1,-3 -1,-1 -2,-2 -3,-2 0,0 -1,1 -2,1 0,1 1,1 1,2 m -30,16 c -1,0 -1,0 -1,-1 0,-1 0,-2 1,-3 2,0 3,-1 3,-1 1,0 1,1 1,1 0,1 -1,2 -3,4 h -1 m -11,-1 c -4,-2 -5,-5 -5,-10 0,-3 0,-5 2,-7 1,-2 3,-3 5,-3 2,0 3,1 5,3 1,3 2,6 2,9 v 1 1 h 1 v -1 c 1,0 1,-2 1,-6 0,-3 0,-6 -2,-9 -2,-3 -4,-5 -8,-5 -3,0 -6,2 -7,5 -2,4 -2.4,7 -2.4,12 0,4 1.4,8 5.4,12 1,-1 2,-1 3,-2 m 125,141.000006 c 1,0 1,-0.4 1,-1.3 0,-2.2 -1,-4.8 -4,-7.7 -3,-3 -8,-4.9 -14,-5.7 -1,-0.1 -2,-0.1 -2,-0.1 -1,-0.2 -1,-0.2 -2,-0.2 -1,-0.1 -3,-0.3 -4,-0.5 3,-9.3 4,-17.5 4,-24.7 0,-10.000004 -2,-17.000004 -6,-23.000006 -4,-6 -8,-9 -13,-10 -1,1 -1,1 -1,2 5,2 10,6 13,12.000002 3,7 4,13 4,20.000004 0,5.6 -1,13.9 -5,24.5 -4,1.6 -8,5.3 -11,11.1 0,0.9 0,1.4 1,1.4 0,0 1,-0.9 2,-2.6 2,-1.7 3,-3.4 5,-5.1 3,-1.7 5,-2.6 8,-2.6 5,0 10,0.7 13,2.1 4,1.3 6,2.7 7,4.3 1,1.5 2,2.9 3,4.2 0,1.3 1,1.9 1,1.9 m -92,-145.000006 c -1,-1 -1,-3 -1,-5 0,-4 0,-6 2,-9 2,-2 4,-3 6,-3 3,0 5,2 7,4 1,3 2,5 2,8 0,5 -2,8 -6,9 0,0 1,1 2,1 2,0 3,1 5,2 1,-6 2,-10 2,-15 0,-6 -1,-10 -3,-13 -3,-3 -6,-4 -10,-4 -3,0 -6,1 -9,3 -2,3 -3,5 -3,8 0,5 1,9 3,13 1,0 2,1 3,1 m 12,16 c -13,9 -23,13 -31,13 -7,0 -14,-3 -20,-8 1,2 2,4 3,5 l 6,6 c 4,4 9,6 14,6 7,0 15,-4 25,-11 l 9,-6 c 2,-2 4,-4 4,-7 0,-1 0,-2 -1,-2 -1,-2 -6,-5 -16,-8 -9,-4 -16,-6 -20,-6 -3,0 -8,2 -15,6 -6,4 -10,8 -10,12 0,0 1,1 2,3 6,5 12,8 18,8 8,0 18,-4 31,-14 v 2 c 1,0 1,1 1,1 m 23,202.000006 c 4,7.52 11,11.3 19,11.3 2,0 4,-0.3 6,-0.9 2,-0.4 4,-1.1 5,-1.9 1,-0.7 2,-1.4 3,-2.2 2,-0.7 2,-1.2 3,-1.7 l 17,-14.7 c 4,-3.19 7.999999,-5.98 12.999999,-8.4 4,-2.4 8,-4 10,-4.8999997 3,-0.8 5,-2 7,-3.6000004 1,-1.5 2,-3.4 2,-5.80000002 0,-2.89999998 -2,-5.09999998 -4,-6.69999998 -2,-1.6 -4,-2.7 -6,-3.4 -2,-0.6999999 -4,-2.2999999 -7,-4.9999999 -2,-2.6 -4,-6.2 -5,-10.9 l -1,-5.8 c -1,-2.7 -1,-4.7 -2,-5.8 0,-0.3 0,-0.4 -0.999999,-0.4 -1,0 -3,0.9 -4,2.6 -2,1.7 -4,3.6 -6,5.6 -1,2 -4,3.8 -6,5.5 -3,1.7 -6,2.6 -8,2.6 -8,0 -12,-2.2 -15,-6.5 -2,-3.2 -3,-6.9 -4,-11.1 -2,-1.7 -3,-2.6 -5,-2.6 -5,0 -7,5.2 -7,15.7 v 3.3 11.6 8.8999999 4.3 3 c 0,0.9 -1,2.9000004 -1,6.0000001 -1,3.1 -1,6.62 -1,10.6 l -2,11.1 v 0.17 m -145,-5.29 c 9.3,1.36 20,4.27 32.1,8.71 12.1,4.4 19.5,6.7 22.2,6.7 7,0 12.8,-3.1 17.6,-9.09 1,-1.94 1,-4.22 1,-6.84 0,-9.45 -5.7,-21.4000001 -17.1,-35.9000001 l -6.8,-9.0999999 c -1.4,-1.9 -3.1,-4.8 -5.3,-8.7 -2.1,-3.9 -4,-6.9 -5.5,-9 -1.3,-2.3 -3.4,-4.6 -6.1,-6.9 -2.6,-2.3 -5.6,-3.8 -8.9,-4.6 -4.2,0.8 -7.1,2.2 -8.5,4.1 -1.4,1.9 -2.2,4 -2.4,6.2 -0.3,2.1 -0.9,3.5 -1.9,4.2 -1,0.6 -2.7,1.1 -5,1.6 -0.5,0 -1.4,0 -2.7,0.1 h -2.7 c -5.3,0 -8.9,0.6 -10.8,1.6 -2.5,2.9 -3.8,6.2 -3.8,9.7 0,1.6 0.4,4.3 1.2,8.1 0.8,3.6999999 1.2,6.6999999 1.2,8.7999999 0,4.1 -1.2,8.2 -3.7,12.3000001 -2.5,4.3 -3.8,7.5 -3.8,9.78 1,3.88 7.6,6.61 19.7,8.21 m 33.3,-90.9 c 0,-6.9 1.8,-14.5 5.5,-23.500004 3.6,-9 7.2,-15.000002 10.7,-19.000002 -0.2,-1 -0.7,-1 -1.5,-1 l -1,-1 c -2.9,3 -6.4,10.000002 -10.6,20.000002 -4.2,9.000004 -6.4,17.300004 -6.4,23.400004 0,4.5 1.1,8.4 3.1,11.8 2.2,3.3 7.5,8.1 15.9,14.2 l 10.6,6.9 c 11.3,9.8 17.3,16.6 17.3,20.6 0,2.0999999 -1,4.1999999 -4,6.4999999 -2,2.4 -4.7,3.59999998 -7,3.59999998 -0.2,0 -0.3,0.2 -0.3,0.7 0,0.1 1,2.10000002 3.1,6.00000002 4.2,5.7000001 13.2,8.5000001 25.2,8.5000001 22,0 39,-9.0000001 52,-27 0,-5 0,-8.1 -1,-9.4 v -3.7 c 0,-6.5 1,-11.4 3,-14.6 2,-3.2 4,-4.7 7,-4.7 2,0 4,0.7 6,2.2 1,-7.7 1,-14.4 1,-20.4 0,-9.1 0,-16.6 -2,-23.600004 -1,-6 -3,-11 -5,-15.000002 -2,-3 -4,-6 -6,-9 -2,-3 -3,-6 -5,-9 -1,-4 -2,-7 -2,-12 -3,-5 -5,-10 -8,-15 -2,-5 -4,-10 -6,-14 l -9,7 c -10,7 -18,10 -25,10 -6,0 -11,-1 -14,-5 l -6,-5 c 0,3 -1,7 -3,11 l -6.3,12 c -2.8,7 -4.3,11 -4.6,14 -0.4,2 -0.7,4 -0.9,4 l -7.5,15.000002 c -8.1,15.000004 -12.2,28.900004 -12.2,40.400004 0,2.3 0.2,4.7 0.6,7.1 -4.5,-3.1 -6.7,-7.4 -6.7,-13 m 71.6,94.6 c -13,0 -23,1.76 -30,5.25 v -0.3 c -5,6 -10.6,9.1 -18.4,9.1 -4.9,0 -12.6,-1.9 -23,-5.7 -10.5,-3.6 -19.8,-6.36 -27.9,-8.18 -0.8,-0.23 -2.6,-0.57 -5.5,-1.03 -2.8,-0.45 -5.4,-0.91 -7.7,-1.37 -2.1,-0.45 -4.5,-1.13 -7.1,-2.05 -2.5,-0.79 -4.5,-1.82 -6,-3.07 -1.38,-1.26 -2.06,-2.68 -2.06,-4.27 0,-1.6 0.34,-3.31 1.02,-5.13 0.64,-1.1 1.34,-2.2 2.04,-3.2 0.7,-1.1 1.3,-2.0999997 1.7,-3.0999997 0.6,-0.9 1,-1.8 1.4,-2.8000004 0.4,-0.9 0.8,-1.8 1,-2.9 0.2,-1 0.4,-2.00000002 0.4,-3.00000002 0,-0.99999998 -0.4,-3.99999998 -1.2,-9.29999998 -0.8,-5.1999999 -1.2,-8.4999999 -1.2,-9.8999999 0,-4.4 1,-7.9 3.2,-10.4 2.2,-2.5 4.3,-3.8 6.5,-3.8 h 11.5 c 0.9,0 2.3,-0.5 4.4,-1.7 0.7,-1.6 1.3,-2.9 1.7,-4.1 0.5,-1.2 0.7,-2.1 0.9,-2.5 0.2,-0.6 0.4,-1.2 0.6,-1.7 0.4,-0.7 0.9,-1.5 1.6,-2.3 -0.8,-1 -1.2,-2.3 -1.2,-3.9 0,-1.1 0,-2.1 0.2,-2.7 0,-3.6 1.7,-8.7 5.3,-15.4 l 3.5,-6.3 c 2.9,-5.4 5.1,-9.400004 6.7,-13.400004 1.7,-4 3.5,-10 5.5,-18.000002 1.6,-7 5.4,-14 11.4,-21 l 7.5,-9 c 5.2,-6 8.6,-11 10.5,-15 1.9,-4 2.9,-9 2.9,-13 0,-2 -0.5,-8 -1.6,-18 -1,-10 -1.5,-20 -1.5,-29 0,-7 0.6,-12 1.9,-17 1.3,-5 3.6,-10 7,-14 3,-4 7,-8 13,-10 6,-2 13,-3 21,-3 3,0 6,0 9,1 3,0 7,1 12,3 4,2 8,4 11,7 4,3 7,8 10,13 2,6 4,12 5,20 1,5 1,10 2,17 0,6 1,10 1,13 1,3 1,7 2,12 1,4 2,8 4,11 2,4 4,8 7,12 3,5 7,10 11,16 9,10 16,21 20,32.000002 5,10 7.999999,23.000004 7.999999,36.900004 0,6.9 -1,13.6 -2.999999,20.1 1.999999,0 2.999999,0.8 3.999999,2.2 1,1.4 2,4.4 3,9.1 l 1,7.4 c 1,2.2 2,4.3 5,6.1 2,1.8 4,3.3 7,4.5 2,1 5,2.3999999 7,4.1999999 2,2 3,4.1 3,6.29999998 0,3.40000002 -1,5.90000002 -3,7.70000042 -2,2 -4,3.3999997 -7,4.2999997 -2,1 -6,3 -12,5.82 -5,2.96 -9.999999,6.55 -14.999999,10.8 l -10,8.51 c -4,3.9 -8,6.7 -11,8.4 -3,1.8 -7,2.7 -11,2.7 l -7,-0.8 c -8,-2.1 -13,-6.1 -16,-12.2 -16,-1.94 -29,-2.9 -37,-2.9" inkscapeConnectorCurvature="0"></path>
        </g>
      </g>
    </g>
  </symbol>
  <symbol xmlnsDc="http://purl.org/dc/elements/1.1/" xmlnsCc="http://creativecommons.org/ns#" xmlnsRdf="http://www.w3.org/1999/02/22-rdf-syntax-ns#" xmlnsSvg="http://www.w3.org/2000/svg" xmlns="http://www.w3.org/2000/svg" xmlnsSodipodi="http://sodipodi.sourceforge.net/DTD/sodipodi-0.dtd" xmlnsInkscape="http://www.inkscape.org/namespaces/inkscape" version="1.1" id="linkedin" x="0px" y="0px" xml:space="preserve" sodipodiDocname="linkedin.svg" inkscapeVersion="0.92.5 (2060ec1f9f, 2020-04-08)" viewBox="0 0 40 40">
    <metadata id="metadata43">
      <rdf:RDF>
        <cc:Work rdfAbout="">
          <dc:format>image/svg+xml</dc:format>
          <dc:type rdfResource="http://purl.org/dc/dcmitype/StillImage"></dc:type>
          <dc:title></dc:title>
        </cc:Work>
      </rdf:RDF>
    </metadata>
    <defs id="defs41"></defs>
    <sodipodi:namedview pagecolor="#ffffff" bordercolor="#666666" borderopacity="1" objecttolerance="10" gridtolerance="10" guidetolerance="10" inkscapePageopacity="0" inkscapePageshadow="2" inkscapeWindowWidth="1366" inkscapeWindowHeight="658" id="namedview39" showgrid="false" inkscapeZoom="2.9341046" inkscapeCx="-45.155581" inkscapeCy="-17.890023" inkscapeWindowX="0" inkscapeWindowY="27" inkscapeWindowMaximized="1" inkscapeCurrentLayer="Layer_1"></sodipodi:namedview>
    <g id="g6" transform="matrix(0.08581044,0,0,0.08581044,0,0.95625669)">
      <path d="m 246.4,204.35 v -0.665 c -0.136,0.223 -0.324,0.446 -0.442,0.665 z" id="path2" inkscapeConnectorCurvature="0"></path>
      <path d="M 0,0 V 455 H 455 V 0 Z M 141.522,378.002 H 74.016 V 174.906 h 67.506 z M 107.769,147.186 h -0.446 C 84.678,147.186 70,131.585 70,112.085 70,92.157 85.107,76.998 108.211,76.998 c 23.109,0 37.31,15.159 37.752,35.087 0,19.5 -14.643,35.101 -38.194,35.101 z M 385,378.002 H 317.476 V 269.345 c 0,-27.291 -9.756,-45.92 -34.195,-45.92 -18.664,0 -29.755,12.543 -34.641,24.693 -1.776,4.34 -2.24,10.373 -2.24,16.459 v 113.426 h -67.537 c 0,0 0.905,-184.043 0,-203.096 H 246.4 v 28.779 c 8.973,-13.807 24.986,-33.547 60.856,-33.547 44.437,0 77.744,29.02 77.744,91.398 z" id="path4" inkscapeConnectorCurvature="0"></path>
    </g>
    <g id="g8" transform="translate(0,-415)"></g>
    <g id="g10" transform="translate(0,-415)"></g>
    <g id="g12" transform="translate(0,-415)"></g>
    <g id="g14" transform="translate(0,-415)"></g>
    <g id="g16" transform="translate(0,-415)"></g>
    <g id="g18" transform="translate(0,-415)"></g>
    <g id="g20" transform="translate(0,-415)"></g>
    <g id="g22" transform="translate(0,-415)"></g>
    <g id="g24" transform="translate(0,-415)"></g>
    <g id="g26" transform="translate(0,-415)"></g>
    <g id="g28" transform="translate(0,-415)"></g>
    <g id="g30" transform="translate(0,-415)"></g>
    <g id="g32" transform="translate(0,-415)"></g>
    <g id="g34" transform="translate(0,-415)"></g>
    <g id="g36" transform="translate(0,-415)"></g>
  </symbol>
  <symbol xmlnsDc="http://purl.org/dc/elements/1.1/" xmlnsCc="http://creativecommons.org/ns#" xmlnsRdf="http://www.w3.org/1999/02/22-rdf-syntax-ns#" xmlnsSvg="http://www.w3.org/2000/svg" xmlns="http://www.w3.org/2000/svg" xmlnsSodipodi="http://sodipodi.sourceforge.net/DTD/sodipodi-0.dtd" xmlnsInkscape="http://www.inkscape.org/namespaces/inkscape" version="1.1" id="github" inkscapeVersion="0.92.5 (2060ec1f9f, 2020-04-08)" sodipodiDocname="github.svg" viewBox="0 0 52.916665 52.916668">
    <defs id="defs1795"></defs>
    <sodipodi:namedview id="base" pagecolor="#ffffff" bordercolor="#666666" borderopacity="1.0" inkscapePageopacity="0.0" inkscapePageshadow="2" inkscapeZoom="0.98994949" inkscapeCx="500.82241" inkscapeCy="75.126778" inkscapeDocumentUnits="mm" inkscapeCurrentLayer="layer1" showgrid="false" units="px" inkscapeWindowWidth="1366" inkscapeWindowHeight="658" inkscapeWindowX="0" inkscapeWindowY="27" inkscapeWindowMaximized="1"></sodipodi:namedview>
    <metadata id="metadata1798">
      <rdf:RDF>
        <cc:Work rdfAbout="">
          <dc:format>image/svg+xml</dc:format>
          <dc:type rdfResource="http://purl.org/dc/dcmitype/StillImage"></dc:type>
          <dc:title></dc:title>
        </cc:Work>
      </rdf:RDF>
    </metadata>
    <g inkscapeLabel="Capa 1" inkscapeGroupmode="layer" id="layer1" transform="translate(0,-244.08332)">
      <path id="path292" d="m 26.726945,245.7335 c -14.359949,0 -25.5288081,11.16885 -25.5288081,25.5288 0,16.75329 15.1577501,23.93327 17.5510771,23.93327 1.595526,0 1.595526,-0.7978 1.595526,-1.59555 v -3.98891 c -5.584417,1.59558 -7.977744,-1.59552 -8.775507,-3.98885 0,0 0,-0.79779 -1.5955638,-2.39332 -0.7977629,-0.79779 -3.9888783,-2.39332 -0.7977629,-2.39332 2.3933267,0 3.9888527,3.19109 3.9888527,3.19109 2.393327,3.19109 5.584455,2.39331 7.179981,1.59555 0,-1.59555 1.595564,-3.19111 1.595564,-3.19111 -6.382218,-0.79777 -11.168872,-3.19109 -11.168872,-11.96663 0,-3.19109 0.797801,-5.58441 2.393327,-7.17996 0,0 -1.595526,-3.19111 0,-7.17998 0,0 3.988891,0 7.179981,3.1911 2.393327,-1.59555 10.371097,-1.59555 12.764424,0 3.191091,-3.1911 7.179969,-3.1911 7.179969,-3.1911 1.595538,5.58443 0,7.17998 0,7.17998 1.595538,1.59555 2.393327,3.98887 2.393327,7.17996 0,8.77554 -5.584444,11.16886 -11.168861,11.96663 0.797763,0.79779 1.595565,2.39332 1.595565,4.78665 v 6.38222 c 0,0.79775 0,1.59555 1.595525,1.59555 2.393327,0 17.55108,-7.17998 17.55108,-23.93327 0,-14.35995 -11.168876,-25.5288 -25.528824,-25.5288 z" inkscapeConnectorCurvature="0"></path>
    </g>
  </symbol>
  <symbol xmlnsDc="http://purl.org/dc/elements/1.1/" xmlnsCc="http://creativecommons.org/ns#" xmlnsRdf="http://www.w3.org/1999/02/22-rdf-syntax-ns#" xmlnsSvg="http://www.w3.org/2000/svg" xmlns="http://www.w3.org/2000/svg" xmlnsSodipodi="http://sodipodi.sourceforge.net/DTD/sodipodi-0.dtd" xmlnsInkscape="http://www.inkscape.org/namespaces/inkscape" version="1.1" id="react" inkscapeVersion="0.92.5 (2060ec1f9f, 2020-04-08)" sodipodiDocname="react.svg" viewBox="0 0 52.916665 52.916668">
    <defs id="defs1795"></defs>
    <sodipodi:namedview id="base" pagecolor="#ffffff" bordercolor="#666666" borderopacity="1.0" inkscapePageopacity="0.0" inkscapePageshadow="2" inkscapeZoom="0.98994949" inkscapeCx="318.48987" inkscapeCy="75.126778" inkscapeDocumentUnits="mm" inkscapeCurrentLayer="g3664" showgrid="false" units="px" inkscapeWindowWidth="1366" inkscapeWindowHeight="658" inkscapeWindowX="0" inkscapeWindowY="27" inkscapeWindowMaximized="1"></sodipodi:namedview>
    <metadata id="metadata1798">
      <rdf:RDF>
        <cc:Work rdfAbout="">
          <dc:format>image/svg+xml</dc:format>
          <dc:type rdfResource="http://purl.org/dc/dcmitype/StillImage"></dc:type>
          <dc:title></dc:title>
        </cc:Work>
      </rdf:RDF>
    </metadata>
    <g inkscapeLabel="Capa 1" inkscapeGroupmode="layer" id="layer1" transform="translate(0,-244.08332)">
      <g id="g2737" transform="matrix(3.0686084,0,0,3.0686084,0.65164915,244.95661)">
        <g id="g2681"></g>
        <g id="g2683"></g>
        <g id="g2685"></g>
        <g id="g2687"></g>
        <g id="g2689"></g>
        <g id="g2691"></g>
        <g id="g2693"></g>
        <g id="g2695"></g>
        <g id="g2697"></g>
        <g id="g2699"></g>
        <g id="g2701"></g>
        <g id="g2703"></g>
        <g id="g2705"></g>
        <g id="g2707"></g>
        <g id="g2709"></g>
        <g id="g3664" transform="matrix(0.04779701,0,0,0.04779701,1.0667531,0.08257624)">
          <g id="g3751" transform="matrix(15.538419,0,0,15.538419,-23.935407,13.009224)">
            <path id="path3738" d="m 18.9107,6.63257 v 0 q -0.36721,-0.126 -0.74042,-0.2333 0.06187,-0.25141 0.11441,-0.505 c 0.56045,-2.72064 0.194,-4.91237 -1.05739,-5.63386 -1.1998,-0.692 -3.1621,0.02952 -5.14394,1.75414 q -0.29293,0.2555 -0.57267,0.52554 -0.18727,-0.17951 -0.3811,-0.352 C 9.05257,0.3439 6.97066,-0.43316 5.72058,0.29046 4.52191,0.98436 4.16686,3.04489 4.67144,5.62322 q 0.0753,0.383 0.17,0.76179 C 4.54686,6.46868 4.26236,6.55785 3.99017,6.65272 1.55514,7.50165 0,8.83225 0,10.21231 c 0,1.42546 1.66935,2.8552 4.20575,3.722 q 0.3085,0.10494 0.62193,0.19442 -0.10179,0.408 -0.18068,0.82114 c -0.48106,2.53354 -0.10535,4.54521 1.09017,5.23484 1.23481,0.712 3.30725,-0.01985 5.32533,-1.78387 q 0.23926,-0.20917 0.47994,-0.44238 0.3029,0.29225 0.62173,0.56727 c 1.95477,1.68207 3.88531,2.36132 5.07982,1.66986 1.23369,-0.71416 1.63454,-2.87525 1.114,-5.50459 q -0.05955,-0.30124 -0.13792,-0.61481 0.21834,-0.06443 0.42772,-0.13355 C 21.28454,13.06915 23,11.65681 23,10.21232 23,8.82726 21.39478,7.48771 18.9107,6.63257 Z M 12.7284,2.75581 C 14.42646,1.278 16.01346,0.69457 16.73657,1.1116 v 0 c 0.77014,0.44421 1.06971,2.2354 0.5858,4.58441 Q 17.27479,5.92554 17.21895,6.15325 A 23.53752,23.53752 0 0 0 14.14368,5.66741 23.08128,23.08128 0 0 0 12.1995,3.24094 q 0.25838,-0.2491 0.5289,-0.48513 z m -5.93729,8.63543 q 0.312,0.60265 0.65207,1.19013 0.34692,0.59911 0.7221,1.18117 A 20.92168,20.92168 0 0 1 6.04561,13.42174 C 6.24867,12.766 6.49887,12.08443 6.79111,11.39124 Z M 6.79,9.08041 C 6.50387,8.40178 6.25907,7.73455 6.05915,7.09022 6.71539,6.94334 7.41515,6.82333 8.14431,6.73222 Q 7.7782,7.30322 7.43921,7.89099 7.10076,8.478 6.79,9.08041 Z m 0.52228,1.15552 q 0.45411,-0.94517 0.9783,-1.8542 v 2e-4 Q 8.81427,7.47336 9.40579,6.60651 c 0.684,-0.05171 1.38536,-0.07879 2.09432,-0.07879 0.71212,0 1.41437,0.02728 2.09819,0.0794 q 0.58514,0.86487 1.10818,1.76941 0.52565,0.90635 0.99153,1.84545 -0.46083,0.94817 -0.98828,1.86173 h -10e-5 q -0.52261,0.90786 -1.1034,1.7803 c -0.6824,0.04876 -1.3876,0.0739 -2.10623,0.0739 -0.71568,0 -1.41193,-0.02229 -2.08241,-0.06575 Q 8.82204,13.00221 8.29353,12.08911 7.76789,11.18148 7.31227,10.23593 Z m 8.24853,2.33862 q 0.347,-0.60182 0.667,-1.21863 v 0 a 20.86671,20.86671 0 0 1 0.77238,2.02327 20.85164,20.85164 0 0 1 -2.14552,0.36573 q 0.36468,-0.5781 0.70613,-1.17037 z m 0.65767,-3.49343 q -0.31883,-0.605 -0.66163,-1.19684 v 0 Q 15.21958,7.3017 14.85745,6.73406 c 0.7339,0.09263 1.437,0.21579 2.09717,0.36654 A 20.95909,20.95909 0 0 1 16.21847,9.08112 Z M 11.511,3.94359 a 21.01288,21.01288 0 0 1 1.3535,1.63393 Q 11.50607,5.51333 10.1461,5.57691 C 10.593,4.98765 11.0507,4.44022 11.511,3.94359 Z M 6.21284,1.14081 c 0.76953,-0.44543 2.47095,0.18973 4.26428,1.782 0.11461,0.10179 0.22974,0.20836 0.34507,0.3186 A 23.54542,23.54542 0 0 0 8.86294,5.66608 24.008,24.008 0 0 0 5.79378,6.14308 Q 5.70578,5.7908 5.6357,5.43442 v 10e-5 C 5.20339,3.22536 5.49044,1.559 6.21284,1.14081 Z M 5.09132,13.18233 Q 4.80532,13.10046 4.52354,13.0046 A 8.32371,8.32371 0 0 1 1.841,11.57955 2.03072,2.03072 0 0 1 0.98251,10.21231 c 0,-0.83742 1.24865,-1.90571 3.33117,-2.63178 Q 4.70576,7.44443 5.1053,7.33145 a 23.56455,23.56455 0 0 0 1.121,2.90478 23.92247,23.92247 0 0 0 -1.13498,2.9461 z m 5.32462,4.47867 a 8.32161,8.32161 0 0 1 -2.57467,1.61184 h -10e-5 A 2.03042,2.03042 0 0 1 6.22811,19.33351 C 5.50255,18.91515 5.20105,17.29975 5.61238,15.13316 q 0.07337,-0.38407 0.168,-0.76363 a 23.10444,23.10444 0 0 0 3.0995,0.44869 23.90954,23.90954 0 0 0 1.97431,2.43929 Q 10.64,17.46459 10.41594,17.661 Z m 1.12223,-1.11053 c -0.46569,-0.50253 -0.93015,-1.05831 -1.38383,-1.65612 q 0.66051,0.026 1.34566,0.02606 0.70326,0 1.38841,-0.03084 a 20.89425,20.89425 0 0 1 -1.35024,1.66088 z m 5.96651,1.367 a 2.03039,2.03039 0 0 1 -0.753,1.4278 c -0.72485,0.41958 -2.275,-0.12581 -3.94659,-1.56431 q -0.2875,-0.24735 -0.57837,-0.52727 a 23.08914,23.08914 0 0 0 1.9279,-2.448 22.93647,22.93647 0 0 0 3.11507,-0.48014 q 0.07024,0.284 0.12449,0.55638 v 0 a 8.32,8.32 0 0 1 0.1105,3.03556 z m 0.83417,-4.90739 h -10e-5 c -0.12571,0.04163 -0.25478,0.08184 -0.38629,0.12082 a 23.06121,23.06121 0 0 0 -1.16468,-2.91373 23.05112,23.05112 0 0 0 1.11938,-2.87128 c 0.23524,0.0682 0.46365,0.14 0.68372,0.21579 2.12842,0.73258 3.42665,1.81593 3.42665,2.65061 0,0.88916 -1.40215,2.04345 -3.67868,2.79781 z" inkscapeConnectorCurvature="0"></path>
            <path id="path3740" d="M 11.5,8.1585 A 2.05386,2.05386 0 1 1 9.44619,10.21231 2.05381,2.05381 0 0 1 11.5,8.1585" inkscapeConnectorCurvature="0"></path>
          </g>
        </g>
      </g>
    </g>
  </symbol>
</svg>