<svg width="0" height="0" class="hidden">
  <symbol xmlnsDc="http://purl.org/dc/elements/1.1/" xmlnsCc="http://creativecommons.org/ns#" xmlnsRdf="http://www.w3.org/1999/02/22-rdf-syntax-ns#" xmlnsSvg="http://www.w3.org/2000/svg" xmlns="http://www.w3.org/2000/svg" xmlnsSodipodi="http://sodipodi.sourceforge.net/DTD/sodipodi-0.dtd" xmlnsInkscape="http://www.inkscape.org/namespaces/inkscape" version="1.1" id="code" inkscapeVersion="0.92.5 (2060ec1f9f, 2020-04-08)" sodipodiDocname="code.svg" viewBox="0 0 13.229166 10.583334">
    <defs id="defs1795"></defs>
    <sodipodi:namedview id="base" pagecolor="#ffffff" bordercolor="#666666" borderopacity="1.0" inkscapePageopacity="0.0" inkscapePageshadow="2" inkscapeZoom="11.313709" inkscapeCx="16.64827" inkscapeCy="19.878781" inkscapeDocumentUnits="mm" inkscapeCurrentLayer="g5224" showgrid="false" units="px" inkscapeWindowWidth="1366" inkscapeWindowHeight="658" inkscapeWindowX="0" inkscapeWindowY="27" inkscapeWindowMaximized="1"></sodipodi:namedview>
    <metadata id="metadata1798">
      <rdf:RDF>
        <cc:Work rdfAbout="">
          <dc:format>image/svg+xml</dc:format>
          <dc:type rdfResource="http://purl.org/dc/dcmitype/StillImage"></dc:type>
          <dc:title></dc:title>
        </cc:Work>
      </rdf:RDF>
    </metadata>
    <g inkscapeLabel="Capa 1" inkscapeGroupmode="layer" id="layer1" transform="translate(0,-286.41666)">
      <g id="g2737" transform="matrix(3.0686084,0,0,3.0686084,0.65164915,244.95661)">
        <g id="g2681"></g>
        <g id="g2683"></g>
        <g id="g2685"></g>
        <g id="g2687"></g>
        <g id="g2689"></g>
        <g id="g2691"></g>
        <g id="g2693"></g>
        <g id="g2695"></g>
        <g id="g2697"></g>
        <g id="g2699"></g>
        <g id="g2701"></g>
        <g id="g2703"></g>
        <g id="g2705"></g>
        <g id="g2707"></g>
        <g id="g2709"></g>
        <g id="g3664" transform="matrix(0.04779701,0,0,0.04779701,1.0667531,0.08257624)">
          <g id="g5224" transform="matrix(0.88420274,0,0,0.88420274,-7.5437794,47.740214)">
            <path d="m 14.872248,341.02797 28.672171,0.18036 v 2.7951 h -28.67217 z" id="path946" inkscapeConnectorCurvature="0" sodipodiNodetypes="ccccc"></path>
            <path d="m -9.6523748,281.47462 1.217215,-2.16394 22.4057688,11.76641 -22.8115071,11.72132 -0.9016405,-2.16394 18.7992048,-9.64754 z" id="path948" inkscapeConnectorCurvature="0" sodipodiNodetypes="ccccccc"></path>
            <path d="m -20.059883,268.97401 h 98.665239 v 63.2664 h -98.700284 l 0.04508,-60.40988 2.380533,-0.004 -0.07841,57.86069 93.886347,0.008 0.02,-57.86869 -96.208475,0.004 z" id="path944" inkscapeConnectorCurvature="0" sodipodiNodetypes="ccccccccccc"></path>
            <g transform="matrix(4.9171275,0,0,5.6627829,-75.052871,285.91398)" id="g4456"></g>
          </g>
        </g>
      </g>
    </g>
  </symbol>
  <symbol xmlnsDc="http://purl.org/dc/elements/1.1/" xmlnsCc="http://creativecommons.org/ns#" xmlnsRdf="http://www.w3.org/1999/02/22-rdf-syntax-ns#" xmlnsSvg="http://www.w3.org/2000/svg" xmlns="http://www.w3.org/2000/svg" xmlnsSodipodi="http://sodipodi.sourceforge.net/DTD/sodipodi-0.dtd" xmlnsInkscape="http://www.inkscape.org/namespaces/inkscape" version="1.1" id="github" inkscapeVersion="0.92.5 (2060ec1f9f, 2020-04-08)" sodipodiDocname="github.svg" viewBox="0 0 52.916665 52.916668">
    <defs id="defs1795"></defs>
    <sodipodi:namedview id="base" pagecolor="#ffffff" bordercolor="#666666" borderopacity="1.0" inkscapePageopacity="0.0" inkscapePageshadow="2" inkscapeZoom="0.98994949" inkscapeCx="500.82241" inkscapeCy="75.126778" inkscapeDocumentUnits="mm" inkscapeCurrentLayer="layer1" showgrid="false" units="px" inkscapeWindowWidth="1366" inkscapeWindowHeight="658" inkscapeWindowX="0" inkscapeWindowY="27" inkscapeWindowMaximized="1"></sodipodi:namedview>
    <metadata id="metadata1798">
      <rdf:RDF>
        <cc:Work rdfAbout="">
          <dc:format>image/svg+xml</dc:format>
          <dc:type rdfResource="http://purl.org/dc/dcmitype/StillImage"></dc:type>
          <dc:title></dc:title>
        </cc:Work>
      </rdf:RDF>
    </metadata>
    <g inkscapeLabel="Capa 1" inkscapeGroupmode="layer" id="layer1" transform="translate(0,-244.08332)">
      <path id="path292" d="m 26.726945,245.7335 c -14.359949,0 -25.5288081,11.16885 -25.5288081,25.5288 0,16.75329 15.1577501,23.93327 17.5510771,23.93327 1.595526,0 1.595526,-0.7978 1.595526,-1.59555 v -3.98891 c -5.584417,1.59558 -7.977744,-1.59552 -8.775507,-3.98885 0,0 0,-0.79779 -1.5955638,-2.39332 -0.7977629,-0.79779 -3.9888783,-2.39332 -0.7977629,-2.39332 2.3933267,0 3.9888527,3.19109 3.9888527,3.19109 2.393327,3.19109 5.584455,2.39331 7.179981,1.59555 0,-1.59555 1.595564,-3.19111 1.595564,-3.19111 -6.382218,-0.79777 -11.168872,-3.19109 -11.168872,-11.96663 0,-3.19109 0.797801,-5.58441 2.393327,-7.17996 0,0 -1.595526,-3.19111 0,-7.17998 0,0 3.988891,0 7.179981,3.1911 2.393327,-1.59555 10.371097,-1.59555 12.764424,0 3.191091,-3.1911 7.179969,-3.1911 7.179969,-3.1911 1.595538,5.58443 0,7.17998 0,7.17998 1.595538,1.59555 2.393327,3.98887 2.393327,7.17996 0,8.77554 -5.584444,11.16886 -11.168861,11.96663 0.797763,0.79779 1.595565,2.39332 1.595565,4.78665 v 6.38222 c 0,0.79775 0,1.59555 1.595525,1.59555 2.393327,0 17.55108,-7.17998 17.55108,-23.93327 0,-14.35995 -11.168876,-25.5288 -25.528824,-25.5288 z" inkscapeConnectorCurvature="0"></path>
    </g>
  </symbol>
  <symbol xmlnsDc="http://purl.org/dc/elements/1.1/" xmlnsCc="http://creativecommons.org/ns#" xmlnsRdf="http://www.w3.org/1999/02/22-rdf-syntax-ns#" xmlnsSvg="http://www.w3.org/2000/svg" xmlns="http://www.w3.org/2000/svg" xmlnsSodipodi="http://sodipodi.sourceforge.net/DTD/sodipodi-0.dtd" xmlnsInkscape="http://www.inkscape.org/namespaces/inkscape" version="1.1" id="grow" inkscapeVersion="0.92.5 (2060ec1f9f, 2020-04-08)" sodipodiDocname="grow.svg" viewBox="0 0 13.229166 10.583334">
    <defs id="defs1795"></defs>
    <sodipodi:namedview id="base" pagecolor="#ffffff" bordercolor="#666666" borderopacity="1.0" inkscapePageopacity="0.0" inkscapePageshadow="2" inkscapeZoom="89.599999" inkscapeCx="41.30314" inkscapeCy="38.052853" inkscapeDocumentUnits="mm" inkscapeCurrentLayer="g3664" showgrid="false" units="px" inkscapeWindowWidth="1366" inkscapeWindowHeight="658" inkscapeWindowX="0" inkscapeWindowY="27" inkscapeWindowMaximized="1"></sodipodi:namedview>
    <metadata id="metadata1798">
      <rdf:RDF>
        <cc:Work rdfAbout="">
          <dc:format>image/svg+xml</dc:format>
          <dc:type rdfResource="http://purl.org/dc/dcmitype/StillImage"></dc:type>
          <dc:title></dc:title>
        </cc:Work>
      </rdf:RDF>
    </metadata>
    <g inkscapeLabel="Capa 1" inkscapeGroupmode="layer" id="layer1" transform="translate(0,-286.41666)">
      <g id="g2737" transform="matrix(3.0686084,0,0,3.0686084,0.65164915,244.95661)">
        <g id="g2681"></g>
        <g id="g2683"></g>
        <g id="g2685"></g>
        <g id="g2687"></g>
        <g id="g2689"></g>
        <g id="g2691"></g>
        <g id="g2693"></g>
        <g id="g2695"></g>
        <g id="g2697"></g>
        <g id="g2699"></g>
        <g id="g2701"></g>
        <g id="g2703"></g>
        <g id="g2705"></g>
        <g id="g2707"></g>
        <g id="g2709"></g>
        <g id="g3664" transform="matrix(0.04779701,0,0,0.04779701,1.0667531,0.08257624)">
          <path d="m -23.109747,315.24128 h 21.7459555 v 37.07134 H -23.116865 v -34.96437 l 1.944944,-0.0571 -0.06575,33.39855 18.0231625,-0.17084 0.056945,-33.34143 -19.9592995,0.17084 z" id="path3032" inkscapeConnectorCurvature="0" sodipodiNodetypes="ccccccccccc"></path>
          <path d="M 6.2996706,297.04089 H 28.045627 v 55.27173 H 6.2925526 l 0.02848,-53.52553 1.5178479,2.6e-4 0.1335582,52.01663 18.3933077,-0.19777 -0.02847,-51.70368 -20.0162458,-0.11544 z" id="path3032-3" inkscapeConnectorCurvature="0" sodipodiNodetypes="ccccccccccc"></path>
          <path d="m 35.70908,283.18927 h 21.74596 v 69.12335 H 35.70197 l 10e-5,-67.14553 1.904574,-0.0161 -0.08238,65.47376 17.837076,-0.0539 0.07225,-65.45613 -19.731519,0.0524 z" id="path3032-3-5" inkscapeConnectorCurvature="0" sodipodiNodetypes="ccccccccccc"></path>
        </g>
      </g>
    </g>
  </symbol>
  <symbol id="international-business" enable-background="new 0 0 512 512" xmlns="http://www.w3.org/2000/svg" viewBox="0 0 512 512">
    <g>
      <g>
        <path d="m512 348.29c0-67.987-55.249-123.85-123.85-123.85-41.498 0-78.292 20.518-100.777 51.939h-156.178v-30.014c0-9.603-7.812-17.415-17.415-17.415h-35.474c-9.603 0-17.415 7.812-17.415 17.415v30.014h-8.534c-20.632 0-37.417-16.785-37.417-37.417v-55.847c0-20.632 16.786-37.417 37.417-37.417h354.298c20.632 0 37.418 16.785 37.418 37.417v33.807c0 4.126 3.344 7.47 7.47 7.47s7.47-3.344 7.47-7.47v-33.807c0-28.869-23.488-52.357-52.358-52.357h-77.534v-32.402c0-32.254-26.241-58.495-58.495-58.495h-82.239c-32.255 0-58.495 26.241-58.495 58.495v32.403h-77.535c-28.869-.001-52.357 23.487-52.357 52.356v221.529c0 28.87 23.488 52.358 52.357 52.358h238.752c4.126 0 7.47-3.344 7.47-7.47s-3.344-7.47-7.47-7.47h-238.752c-20.632 0-37.417-16.786-37.417-37.418v-129.11c9.512 9.73 22.768 15.785 37.417 15.785h8.534v7.593c0 19.382 15.769 35.151 35.152 35.151s35.152-15.769 35.152-35.151v-7.593h147.012c-8.879 17.065-13.906 36.441-13.906 56.971 0 68.004 55.266 123.85 123.85 123.85 68.525 0 123.849-55.796 123.849-123.85zm-227.866-217.532h-109.255v-32.402c0-7.449 6.06-13.508 13.508-13.508h82.239c7.449 0 13.508 6.06 13.508 13.508zm-139.302-32.402c0-24.017 19.539-43.555 43.555-43.555h82.239c24.017 0 43.555 19.539 43.555 43.555v32.403h-15.107v-32.403c0-15.686-12.762-28.448-28.448-28.448h-82.239c-15.686 0-28.448 12.762-28.448 28.448v32.403h-15.107zm-66.526 145.534h35.474c1.365 0 2.475 1.111 2.475 2.475v11.452h-40.424v-11.452c0-1.365 1.111-2.475 2.475-2.475zm37.949 55.022c0 11.145-9.067 20.211-20.212 20.211s-20.212-9.066-20.212-20.211v-26.156h40.423v26.156zm369.438 97.782c-9.525-2.698-21.429-4.923-34.986-6.592 4.985-26.767 4.994-56.809 0-83.625 13.557-1.669 25.461-3.894 34.986-6.592 7.27 14.59 11.368 31.026 11.368 48.404-.001 17.379-4.099 33.815-11.368 48.405zm-53.428-103.379c-11.506.941-23.875 1.518-36.645 1.681v-54.341c19.116 6.459 31.11 33.253 36.645 52.66zm-51.585-52.705v54.386c-12.764-.163-25.126-.739-36.628-1.679 7.875-27.707 21.384-47.699 36.628-52.707zm-36.654 162.656c11.509-.941 23.881-1.519 36.655-1.681v54.374c-15.234-4.986-28.774-24.87-36.655-52.693zm51.594 52.659v-54.341c12.77.163 25.139.74 36.645 1.681-5.533 19.4-17.526 46.2-36.645 52.66zm0-69.282v-76.705c14.1-.171 27.63-.824 40.143-1.906 4.972 25.698 5.012 54.613 0 80.517-12.513-1.082-26.043-1.736-40.143-1.906zm82.182-100.115c-8.454 2.12-18.789 3.903-30.409 5.28-4.934-18.386-12.239-34.01-21.213-45.572 21.053 7.871 39.036 22.079 51.622 40.292zm-127.779-40.255c-8.921 11.508-16.202 27.078-21.128 45.534-11.616-1.378-21.947-3.16-30.397-5.279 12.567-18.185 30.514-32.376 51.525-40.255zm-59.415 53.614c9.526 2.698 21.431 4.923 34.991 6.592-1.578 8.517-2.693 17.504-3.28 26.878-.258 4.117 2.871 7.665 6.988 7.922 4.109.254 7.664-2.87 7.923-6.989.573-9.144 1.708-17.947 3.322-26.257 12.509 1.081 26.034 1.734 40.128 1.905v76.705c-14.095.171-27.619.824-40.129 1.905-1.263-6.528-2.243-13.358-2.879-20.442-.369-4.109-4.001-7.152-8.108-6.773-4.109.369-7.141 3.999-6.773 8.107.634 7.06 1.594 13.969 2.851 20.657-13.578 1.669-25.499 3.896-35.035 6.598-7.27-14.59-11.368-31.026-11.368-48.404.002-17.379 4.1-33.815 11.369-48.404zm7.891 110.165c8.472-2.125 18.832-3.91 30.482-5.289 4.266 15.867 11.017 32.535 21.132 45.578-21.05-7.872-39.03-22.078-51.614-40.289zm127.681 40.292c8.974-11.562 16.279-27.186 21.213-45.572 11.62 1.378 21.955 3.16 30.409 5.28-12.586 18.213-30.569 32.421-51.622 40.292z"></path>
      </g>
    </g>
  </symbol>
  <symbol xmlnsDc="http://purl.org/dc/elements/1.1/" xmlnsCc="http://creativecommons.org/ns#" xmlnsRdf="http://www.w3.org/1999/02/22-rdf-syntax-ns#" xmlnsSvg="http://www.w3.org/2000/svg" xmlns="http://www.w3.org/2000/svg" xmlnsSodipodi="http://sodipodi.sourceforge.net/DTD/sodipodi-0.dtd" xmlnsInkscape="http://www.inkscape.org/namespaces/inkscape" version="1.1" id="linkedin" x="0px" y="0px" xml:space="preserve" sodipodiDocname="linkedin.svg" inkscapeVersion="0.92.5 (2060ec1f9f, 2020-04-08)" viewBox="0 0 40 40">
    <metadata id="metadata43">
      <rdf:RDF>
        <cc:Work rdfAbout="">
          <dc:format>image/svg+xml</dc:format>
          <dc:type rdfResource="http://purl.org/dc/dcmitype/StillImage"></dc:type>
          <dc:title></dc:title>
        </cc:Work>
      </rdf:RDF>
    </metadata>
    <defs id="defs41"></defs>
    <sodipodi:namedview pagecolor="#ffffff" bordercolor="#666666" borderopacity="1" objecttolerance="10" gridtolerance="10" guidetolerance="10" inkscapePageopacity="0" inkscapePageshadow="2" inkscapeWindowWidth="1366" inkscapeWindowHeight="658" id="namedview39" showgrid="false" inkscapeZoom="2.9341046" inkscapeCx="-45.155581" inkscapeCy="-17.890023" inkscapeWindowX="0" inkscapeWindowY="27" inkscapeWindowMaximized="1" inkscapeCurrentLayer="Layer_1"></sodipodi:namedview>
    <g id="g6" transform="matrix(0.08581044,0,0,0.08581044,0,0.95625669)">
      <path d="m 246.4,204.35 v -0.665 c -0.136,0.223 -0.324,0.446 -0.442,0.665 z" id="path2" inkscapeConnectorCurvature="0"></path>
      <path d="M 0,0 V 455 H 455 V 0 Z M 141.522,378.002 H 74.016 V 174.906 h 67.506 z M 107.769,147.186 h -0.446 C 84.678,147.186 70,131.585 70,112.085 70,92.157 85.107,76.998 108.211,76.998 c 23.109,0 37.31,15.159 37.752,35.087 0,19.5 -14.643,35.101 -38.194,35.101 z M 385,378.002 H 317.476 V 269.345 c 0,-27.291 -9.756,-45.92 -34.195,-45.92 -18.664,0 -29.755,12.543 -34.641,24.693 -1.776,4.34 -2.24,10.373 -2.24,16.459 v 113.426 h -67.537 c 0,0 0.905,-184.043 0,-203.096 H 246.4 v 28.779 c 8.973,-13.807 24.986,-33.547 60.856,-33.547 44.437,0 77.744,29.02 77.744,91.398 z" id="path4" inkscapeConnectorCurvature="0"></path>
    </g>
    <g id="g8" transform="translate(0,-415)"></g>
    <g id="g10" transform="translate(0,-415)"></g>
    <g id="g12" transform="translate(0,-415)"></g>
    <g id="g14" transform="translate(0,-415)"></g>
    <g id="g16" transform="translate(0,-415)"></g>
    <g id="g18" transform="translate(0,-415)"></g>
    <g id="g20" transform="translate(0,-415)"></g>
    <g id="g22" transform="translate(0,-415)"></g>
    <g id="g24" transform="translate(0,-415)"></g>
    <g id="g26" transform="translate(0,-415)"></g>
    <g id="g28" transform="translate(0,-415)"></g>
    <g id="g30" transform="translate(0,-415)"></g>
    <g id="g32" transform="translate(0,-415)"></g>
    <g id="g34" transform="translate(0,-415)"></g>
    <g id="g36" transform="translate(0,-415)"></g>
  </symbol>
  <symbol version="1.1" id="network" xmlns="http://www.w3.org/2000/svg" xmlns:xlink="http://www.w3.org/1999/xlink" x="0px" y="0px" xml:space="preserve" viewBox="0 0 480 480">
    <g>
      <g>
        <path d="M277.648,97.336C288.888,87.088,296,72.376,296,56c0-30.872-25.12-56-56-56s-56,25.128-56,56
			c0,16.376,7.112,31.088,18.352,41.336C169.16,103.736,144,132.968,144,168v32c0,4.424,3.584,8,8,8h176c4.416,0,8-3.576,8-8v-32
			C336,132.968,310.84,103.736,277.648,97.336z M200,56c0-22.056,17.944-40,40-40c22.056,0,40,17.944,40,40
			c0,22.056-17.944,40-40,40C217.944,96,200,78.056,200,56z M320,192H160v-24c0-30.872,25.12-56,56-56h48c30.88,0,56,25.128,56,56
			V192z"></path>
      </g>
    </g>
    <g>
      <g>
        <path d="M133.648,369.336C144.888,359.088,152,344.376,152,328c0-30.872-25.12-56-56-56s-56,25.128-56,56
			c0,16.376,7.112,31.088,18.352,41.336C25.16,375.736,0,404.968,0,440v32c0,4.424,3.584,8,8,8h176c4.416,0,8-3.576,8-8v-32
			C192,404.968,166.84,375.736,133.648,369.336z M56,328c0-22.056,17.944-40,40-40c22.056,0,40,17.944,40,40
			c0,22.056-17.944,40-40,40C73.944,368,56,350.056,56,328z M176,464H16v-24c0-30.872,25.12-56,56-56h48c30.88,0,56,25.128,56,56
			V464z"></path>
      </g>
    </g>
    <g>
      <g>
        <path d="M421.648,369.336C432.888,359.088,440,344.376,440,328c0-30.872-25.12-56-56-56s-56,25.128-56,56
			c0,16.376,7.112,31.088,18.352,41.336C313.16,375.736,288,404.968,288,440v32c0,4.424,3.584,8,8,8h176c4.416,0,8-3.576,8-8v-32
			C480,404.968,454.84,375.736,421.648,369.336z M344,328c0-22.056,17.944-40,40-40c22.056,0,40,17.944,40,40
			c0,22.056-17.944,40-40,40C361.944,368,344,350.056,344,328z M464,464H304v-24c0-30.872,25.12-56,56-56h48
			c30.88,0,56,25.128,56,56V464z"></path>
      </g>
    </g>
    <g>
      <g>
        <path d="M48.152,255.744l-15.984,0.624c0.216,5.512,0.656,11.096,1.312,16.584l15.888-1.904
			C48.76,265.984,48.352,260.832,48.152,255.744z"></path>
      </g>
    </g>
    <g>
      <g>
        <path d="M33.472,223.176c-0.648,5.456-1.096,11.032-1.304,16.576l15.984,0.624c0.2-5.12,0.608-10.264,1.208-15.312L33.472,223.176
			z"></path>
      </g>
    </g>
    <g>
      <g>
        <path d="M113.912,82.544c-4.376,3.336-8.688,6.904-12.824,10.616l10.696,11.904c3.808-3.424,7.784-6.72,11.824-9.792
			L113.912,82.544z"></path>
      </g>
    </g>
    <g>
      <g>
        <path d="M51.736,159.44c-2.352,5-4.528,10.152-6.48,15.344l14.976,5.624c1.8-4.784,3.808-9.536,5.976-14.136L51.736,159.44z"></path>
      </g>
    </g>
    <g>
      <g>
        <path d="M40.024,190.584c-1.52,5.288-2.84,10.736-3.936,16.16l15.688,3.16c1.008-5,2.224-10.024,3.632-14.912L40.024,190.584z"></path>
      </g>
    </g>
    <g>
      <g>
        <path d="M89.176,104.776c-3.832,4.032-7.512,8.232-10.968,12.496l12.44,10.064c3.184-3.936,6.592-7.824,10.128-11.544
			L89.176,104.776z"></path>
      </g>
    </g>
    <g>
      <g>
        <path d="M141.864,64.568c-4.84,2.584-9.664,5.424-14.352,8.44l8.672,13.456c4.32-2.792,8.768-5.408,13.216-7.784L141.864,64.568z"></path>
      </g>
    </g>
    <g>
      <g>
        <path d="M68.272,130.6c-3.128,4.568-6.104,9.304-8.848,14.096l13.88,7.952c2.528-4.416,5.28-8.792,8.168-13L68.272,130.6z"></path>
      </g>
    </g>
    <g>
      <g>
        <path d="M202.096,436.256l-3.16,15.688c5.384,1.088,10.92,1.96,16.448,2.608l1.856-15.888
			C212.16,438.064,207.056,437.256,202.096,436.256z"></path>
      </g>
    </g>
    <g>
      <g>
        <path d="M278.408,436.16c-4.968,1.008-10.064,1.832-15.168,2.456l1.928,15.888c5.52-0.672,11.04-1.568,16.416-2.656
			L278.408,436.16z"></path>
      </g>
    </g>
    <g>
      <g>
        <path d="M247.944,439.84c-5.112,0.2-10.28,0.224-15.36,0.024l-0.632,15.984c2.664,0.112,5.352,0.16,8.072,0.16
			c2.864-0.016,5.72-0.072,8.56-0.184L247.944,439.84z"></path>
      </g>
    </g>
    <g>
      <g>
        <path d="M378.944,93.224l-10.688,11.904c3.808,3.424,7.504,7.024,11,10.704l11.616-11
			C387.08,100.832,383.072,96.928,378.944,93.224z"></path>
      </g>
    </g>
    <g>
      <g>
        <path d="M401.824,117.32l-12.44,10.064c3.192,3.944,6.28,8.096,9.176,12.32l13.192-9.048
			C408.616,126.088,405.28,121.6,401.824,117.32z"></path>
      </g>
    </g>
    <g>
      <g>
        <path d="M447.832,239.776l-15.984,0.624c0.104,2.52,0.152,5.064,0.152,7.6c0,2.6-0.048,5.184-0.152,7.768l15.984,0.624
			c0.112-2.784,0.168-5.584,0.168-8.408C448,245.24,447.944,242.496,447.832,239.776z"></path>
      </g>
    </g>
    <g>
      <g>
        <path d="M420.608,144.736l-13.888,7.96c2.536,4.424,4.92,9.008,7.096,13.616l14.472-6.832
			C425.936,154.488,423.352,149.528,420.608,144.736z"></path>
      </g>
    </g>
    <g>
      <g>
        <path d="M434.76,174.816l-14.976,5.632c1.792,4.768,3.408,9.672,4.816,14.568l15.384-4.408
			C438.464,185.296,436.704,179.984,434.76,174.816z"></path>
      </g>
    </g>
    <g>
      <g>
        <path d="M443.904,206.776l-15.68,3.152c1.008,5.008,1.824,10.112,2.416,15.168l15.888-1.888
			C445.88,217.736,445,212.208,443.904,206.776z"></path>
      </g>
    </g>
    <g>
      <g>
        <path d="M352.536,73.04l-8.664,13.456c4.272,2.752,8.496,5.72,12.568,8.832l9.712-12.728
			C361.744,79.232,357.168,76.024,352.536,73.04z"></path>
      </g>
    </g>
    <g>
      <g>
        <path d="M323.232,57.328l-6.408,14.656c4.664,2.04,9.304,4.296,13.808,6.712L338.2,64.6
			C333.328,61.976,328.288,59.528,323.232,57.328z"></path>
      </g>
    </g>
    <g></g>
    <g></g>
    <g></g>
    <g></g>
    <g></g>
    <g></g>
    <g></g>
    <g></g>
    <g></g>
    <g></g>
    <g></g>
    <g></g>
    <g></g>
    <g></g>
    <g></g>
  </symbol>
  <symbol xmlnsDc="http://purl.org/dc/elements/1.1/" xmlnsCc="http://creativecommons.org/ns#" xmlnsRdf="http://www.w3.org/1999/02/22-rdf-syntax-ns#" xmlnsSvg="http://www.w3.org/2000/svg" xmlns="http://www.w3.org/2000/svg" xmlnsSodipodi="http://sodipodi.sourceforge.net/DTD/sodipodi-0.dtd" xmlnsInkscape="http://www.inkscape.org/namespaces/inkscape" version="1.1" id="software" inkscapeVersion="0.92.5 (2060ec1f9f, 2020-04-08)" sodipodiDocname="software.svg" viewBox="0 0 13.229166 10.583334">
    <defs id="defs1795"></defs>
    <sodipodi:namedview id="base" pagecolor="#ffffff" bordercolor="#666666" borderopacity="1.0" inkscapePageopacity="0.0" inkscapePageshadow="2" inkscapeZoom="11.2" inkscapeCx="17.818144" inkscapeCy="28.415865" inkscapeDocumentUnits="mm" inkscapeCurrentLayer="g3664" showgrid="false" units="px" inkscapeWindowWidth="1366" inkscapeWindowHeight="658" inkscapeWindowX="0" inkscapeWindowY="27" inkscapeWindowMaximized="1"></sodipodi:namedview>
    <metadata id="metadata1798">
      <rdf:RDF>
        <cc:Work rdfAbout="">
          <dc:format>image/svg+xml</dc:format>
          <dc:type rdfResource="http://purl.org/dc/dcmitype/StillImage"></dc:type>
          <dc:title></dc:title>
        </cc:Work>
      </rdf:RDF>
    </metadata>
    <g inkscapeLabel="Capa 1" inkscapeGroupmode="layer" id="layer1" transform="translate(0,-286.41666)">
      <g id="g2737" transform="matrix(3.0686084,0,0,3.0686084,0.65164915,244.95661)">
        <g id="g2681"></g>
        <g id="g2683"></g>
        <g id="g2685"></g>
        <g id="g2687"></g>
        <g id="g2689"></g>
        <g id="g2691"></g>
        <g id="g2693"></g>
        <g id="g2695"></g>
        <g id="g2697"></g>
        <g id="g2699"></g>
        <g id="g2701"></g>
        <g id="g2703"></g>
        <g id="g2705"></g>
        <g id="g2707"></g>
        <g id="g2709"></g>
        <g id="g3664" transform="matrix(0.04779701,0,0,0.04779701,1.0667531,0.08257624)">
          <path sodipodiNodetypes="ccccc" inkscapeConnectorCurvature="0" id="path946" d="m 5.8495728,349.02181 25.3520162,0.15948 v 2.47143 H 5.8495789 Z"></path>
          <path sodipodiNodetypes="ccccccccccc" inkscapeConnectorCurvature="0" id="path944" d="m -25.037507,285.31149 h 87.240072 v 55.94033 h -87.271061 l 0.01945,-53.42768 2.019882,-0.0406 0.03581,51.21085 83.014563,0.007 0.01767,-51.16765 -85.087929,-0.01 z"></path>
          <rect y="303.77463" x="-13.964109" height="2.2166271" width="24.338079" id="rect2317"></rect>
          <rect y="310.93442" x="-13.964109" height="2.2166271" width="24.338079" id="rect2317-3"></rect>
          <rect y="318.09424" x="-13.964109" height="2.2166271" width="24.338079" id="rect2317-3-6"></rect>
          <rect y="325.11835" x="21.659313" height="2.2166271" width="24.338079" id="rect2317-3-6-7"></rect>
          <rect transform="rotate(-90)" y="19.442688" x="-327.33499" height="2.2166271" width="29.653236" id="rect2317-3-6-7-5"></rect>
          <path sodipodiNodetypes="ccccccccccccc" inkscapeConnectorCurvature="0" id="path2379" d="m 23.713775,321.89746 4.330797,-11.97634 3.83577,5.66834 5.037619,-9.08534 5.689994,4.98443 8.390594,-16.62722 1.255114,0.72078 -9.283504,18.36685 -5.69452,-5.65544 -5.409795,10.15412 -3.651059,-5.78483 -3.438623,9.25848 z"></path>
        </g>
      </g>
    </g>
  </symbol>
  <symbol xmlnsDc="http://purl.org/dc/elements/1.1/" xmlnsCc="http://creativecommons.org/ns#" xmlnsRdf="http://www.w3.org/1999/02/22-rdf-syntax-ns#" xmlnsSvg="http://www.w3.org/2000/svg" xmlns="http://www.w3.org/2000/svg" xmlns:xlink="http://www.w3.org/1999/xlink" xmlnsSodipodi="http://sodipodi.sourceforge.net/DTD/sodipodi-0.dtd" xmlnsInkscape="http://www.inkscape.org/namespaces/inkscape" version="1.1" id="universidad" inkscapeVersion="0.92.5 (2060ec1f9f, 2020-04-08)" sodipodiDocname="universidad.svg" viewBox="0 0 13.229166 13.229167">
    <defs id="defs1795">
      <linearGradient inkscapeCollect="always" id="linearGradient4336">
        <stop offset="0" id="stop4332"></stop>
        <stop offset="1" id="stop4334"></stop>
      </linearGradient>
      <linearGradient inkscapeCollect="always" xlink:href="#linearGradient4336" id="linearGradient4338" x1="12.292211" y1="30.056147" x2="58.596275" y2="30.056147" gradientUnits="userSpaceOnUse"></linearGradient>
    </defs>
    <sodipodi:namedview id="base" pagecolor="#ffffff" bordercolor="#666666" borderopacity="1.0" inkscapePageopacity="0.0" inkscapePageshadow="2" inkscapeZoom="44.8" inkscapeCx="8.0945476" inkscapeCy="6.9647702" inkscapeDocumentUnits="mm" inkscapeCurrentLayer="g3764" showgrid="false" units="px" inkscapeWindowWidth="1366" inkscapeWindowHeight="658" inkscapeWindowX="0" inkscapeWindowY="27" inkscapeWindowMaximized="1"></sodipodi:namedview>
    <metadata id="metadata1798">
      <rdf:RDF>
        <cc:Work rdfAbout="">
          <dc:format>image/svg+xml</dc:format>
          <dc:type rdfResource="http://purl.org/dc/dcmitype/StillImage"></dc:type>
          <dc:title></dc:title>
        </cc:Work>
      </rdf:RDF>
    </metadata>
    <g inkscapeLabel="Capa 1" inkscapeGroupmode="layer" id="layer1" transform="translate(0,-283.77082)">
      <g id="g2737" transform="matrix(3.0686084,0,0,3.0686084,0.65164915,244.95661)">
        <g id="g2681"></g>
        <g id="g2683"></g>
        <g id="g2685"></g>
        <g id="g2687"></g>
        <g id="g2689"></g>
        <g id="g2691"></g>
        <g id="g2693"></g>
        <g id="g2695"></g>
        <g id="g2697"></g>
        <g id="g2699"></g>
        <g id="g2701"></g>
        <g id="g2703"></g>
        <g id="g2705"></g>
        <g id="g2707"></g>
        <g id="g2709"></g>
        <g id="g3664" transform="matrix(0.04779701,0,0,0.04779701,1.0667531,0.08257624)">
          <g transform="matrix(1.8696294,0,0,2.2328137,-48.611682,241.48232)" id="g4407">
            <g id="g2299" transform="translate(0.51688982)">
              <g id="g3764">
                <path d="M 11.082412,25.044741 35.018725,12.144197 59.93339,25.508185 34.957809,37.979539 18.245274,28.925693 l 0.0024,16.551961 -1.038263,-0.0044 0.06155,-17.068445 -5.230602,-2.809354 0.90012,-0.52086 4.77806,2.599666 19.016894,-2.863144 0.08921,0.84569 -18.370626,2.583883 16.558264,8.438766 L 57.462948,25.45416 35.012307,13.427031 12.040386,25.59548 Z" id="path1631" inkscapeConnectorCurvature="0" sodipodiNodetypes="ccccccccccccccccccc"></path>
                <path d="m 48.785752,32.853278 0,7.421603 -13.462447,7.727649 -13.675653,-8.441755 v -6.758506 l 1.125413,0.692738 v 5.441748 l 12.567709,7.748511 12.284223,-7.087054 0.176509,-6.100265 z" id="path1633" inkscapeConnectorCurvature="0" sodipodiNodetypes="ccccccccccc"></path>
              </g>
            </g>
          </g>
        </g>
      </g>
    </g>
  </symbol>
  <symbol xmlns="http://www.w3.org/2000/svg" viewBox="0 -25 424 424" id="web-programming">
    <path d="m167.289062 272.132812c-1.601562 0-3.214843-.550781-4.53125-1.671874l-45.296874-38.570313c-1.5625-1.332031-2.460938-3.277344-2.460938-5.332031 0-2.050782.902344-3.996094 2.460938-5.328125l45.296874-38.570313c2.941407-2.507812 7.359376-2.152344 9.867188.789063 2.503906 2.945312 2.152344 7.363281-.792969 9.867187l-39.035156 33.242188 39.035156 33.242187c2.945313 2.507813 3.296875 6.925781.792969 9.867188-1.386719 1.628906-3.355469 2.464843-5.335938 2.464843zm0 0"></path>
    <path d="m256.710938 272.132812c-1.980469 0-3.949219-.835937-5.332032-2.464843-2.507812-2.941407-2.152344-7.359375.789063-9.867188l39.035156-33.242187-39.035156-33.242188c-2.941407-2.503906-3.296875-6.921875-.789063-9.867187 2.503906-2.941407 6.925782-3.296875 9.863282-.789063l45.296874 38.570313c1.5625 1.332031 2.460938 3.277343 2.460938 5.328125 0 2.054687-.898438 4-2.460938 5.332031l-45.296874 38.570313c-1.316407 1.121093-2.929688 1.671874-4.53125 1.671874zm0 0"></path>
    <path d="m195.964844 301.0625c-.480469 0-.964844-.050781-1.453125-.152344-3.78125-.796875-6.203125-4.511718-5.40625-8.292968l28.230469-134.035157c.796874-3.78125 4.507812-6.203125 8.292968-5.40625 3.78125.796875 6.203125 4.507813 5.40625 8.292969l-28.230468 134.035156c-.695313 3.296875-3.601563 5.558594-6.839844 5.558594zm0 0"></path>
    <path d="m377 374.085938h-330c-25.914062 0-47-21.082032-47-47v-280.085938c0-25.914062 21.085938-47 47-47h330c25.914062 0 47 21.085938 47 47v280.085938c0 25.917968-21.085938 47-47 47zm-330-360.085938c-18.195312 0-33 14.804688-33 33v280.085938c0 18.195312 14.804688 33 33 33h330c18.195312 0 33-14.804688 33-33v-280.085938c0-18.195312-14.804688-33-33-33zm0 0"></path>
    <path d="m417 112.089844h-410c-3.867188 0-7-3.132813-7-7 0-3.863282 3.132812-7 7-7h410c3.867188 0 7 3.136718 7 7 0 3.867187-3.132812 7-7 7zm0 0"></path>
    <path d="m119.601562 78.59375c-12.210937 0-22.152343-9.941406-22.152343-22.152344 0-12.214844 9.941406-22.152344 22.152343-22.152344 12.214844 0 22.152344 9.9375 22.152344 22.152344 0 12.210938-9.9375 22.152344-22.152344 22.152344zm0-30.304688c-4.492187 0-8.152343 3.65625-8.152343 8.152344s3.660156 8.152344 8.152343 8.152344c4.496094 0 8.152344-3.65625 8.152344-8.152344s-3.65625-8.152344-8.152344-8.152344zm0 0"></path>
    <path d="m51.539062 78.378906c-12.214843 0-22.152343-9.9375-22.152343-22.152344 0-12.214843 9.9375-22.152343 22.152343-22.152343 12.214844 0 22.152344 9.9375 22.152344 22.152343 0 12.214844-9.9375 22.152344-22.152344 22.152344zm0-30.304687c-4.492187 0-8.152343 3.660156-8.152343 8.152343 0 4.496094 3.660156 8.152344 8.152343 8.152344 4.496094 0 8.152344-3.65625 8.152344-8.152344 0-4.492187-3.65625-8.152343-8.152344-8.152343zm0 0"></path>
    <path d="m187.664062 78.804688c-12.210937 0-22.148437-9.9375-22.148437-22.152344 0-12.210938 9.9375-22.148438 22.148437-22.148438 12.214844 0 22.152344 9.9375 22.152344 22.148438 0 12.214844-9.9375 22.152344-22.152344 22.152344zm0-30.304688c-4.492187 0-8.148437 3.65625-8.148437 8.152344s3.65625 8.152344 8.148437 8.152344c4.496094 0 8.152344-3.65625 8.152344-8.152344s-3.65625-8.152344-8.152344-8.152344zm0 0"></path>
  </symbol>
</svg>